{"glyphs":{"0":{"ha":626,"x_min":38,"x_max":581,"o":"m 308 856 q 439 833 386 856 q 523 769 492 811 q 567 669 554 728 q 581 538 581 610 l 581 307 q 567 175 581 233 q 523 75 554 117 q 439 11 492 33 q 308 -11 386 -11 q 179 11 231 -11 q 96 75 128 33 q 51 175 64 117 q 38 307 38 233 l 38 538 q 51 669 38 610 q 96 769 64 728 q 179 833 128 811 q 308 856 231 856 m 413 529 q 389 695 413 644 q 308 746 365 746 q 231 695 254 746 q 207 529 207 644 l 207 315 q 231 149 207 200 q 308 99 254 99 q 389 149 365 99 q 413 315 413 200 l 413 529 z "},"1":{"ha":281,"x_min":8,"x_max":264,"o":"m 8 135 l 51 135 l 51 611 l 17 611 l 17 658 l 96 836 l 221 836 l 221 135 l 264 135 l 264 0 l 8 0 l 8 135 z "},"2":{"ha":579,"x_min":38,"x_max":535,"o":"m 39 0 q 63 160 39 99 q 124 264 88 222 q 202 335 160 306 q 281 398 244 364 q 341 479 317 432 q 365 604 365 526 q 351 706 365 667 q 296 746 338 746 q 252 734 269 746 q 224 695 235 722 q 210 624 214 668 q 208 515 207 581 l 186 494 l 46 494 q 47 647 38 579 q 85 760 56 714 q 165 831 114 807 q 294 856 217 856 q 408 836 361 856 q 482 781 454 817 q 522 694 510 744 q 535 583 535 644 q 515 462 535 513 q 465 373 496 411 q 395 306 433 335 q 319 249 357 276 q 248 192 281 222 q 196 124 215 163 l 400 124 l 400 167 l 535 167 l 535 0 l 39 0 z "},"3":{"ha":606,"x_min":36,"x_max":560,"o":"m 231 479 l 296 479 q 372 516 354 479 q 389 632 389 553 q 366 716 389 686 q 294 746 343 746 q 218 695 242 746 q 207 557 194 644 l 183 543 l 40 564 q 46 670 36 618 q 85 763 56 722 q 165 830 114 804 q 294 856 215 856 q 414 838 364 856 q 495 788 464 819 q 541 715 526 757 q 556 622 556 672 q 538 532 556 568 q 499 474 521 496 q 456 440 476 451 q 429 428 435 429 q 456 418 435 426 q 499 387 476 410 q 541 323 522 364 q 560 218 560 282 q 547 140 560 181 q 506 66 535 100 q 426 10 476 32 q 301 -11 376 -11 q 178 11 231 -11 q 94 74 126 33 q 49 172 61 114 q 44 299 36 229 l 200 299 l 214 283 q 213 223 211 256 q 224 163 215 190 q 250 116 232 135 q 297 97 268 97 q 369 131 349 97 q 390 206 390 164 q 391 260 390 232 q 383 313 392 289 q 353 351 375 336 q 286 367 332 367 l 231 367 l 231 479 z "},"4":{"ha":576,"x_min":35,"x_max":535,"o":"m 275 97 l 319 97 l 319 147 l 35 147 l 35 249 l 353 836 l 399 836 l 488 836 l 488 260 l 535 260 l 535 147 l 488 147 l 488 97 l 535 97 l 535 0 l 275 0 l 275 97 m 319 336 q 324 420 322 379 q 329 503 326 461 l 335 569 l 197 260 l 319 260 l 319 336 z "},"5":{"ha":603,"x_min":35,"x_max":558,"o":"m 381 671 l 381 714 l 239 714 l 217 521 q 244 524 228 522 q 275 525 260 525 q 406 517 351 529 q 494 473 460 504 q 543 390 528 442 q 558 263 558 338 q 547 179 558 226 q 505 90 535 132 q 425 18 475 47 q 299 -11 375 -11 q 176 11 228 -11 q 92 74 125 33 q 47 172 60 114 q 43 299 35 229 l 199 299 l 213 283 q 211 223 210 256 q 221 163 213 190 q 246 116 229 135 q 293 97 263 97 q 338 113 319 97 q 367 151 356 128 q 383 201 378 174 q 388 250 388 228 q 386 306 388 278 q 374 358 385 335 q 339 397 363 382 q 271 413 315 413 q 161 409 214 413 q 75 403 108 406 l 43 439 l 76 836 l 515 836 l 515 671 l 381 671 z "},"6":{"ha":636,"x_min":38,"x_max":589,"o":"m 331 -11 q 188 19 244 -11 q 99 100 132 49 q 51 219 65 151 q 38 365 38 288 l 38 468 q 108 761 38 667 q 332 856 179 856 q 432 840 390 856 q 501 803 474 825 q 546 756 529 781 q 569 713 563 731 l 557 681 l 417 649 q 415 665 417 650 q 405 696 413 679 q 382 726 397 713 q 342 742 367 740 q 257 685 288 746 q 221 603 232 656 q 210 479 210 550 l 210 463 q 273 497 238 479 q 353 514 308 514 q 462 491 417 514 q 535 432 507 468 q 576 349 563 396 q 589 256 589 303 q 576 165 589 211 q 532 78 563 118 q 452 14 501 39 q 331 -11 403 -11 m 419 258 q 416 317 419 289 q 403 367 413 346 q 376 401 393 389 q 332 414 358 414 q 265 392 297 414 q 210 335 233 371 q 216 238 211 282 q 231 164 221 194 q 261 117 242 133 q 311 100 281 100 q 392 138 364 100 q 419 258 419 176 z "},"7":{"ha":540,"x_min":33,"x_max":497,"o":"m 33 671 l 33 714 l 33 836 l 497 836 l 497 754 l 286 97 l 326 97 l 326 0 l 67 0 l 67 97 l 111 97 l 313 714 l 168 714 l 168 671 l 33 671 z "},"8":{"ha":604,"x_min":38,"x_max":558,"o":"m 554 622 q 537 533 554 569 q 497 473 519 496 q 453 440 474 450 q 426 428 432 429 q 452 419 431 428 q 497 388 474 411 q 540 324 521 365 q 558 218 558 283 q 547 142 558 182 q 505 67 535 101 q 425 11 475 33 q 299 -11 375 -11 q 172 11 222 -11 q 92 67 122 33 q 50 142 63 101 q 38 218 38 182 q 55 319 38 279 q 94 382 72 358 q 138 415 117 406 q 165 428 158 425 q 138 440 158 429 q 97 474 118 451 q 58 533 75 497 q 42 622 42 569 q 57 714 42 671 q 103 788 72 757 q 183 838 135 819 q 297 856 231 856 q 413 838 364 856 q 492 788 461 819 q 539 714 524 757 q 554 622 554 671 m 299 478 q 372 513 354 478 q 390 610 390 549 q 369 710 390 675 q 299 746 347 746 q 228 708 250 746 q 207 611 207 669 q 210 559 207 583 q 224 517 214 535 q 253 488 235 499 q 299 478 271 478 m 299 97 q 369 133 347 97 q 390 232 390 168 q 372 330 390 296 q 299 364 354 364 q 225 327 243 364 q 207 232 207 290 q 228 135 207 174 q 299 97 250 97 z "},"9":{"ha":636,"x_min":39,"x_max":590,"o":"m 297 856 q 440 826 383 856 q 531 746 497 797 q 577 626 564 694 q 590 481 590 558 l 590 378 q 520 84 590 179 q 297 -11 450 -11 q 197 4 239 -11 q 128 42 156 19 q 83 89 100 64 q 58 132 67 114 l 72 164 l 213 196 q 216 176 213 192 q 229 143 219 160 q 256 113 239 126 q 301 99 274 99 q 390 169 363 99 q 419 367 418 240 l 419 383 q 356 349 392 367 q 276 332 321 332 q 167 355 213 332 q 94 414 122 378 q 52 497 65 450 q 39 590 39 543 q 52 681 39 633 q 96 767 65 728 q 176 831 126 806 q 297 856 225 856 m 210 589 q 213 529 210 557 q 226 479 217 501 q 253 444 236 457 q 297 432 269 432 q 364 453 332 432 q 419 511 396 475 q 413 608 418 565 q 397 681 408 651 q 367 728 386 711 q 318 744 349 744 q 238 707 265 744 q 210 589 210 669 z "},"\u0000":{"ha":0,"x_min":0,"x_max":0,"o":""},"\r":{"ha":694,"x_min":0,"x_max":0,"o":""}," ":{"ha":279,"x_min":0,"x_max":0,"o":""},"W":{"ha":753,"x_min":-32,"x_max":778,"o":"m 210 701 l 169 701 l 206 464 l 219 219 l 247 460 l 292 836 l 439 836 l 483 474 l 517 200 l 526 442 l 574 701 l 533 701 l 533 836 l 778 836 l 778 701 l 738 701 l 597 0 l 422 0 l 382 264 l 357 483 l 338 264 l 283 0 l 122 0 l 8 701 l -32 701 l -32 836 l 210 836 l 210 701 z "},"V":{"ha":597,"x_min":-39,"x_max":621,"o":"m 215 701 l 188 701 l 264 400 l 293 178 l 326 400 l 406 701 l 379 701 l 379 836 l 621 836 l 621 701 l 582 701 l 381 0 l 199 0 l 3 701 l -39 701 l -39 836 l 215 836 l 215 701 z "},"U":{"ha":628,"x_min":14,"x_max":614,"o":"m 365 836 l 614 836 l 614 701 l 571 701 l 571 385 q 564 210 571 285 q 531 87 557 136 q 452 13 504 38 q 308 -11 400 -11 q 168 13 218 -11 q 93 87 118 38 q 63 210 68 136 q 57 385 57 285 l 57 701 l 14 701 l 14 836 l 58 836 l 257 836 l 257 701 l 219 701 l 219 347 q 222 248 219 293 q 235 171 225 203 q 264 121 246 139 q 314 103 282 103 q 363 122 346 103 q 389 173 381 140 q 399 250 397 206 q 401 347 401 294 l 401 701 l 365 701 l 365 836 z "},"T":{"ha":535,"x_min":0,"x_max":535,"o":"m 431 658 l 431 701 l 351 701 l 351 135 l 394 135 l 394 0 l 139 0 l 139 135 l 182 135 l 182 701 l 103 701 l 103 658 l 0 658 l 0 836 l 535 836 l 535 658 l 431 658 z "},"S":{"ha":576,"x_min":19,"x_max":544,"o":"m 194 636 q 210 579 194 604 q 251 533 225 554 q 308 492 276 513 q 374 451 340 472 q 436 409 406 432 q 491 358 467 386 q 530 295 515 331 q 544 214 544 260 q 532 137 544 176 q 490 65 519 97 q 411 10 461 32 q 286 -11 361 -11 q 165 11 217 -11 q 79 74 113 33 q 33 172 46 114 q 28 299 19 229 l 185 299 l 199 283 q 198 223 196 256 q 209 163 200 190 q 235 116 218 135 q 282 97 253 97 q 355 129 335 97 q 375 201 375 161 q 361 256 375 232 q 324 301 347 281 q 270 338 300 321 q 208 375 240 356 q 142 419 175 396 q 84 472 110 442 q 42 539 58 501 q 26 626 26 576 q 42 717 26 675 q 89 790 57 758 q 169 838 121 821 q 286 856 218 856 q 417 831 365 856 q 497 764 468 806 q 534 670 525 722 q 538 564 543 618 l 397 543 l 375 557 q 363 695 386 644 q 286 746 340 746 q 217 716 239 746 q 194 636 194 686 z "},"R":{"ha":632,"x_min":14,"x_max":618,"o":"m 14 836 l 57 836 l 311 836 q 442 821 389 836 q 529 776 496 806 q 577 706 563 747 q 592 613 592 664 q 556 466 592 531 q 431 375 519 401 l 475 331 l 554 135 l 618 135 l 618 0 l 433 0 l 336 263 q 293 331 318 307 q 226 361 256 364 l 226 135 l 269 135 l 269 0 l 14 0 l 14 135 l 57 135 l 57 701 l 14 701 l 14 836 m 226 721 l 226 461 l 318 461 q 364 473 344 461 q 397 503 383 485 q 416 547 410 522 q 422 597 422 572 q 396 684 422 647 q 311 721 369 721 l 226 721 z "},"P":{"ha":619,"x_min":14,"x_max":601,"o":"m 14 836 l 257 836 l 325 836 q 456 815 403 835 q 541 759 508 796 q 588 670 574 722 q 601 553 601 618 q 586 424 601 478 q 534 336 571 371 q 435 285 497 301 q 282 269 374 269 l 225 269 l 225 135 l 269 135 l 269 0 l 14 0 l 14 135 l 57 135 l 57 701 l 14 701 l 14 836 m 225 721 l 225 379 l 325 379 q 408 426 383 379 q 432 553 432 474 q 406 676 432 631 q 318 721 379 721 l 225 721 z "},"O":{"ha":613,"x_min":24,"x_max":581,"o":"m 297 856 q 438 826 382 856 q 524 741 493 797 q 568 603 556 685 q 581 418 581 522 q 569 239 581 318 q 526 104 557 160 q 440 19 494 49 q 297 -11 385 -11 q 156 19 210 -11 q 73 103 103 49 q 33 238 43 158 q 24 418 24 318 q 34 603 24 522 q 75 741 44 685 q 158 826 106 797 q 297 856 211 856 m 413 418 q 410 551 413 492 q 396 653 407 611 q 363 719 385 696 q 304 742 342 742 q 244 719 267 742 q 208 653 221 696 q 192 551 196 611 q 188 418 188 492 q 191 291 188 349 q 206 192 194 233 q 240 126 217 150 q 303 103 263 103 q 365 127 343 103 q 398 194 388 151 q 410 294 408 236 q 413 418 413 351 z "},"N":{"ha":647,"x_min":14,"x_max":633,"o":"m 378 836 l 590 836 l 590 0 l 451 0 l 194 539 q 203 503 199 521 q 210 468 207 486 l 226 297 l 226 135 l 269 135 l 269 0 l 14 0 l 14 135 l 57 135 l 57 701 l 14 701 l 14 836 l 196 836 l 453 294 q 444 331 449 313 q 436 369 439 350 l 421 526 l 421 701 l 378 701 l 378 836 m 590 836 l 633 836 l 633 701 l 590 701 l 590 836 z "},"M":{"ha":774,"x_min":14,"x_max":760,"o":"m 524 135 l 547 135 l 547 272 l 586 524 l 415 0 l 339 0 l 190 467 l 201 264 l 201 135 l 236 135 l 236 0 l 14 0 l 14 135 l 57 135 l 57 701 l 14 701 l 14 836 l 215 836 q 289 624 254 724 q 361 411 324 524 l 376 275 l 408 389 l 553 836 l 760 836 l 760 701 l 717 701 l 717 135 l 760 135 l 760 0 l 524 0 l 524 135 z "},"L":{"ha":485,"x_min":14,"x_max":482,"o":"m 226 135 l 347 135 l 347 178 l 482 178 l 482 0 l 14 0 l 14 135 l 57 135 l 57 701 l 14 701 l 14 836 l 226 836 l 269 836 l 269 701 l 226 701 l 226 135 z "},"J":{"ha":529,"x_min":21,"x_max":515,"o":"m 267 836 l 515 836 l 515 701 l 472 701 l 472 299 q 467 180 472 236 q 439 81 461 124 q 372 14 417 39 q 247 -11 326 -11 q 134 12 179 -11 q 63 75 89 35 q 29 170 38 115 q 25 290 21 225 l 171 308 l 186 294 q 188 222 186 257 q 195 159 189 186 q 215 116 201 132 q 251 100 228 100 q 288 114 276 100 q 305 154 300 128 q 310 219 310 181 q 310 307 310 257 l 310 701 l 267 701 l 267 836 z "},"I":{"ha":271,"x_min":14,"x_max":269,"o":"m 14 836 l 226 836 l 226 135 l 269 135 l 269 0 l 14 0 l 14 135 l 57 135 l 57 701 l 14 701 l 14 836 m 226 836 l 269 836 l 269 701 l 226 701 l 226 836 z "},"H":{"ha":647,"x_min":14,"x_max":633,"o":"m 378 135 l 421 135 l 421 360 l 226 360 l 226 135 l 269 135 l 269 0 l 14 0 l 14 135 l 57 135 l 57 701 l 14 701 l 14 836 l 269 836 l 269 701 l 226 701 l 226 479 l 421 479 l 421 701 l 378 701 l 378 836 l 421 836 l 633 836 l 633 701 l 590 701 l 590 135 l 633 135 l 633 0 l 378 0 l 378 135 z "},"G":{"ha":615,"x_min":24,"x_max":613,"o":"m 569 0 l 485 0 q 466 40 475 19 q 447 81 457 61 q 388 15 428 40 q 279 -11 347 -11 q 85 61 147 -11 q 24 299 24 133 l 24 551 q 37 668 24 613 q 82 765 50 724 q 167 832 114 807 q 297 857 219 857 q 426 833 372 857 q 515 766 481 810 q 562 662 549 722 q 568 528 575 601 l 417 528 l 400 540 q 396 624 400 586 q 381 690 392 663 q 351 733 371 718 q 301 749 332 749 q 218 695 244 749 q 192 544 192 642 l 192 306 q 213 153 192 206 q 292 100 233 100 q 344 117 324 100 q 378 161 365 133 q 395 224 390 189 q 400 299 400 260 l 357 299 l 357 433 l 613 433 l 613 299 l 569 299 l 569 0 z "},"F":{"ha":515,"x_min":14,"x_max":515,"o":"m 381 658 l 381 701 l 226 701 l 226 433 l 407 433 l 407 306 l 226 306 l 226 135 l 269 135 l 269 0 l 14 0 l 14 135 l 57 135 l 57 701 l 14 701 l 14 836 l 515 836 l 515 658 l 381 658 z "},"E":{"ha":533,"x_min":14,"x_max":519,"o":"m 379 658 l 379 701 l 226 701 l 226 479 l 404 479 l 404 360 l 226 360 l 226 135 l 385 135 l 385 178 l 519 178 l 519 0 l 14 0 l 14 135 l 57 135 l 57 701 l 14 701 l 14 836 l 57 836 l 514 836 l 514 658 l 379 658 z "},"D":{"ha":633,"x_min":14,"x_max":603,"o":"m 14 836 l 314 836 q 461 808 404 836 q 549 725 518 779 q 592 593 581 671 q 603 418 603 515 q 592 244 603 322 q 549 113 581 167 q 460 29 517 58 q 314 0 404 0 l 14 0 l 14 135 l 57 135 l 57 701 l 14 701 l 14 836 m 226 722 l 226 114 l 308 114 q 374 136 349 114 q 412 199 399 158 q 429 294 425 239 q 433 418 433 350 q 431 541 433 485 q 418 638 429 597 q 383 700 407 678 q 318 722 360 722 l 226 722 z "},"C":{"ha":600,"x_min":24,"x_max":575,"o":"m 24 551 q 38 669 24 614 q 83 767 51 725 q 166 833 114 808 q 296 857 218 857 q 424 833 369 857 q 513 767 479 810 q 561 663 547 724 q 568 528 575 601 l 415 528 l 400 540 q 396 624 400 586 q 381 690 392 663 q 350 733 369 718 q 300 749 331 749 q 217 694 243 749 q 192 544 192 640 l 192 306 q 212 153 192 207 q 292 100 232 100 q 343 117 322 100 q 376 160 364 133 q 394 224 389 188 q 400 297 400 260 l 415 311 l 568 293 q 557 172 572 228 q 508 75 542 115 q 421 12 474 35 q 296 -11 368 -11 q 165 14 218 -11 q 81 81 113 39 q 37 180 50 124 q 24 299 24 236 l 24 551 z "},"B":{"ha":631,"x_min":14,"x_max":600,"o":"m 14 836 l 57 836 l 325 836 q 454 822 401 836 q 539 779 507 807 q 585 711 571 751 q 600 619 600 671 q 583 512 600 561 q 522 431 565 463 q 583 355 567 401 q 600 250 600 308 q 587 151 600 197 q 542 72 574 106 q 460 19 511 39 q 332 0 408 0 l 14 0 l 14 135 l 57 135 l 57 701 l 14 701 l 14 836 m 431 250 q 410 341 431 308 q 342 378 390 374 l 225 378 l 225 115 l 332 115 q 408 151 385 115 q 431 250 431 186 m 225 721 l 225 478 l 338 478 q 377 490 360 479 q 406 518 394 500 q 424 558 418 536 q 431 606 431 581 q 406 688 431 654 q 325 721 382 721 l 225 721 z "},"z":{"ha":451,"x_min":10,"x_max":440,"o":"m 10 474 l 10 639 l 440 639 l 440 557 l 204 124 l 331 124 l 331 167 l 440 167 l 440 0 l 10 0 l 10 82 l 261 517 l 119 517 l 119 474 l 10 474 z "},"y":{"ha":557,"x_min":-11,"x_max":568,"o":"m 229 503 l 196 503 l 250 350 l 268 176 l 310 350 l 363 503 l 326 503 l 326 638 l 568 638 l 568 503 l 526 503 l 306 -85 l 344 -85 l 344 -219 l 90 -219 l 90 -85 l 151 -85 l 197 28 l 31 503 l -11 503 l -11 638 l 229 638 l 229 503 z "},"x":{"ha":494,"x_min":-7,"x_max":500,"o":"m 283 638 l 499 638 l 499 503 l 446 503 l 407 422 q 383 385 397 401 q 357 357 369 368 q 335 339 344 346 q 325 332 326 332 l 383 281 l 442 135 l 500 135 l 500 0 l 286 0 l 286 110 l 310 110 l 233 260 l 161 110 l 183 110 l 183 0 l -7 0 l -7 135 l 44 135 l 97 281 l 151 332 q 140 339 149 332 q 120 358 132 346 q 96 388 108 371 q 74 426 83 406 l 39 503 l -7 503 l -7 638 l 185 638 l 185 528 l 160 528 l 233 385 l 307 528 l 283 528 l 283 638 z "},"w":{"ha":725,"x_min":-4,"x_max":729,"o":"m 203 503 l 176 503 l 206 349 l 218 190 l 235 344 l 293 638 l 415 638 l 475 347 l 497 190 l 504 347 l 536 503 l 514 503 l 501 638 l 729 638 l 729 503 l 692 503 l 576 0 l 435 0 l 368 235 l 356 394 l 340 235 l 269 0 l 119 0 l 28 503 l -4 503 l -4 638 l 215 638 l 203 503 z "},"v":{"ha":558,"x_min":-11,"x_max":568,"o":"m 326 638 l 568 638 l 568 503 l 525 503 l 363 0 l 200 0 l 31 503 l -11 503 l -11 638 l 229 638 l 229 503 l 196 503 l 250 340 l 279 138 l 308 340 l 363 503 l 326 503 l 326 638 z "},"u":{"ha":658,"x_min":14,"x_max":644,"o":"m 268 503 l 225 503 l 225 285 q 228 202 225 235 q 242 149 232 169 q 273 122 253 129 q 325 114 293 114 q 376 125 356 114 q 409 153 397 136 q 426 193 421 171 q 432 238 431 215 l 432 503 l 389 503 l 389 638 l 644 638 l 644 503 l 601 503 l 601 135 l 644 135 l 644 0 l 454 0 q 448 43 451 21 q 442 86 444 65 q 387 26 421 50 q 308 -6 353 1 q 250 -11 285 -11 q 164 4 200 -10 q 103 50 128 18 q 68 134 79 82 q 57 261 57 186 l 57 503 l 14 503 l 14 638 l 57 638 l 268 638 l 268 503 z "},"t":{"ha":335,"x_min":3,"x_max":313,"o":"m 232 526 l 232 249 q 235 183 232 208 q 248 144 239 158 q 272 126 257 131 q 313 122 288 121 l 313 -1 q 124 26 186 -33 q 63 254 63 85 l 63 526 l 3 526 l 3 638 l 63 638 l 63 792 l 194 822 l 232 822 l 232 638 l 313 638 l 313 526 l 232 526 z "},"s":{"ha":567,"x_min":17,"x_max":536,"o":"m 199 479 q 214 431 199 450 q 253 398 229 411 q 310 375 278 385 q 375 354 342 365 q 434 332 406 344 q 485 301 463 319 q 522 255 508 282 q 536 189 536 228 q 522 117 536 153 q 477 53 508 81 q 396 8 446 25 q 274 -10 346 -10 q 163 7 211 -10 q 81 55 114 24 q 32 131 47 86 q 22 231 17 175 l 178 231 l 193 215 q 204 131 189 165 q 274 97 219 97 q 346 119 326 97 q 365 176 365 140 q 353 221 365 203 q 319 253 340 239 q 271 277 299 267 q 214 299 243 288 q 150 322 182 310 q 93 353 118 335 q 51 396 68 371 q 32 457 35 421 q 42 537 28 499 q 88 603 56 575 q 169 647 119 631 q 286 664 218 664 q 463 610 400 664 q 524 461 525 556 l 382 440 l 360 454 q 344 527 358 500 q 281 554 331 554 q 216 532 233 554 q 199 479 199 510 z "},"r":{"ha":408,"x_min":14,"x_max":401,"o":"m 14 638 l 57 638 l 204 638 q 212 598 208 618 q 218 558 215 578 q 272 647 232 615 q 356 678 311 679 q 401 665 381 678 l 401 501 l 378 483 q 301 506 347 522 q 243 451 260 490 q 226 368 226 411 l 226 135 l 269 135 l 269 0 l 14 0 l 14 135 l 57 135 l 57 503 l 14 503 l 14 638 z "},"o":{"ha":601,"x_min":24,"x_max":569,"o":"m 296 667 q 426 647 374 667 q 510 590 478 626 q 556 503 542 554 q 569 392 569 453 l 569 265 q 556 153 569 204 q 510 67 542 103 q 426 10 478 31 q 296 -10 374 -10 q 166 10 218 -10 q 83 67 114 31 q 38 153 51 103 q 24 265 24 204 l 24 392 q 38 503 24 453 q 83 590 51 554 q 166 647 114 626 q 296 667 218 667 m 401 385 q 378 515 401 474 q 296 557 354 557 q 216 515 239 557 q 193 385 193 474 l 193 272 q 216 142 193 183 q 296 100 239 100 q 378 142 354 100 q 401 272 401 183 l 401 385 z "},"m":{"ha":950,"x_min":14,"x_max":936,"o":"m 347 135 l 390 135 l 390 351 q 377 492 390 450 q 313 535 364 535 q 265 523 282 535 q 239 492 247 511 q 228 449 231 472 q 226 403 226 425 l 226 135 l 269 135 l 269 0 l 14 0 l 14 135 l 57 135 l 57 503 l 14 503 l 14 638 l 57 638 l 188 638 l 207 565 q 270 640 231 614 q 364 667 310 667 q 435 659 407 667 q 481 638 464 651 q 508 604 499 624 q 524 563 517 585 q 553 609 533 589 q 600 642 574 629 q 657 660 626 654 q 719 667 688 667 q 817 645 782 667 q 869 586 853 624 q 890 497 886 549 q 893 385 893 446 l 893 135 l 936 135 l 936 0 l 681 0 l 681 135 l 724 135 l 724 353 q 710 492 724 450 q 646 535 696 535 q 603 526 619 535 q 576 502 586 517 q 563 469 567 488 q 560 431 560 450 l 560 135 l 603 135 l 603 0 l 347 0 l 347 135 z "},"l":{"ha":283,"x_min":14,"x_max":269,"o":"m 14 928 l 226 928 l 226 135 l 269 135 l 269 0 l 14 0 l 14 135 l 57 135 l 57 793 l 14 793 l 14 928 z "},"k":{"ha":588,"x_min":14,"x_max":589,"o":"m 14 928 l 57 928 l 226 928 l 226 372 q 257 371 238 368 q 285 384 272 374 q 310 415 299 394 q 335 464 317 428 q 372 539 353 500 q 421 638 394 585 l 589 638 l 589 503 l 528 503 q 505 453 515 475 q 488 421 494 432 q 441 356 464 379 q 408 331 418 333 l 461 278 l 529 135 l 589 135 l 589 0 l 435 0 l 267 293 l 226 293 l 226 135 l 269 135 l 269 0 l 14 0 l 14 135 l 57 135 l 57 793 l 14 793 l 14 928 z "},"j":{"ha":285,"x_min":-19,"x_max":246,"o":"m 14 638 l 226 638 l 226 7 q 165 -198 226 -144 q -19 -222 103 -251 l -19 -103 q 18 -99 3 -103 q 42 -81 33 -94 q 53 -45 50 -68 q 57 14 57 -22 l 57 503 l 14 503 l 14 638 m 246 817 q 215 742 246 772 q 142 713 185 713 q 68 742 99 713 q 38 817 38 772 q 68 890 38 860 q 142 921 99 921 q 215 890 185 921 q 246 817 246 860 z "},"f":{"ha":317,"x_min":4,"x_max":314,"o":"m 22 135 l 65 135 l 65 526 l 4 526 l 4 638 l 65 638 l 65 707 q 128 915 65 861 q 314 939 192 968 l 314 819 q 275 816 290 821 q 251 798 260 811 q 238 761 242 785 q 235 700 235 738 l 235 638 l 314 638 l 314 526 l 235 526 l 235 135 l 278 135 l 278 0 l 22 0 l 22 135 z "},"e":{"ha":568,"x_min":24,"x_max":536,"o":"m 389 225 l 533 206 q 515 130 531 168 q 468 60 499 92 q 392 10 438 29 q 285 -10 347 -10 q 157 14 207 -10 q 77 76 107 38 q 35 165 47 115 q 24 265 24 214 l 24 394 q 35 492 24 444 q 76 578 47 540 q 156 640 106 617 q 285 664 207 664 q 403 642 356 664 q 481 583 451 621 q 524 495 511 546 q 536 386 536 444 l 536 307 l 524 294 l 193 294 l 193 274 q 210 140 193 181 q 285 100 228 100 q 344 130 329 100 q 365 217 360 160 l 389 225 m 285 556 q 210 515 228 556 q 193 388 193 475 l 193 382 l 367 382 l 367 385 l 367 428 q 350 524 367 493 q 285 556 333 556 z "},"c":{"ha":568,"x_min":24,"x_max":547,"o":"m 24 394 q 35 504 24 454 q 77 590 47 554 q 157 644 107 625 q 285 664 207 664 q 489 586 431 664 q 533 369 547 508 l 383 369 l 367 383 q 365 462 367 429 q 355 515 363 494 q 331 546 347 536 q 285 556 314 556 q 210 517 228 556 q 193 388 193 479 l 193 272 q 210 138 193 176 q 285 100 228 100 q 351 144 336 100 q 367 264 367 188 l 383 276 l 533 260 q 526 153 538 203 q 485 68 514 104 q 406 11 456 32 q 285 -10 357 -10 q 157 10 207 -10 q 77 65 107 29 q 35 152 47 101 q 24 265 24 203 l 24 394 z "},"g":{"ha":625,"x_min":24,"x_max":610,"o":"m 567 -1 q 551 -100 564 -56 q 509 -176 539 -144 q 430 -226 479 -208 q 306 -243 381 -243 q 124 -199 188 -243 q 60 -81 60 -156 l 83 -51 l 224 -51 q 306 -133 222 -133 q 382 -93 365 -133 q 399 36 399 -53 l 399 79 q 319 13 368 35 q 204 -10 269 -10 q 115 13 150 -10 q 59 76 79 36 q 31 169 39 115 q 24 285 24 224 l 24 360 q 31 489 24 432 q 59 585 38 546 q 119 646 81 625 q 224 667 158 667 q 335 642 289 667 q 408 571 381 617 q 414 604 411 588 q 419 638 417 621 l 567 638 l 610 638 l 610 503 l 567 503 l 567 -1 m 193 285 q 197 220 193 250 q 213 168 201 190 q 244 133 224 146 q 296 121 264 121 q 346 131 326 121 q 377 156 365 140 q 394 193 389 172 q 399 235 399 214 l 399 421 q 394 462 399 442 q 377 498 389 482 q 346 524 365 514 q 296 535 326 535 q 244 524 264 535 q 213 492 224 514 q 197 438 201 471 q 193 360 193 406 l 193 285 z "},"i":{"ha":285,"x_min":14,"x_max":269,"o":"m 14 638 l 226 638 l 226 135 l 269 135 l 269 0 l 14 0 l 14 135 l 57 135 l 57 503 l 14 503 l 14 638 m 246 817 q 215 742 246 772 q 142 713 185 713 q 68 742 99 713 q 38 817 38 772 q 68 890 38 860 q 142 921 99 921 q 215 890 185 921 q 246 817 246 860 z "},"n":{"ha":657,"x_min":14,"x_max":643,"o":"m 388 135 l 431 135 l 431 401 q 410 504 431 474 q 326 535 390 535 q 276 524 296 535 q 246 497 257 514 q 231 459 235 481 q 226 415 226 438 l 226 135 l 269 135 l 269 0 l 14 0 l 14 135 l 57 135 l 57 503 l 14 503 l 14 638 l 204 638 q 212 599 208 618 q 219 560 215 579 q 258 611 235 589 q 313 644 282 633 q 429 665 363 668 q 526 645 492 664 q 576 592 560 626 q 597 510 593 558 q 600 401 600 461 l 600 135 l 643 135 l 643 0 l 388 0 l 388 135 z "},"ð":{"ha":617,"x_min":24,"x_max":572,"o":"m 236 742 l 285 794 q 220 808 257 806 q 139 804 183 811 l 139 928 q 274 935 213 938 q 381 918 335 933 l 413 956 l 460 956 l 532 890 l 481 849 q 551 676 529 786 q 572 392 572 567 l 572 265 q 558 153 572 204 q 513 67 544 103 q 428 10 481 31 q 297 -10 375 -10 q 167 10 219 -10 q 83 67 115 31 q 38 153 51 103 q 24 265 24 204 l 24 392 q 35 503 24 453 q 73 590 46 554 q 143 647 100 626 q 251 667 186 667 q 346 646 310 667 q 401 590 382 625 q 354 743 394 686 l 293 692 l 236 742 m 404 385 q 381 515 404 472 q 297 557 358 557 q 216 516 239 557 q 193 385 193 475 l 193 272 q 217 141 193 182 q 297 100 240 100 q 381 141 357 100 q 404 272 404 182 l 404 385 z "},"ß":{"ha":615,"x_min":-6,"x_max":571,"o":"m -6 135 l 38 135 l 38 692 q 56 819 38 771 q 108 894 74 867 q 192 930 142 921 q 308 939 243 939 q 480 882 425 939 q 535 731 535 825 q 526 654 535 686 q 506 599 517 622 q 485 556 494 575 q 476 515 476 536 q 491 459 476 489 q 524 393 506 429 q 556 313 542 357 q 571 217 571 269 q 557 139 571 179 q 512 65 543 99 q 430 11 481 32 q 307 -10 379 -10 l 307 97 q 380 131 358 97 q 401 204 401 164 q 388 306 401 260 q 356 390 374 353 q 325 458 339 428 q 311 513 311 488 q 321 553 311 533 q 342 596 331 574 q 365 646 354 618 q 381 711 376 674 q 361 787 383 754 q 296 819 339 819 q 228 788 250 819 q 207 683 207 756 l 207 0 l -6 0 l -6 135 z "},"¸":{"ha":394,"x_min":39,"x_max":349,"o":"m 217 53 l 186 -60 q 250 -60 219 -54 q 303 -82 281 -65 q 337 -124 325 -99 q 344 -185 349 -150 q 306 -270 339 -239 q 228 -310 274 -301 q 133 -305 183 -318 q 39 -256 82 -292 l 69 -168 q 128 -200 96 -189 q 188 -211 160 -211 q 235 -200 215 -211 q 254 -165 254 -189 q 239 -131 254 -143 q 199 -115 224 -119 q 146 -114 175 -111 q 92 -122 117 -117 l 126 38 l 217 53 z "},"¨":{"ha":472,"x_min":38,"x_max":428,"o":"m 428 825 q 402 763 428 789 q 340 738 376 738 q 279 763 304 738 q 254 825 254 789 q 279 887 254 861 q 340 913 304 913 q 402 887 376 913 q 428 825 428 861 m 211 825 q 185 763 211 789 q 124 738 160 738 q 63 763 88 738 q 38 825 38 789 q 63 887 38 861 q 124 913 88 913 q 185 887 160 913 q 211 825 211 861 z "},"˚":{"ha":379,"x_min":38,"x_max":333,"o":"m 185 1001 q 242 990 215 1001 q 290 960 269 979 q 322 913 310 940 q 333 856 333 886 q 322 799 333 825 q 291 752 311 772 q 244 720 271 732 q 188 708 218 708 q 130 719 157 708 q 83 750 103 731 q 50 796 63 769 q 38 853 38 822 q 49 910 38 883 q 81 958 61 938 q 128 990 101 978 q 185 1001 154 1001 m 186 764 q 251 790 224 764 q 278 854 278 817 q 251 919 278 893 q 186 946 224 946 q 122 919 149 946 q 94 854 94 893 q 122 790 94 817 q 186 764 149 764 z "},"`":{"ha":446,"x_min":40,"x_max":396,"o":"m 371 719 l 68 761 l 40 896 l 68 914 l 396 782 l 371 719 z "},"˜":{"ha":563,"x_min":38,"x_max":517,"o":"m 306 892 q 353 863 335 871 q 386 856 372 854 q 411 872 400 858 q 435 910 422 885 l 517 860 q 402 739 471 764 q 254 772 333 714 q 205 803 225 793 q 169 810 185 813 q 142 792 154 807 q 117 750 129 776 l 38 804 q 90 879 60 850 q 154 921 119 908 q 227 926 189 933 q 306 892 265 919 z "},"¯":{"ha":475,"x_min":38,"x_max":429,"o":"m 429 761 l 38 761 l 38 869 l 429 869 l 429 761 z "},"˘":{"ha":454,"x_min":38,"x_max":408,"o":"m 408 929 q 394 856 408 890 q 356 797 381 822 q 297 756 331 771 q 225 742 264 742 q 152 756 186 742 q 93 796 118 771 q 53 854 68 821 q 38 926 38 888 l 126 928 q 154 858 126 888 q 224 829 182 829 q 292 858 264 829 q 321 928 321 888 l 408 929 z "},"ˇ":{"ha":474,"x_min":38,"x_max":428,"o":"m 157 939 l 235 833 l 307 939 l 428 939 l 300 742 l 168 742 l 38 939 l 157 939 z "},"˛":{"ha":403,"x_min":29,"x_max":357,"o":"m 357 60 q 301 3 328 31 q 253 -47 278 -21 q 208 -93 228 -74 q 178 -144 183 -121 q 185 -181 174 -167 q 221 -199 196 -194 q 281 -192 246 -203 l 281 -261 q 131 -283 189 -292 q 51 -242 74 -274 q 44 -165 29 -211 q 114 -78 60 -119 q 226 6 172 -32 q 317 92 279 43 l 357 60 z "},"-":{"ha":371,"x_min":38,"x_max":325,"o":"m 325 256 l 38 256 l 38 374 l 325 374 l 325 256 z "},"Þ":{"ha":629,"x_min":-6,"x_max":586,"o":"m 181 86 l 249 86 l 249 0 l -6 0 l -6 85 l 38 85 l 38 751 l -6 751 l -6 836 l 249 836 l 249 753 l 178 753 l 178 703 l 303 703 q 436 683 382 703 q 524 627 490 664 q 572 538 557 590 q 586 419 586 486 q 573 301 586 353 q 528 212 560 249 q 442 156 496 175 q 310 136 389 136 l 181 136 l 181 86 m 206 588 l 206 246 l 310 246 q 393 294 368 246 q 418 419 418 343 q 390 543 418 499 q 303 588 363 588 l 206 588 z "},"˙":{"ha":294,"x_min":38,"x_max":250,"o":"m 250 814 q 219 739 250 769 q 144 708 188 708 q 69 739 100 708 q 38 814 38 769 q 69 889 38 858 q 144 919 100 919 q 219 889 188 919 q 250 814 250 858 z "},"a":{"ha":625,"x_min":24,"x_max":610,"o":"m 567 135 l 610 135 l 610 0 l 417 0 q 409 41 414 21 q 401 82 404 61 q 320 13 371 36 q 203 -10 269 -10 q 113 14 147 -10 q 58 77 78 38 q 31 170 38 117 q 24 285 24 224 l 24 360 q 31 488 24 431 q 58 584 38 544 q 119 645 79 624 q 224 667 158 667 q 335 641 290 667 q 407 569 381 615 q 413 603 410 586 q 418 638 415 621 l 567 638 l 610 638 l 610 503 l 567 503 l 567 135 m 193 285 q 197 222 193 251 q 211 169 200 192 q 242 134 222 147 q 294 121 261 121 q 348 132 328 121 q 380 160 368 143 q 395 199 392 178 q 399 240 399 221 l 399 401 q 396 446 399 422 q 383 490 393 469 q 351 522 372 510 q 294 535 331 535 q 242 524 261 535 q 211 492 222 514 q 197 438 200 471 q 193 360 193 404 l 193 285 z "},"A":{"ha":614,"x_min":-14,"x_max":628,"o":"m 386 122 l 418 122 l 393 203 l 206 203 l 183 122 l 226 122 l 226 0 l -14 0 l -14 135 l 28 135 l 206 836 l 386 836 l 583 135 l 628 135 l 628 0 l 386 0 l 386 122 m 225 303 l 369 303 l 339 397 l 293 660 l 253 397 l 225 303 z "},"Z":{"ha":426,"x_min":-11,"x_max":450,"o":"m -11 671 l -11 836 l 450 836 l 450 754 l 179 124 l 307 124 l 307 167 l 429 167 l 429 0 l -11 0 l -11 82 l 263 714 l 124 714 l 124 671 l -11 671 z "},"Y":{"ha":536,"x_min":-28,"x_max":557,"o":"m 321 836 l 557 836 l 557 701 l 515 701 l 354 315 l 354 135 l 397 135 l 397 0 l 143 0 l 143 135 l 186 135 l 186 324 l 15 701 l -28 701 l -28 836 l 201 836 l 201 701 l 171 701 l 235 558 l 267 439 l 293 553 l 357 701 l 321 701 l 321 836 z "},".":{"ha":294,"x_min":46,"x_max":242,"o":"m 242 99 q 213 29 242 58 q 144 0 185 0 q 74 29 103 0 q 46 99 46 58 q 74 167 46 139 q 144 196 103 196 q 213 167 185 196 q 242 99 242 139 z "},"d":{"ha":625,"x_min":24,"x_max":610,"o":"m 364 928 l 567 928 l 567 135 l 610 135 l 610 0 l 417 0 q 409 41 414 21 q 401 82 404 61 q 320 13 371 36 q 203 -10 269 -10 q 113 14 147 -10 q 58 77 78 38 q 31 170 38 117 q 24 285 24 224 l 24 360 q 31 488 24 431 q 58 584 38 544 q 119 645 79 624 q 224 667 158 667 q 335 641 290 667 q 407 569 381 615 l 407 793 l 364 793 l 364 928 m 193 285 q 197 222 193 251 q 211 169 200 192 q 242 134 222 147 q 294 121 261 121 q 348 132 328 121 q 380 160 368 143 q 395 199 392 178 q 399 240 399 221 l 399 401 q 396 446 399 422 q 383 490 393 469 q 351 522 372 510 q 294 535 331 535 q 242 524 261 535 q 211 492 222 514 q 197 438 200 471 q 193 360 193 404 l 193 285 z "},"b":{"ha":631,"x_min":14,"x_max":600,"o":"m 14 928 l 57 928 l 217 928 l 217 569 q 289 641 244 615 q 400 667 333 667 q 505 645 465 667 q 565 584 544 624 q 593 488 586 544 q 600 360 600 431 l 600 285 q 593 170 600 224 q 567 77 586 117 q 513 14 547 38 q 422 -10 478 -10 q 305 13 356 -10 q 224 82 254 36 l 207 0 l 14 0 l 14 135 l 57 135 l 57 793 l 14 793 l 14 928 m 431 360 q 427 438 431 404 q 413 492 424 471 q 382 524 401 514 q 329 535 363 535 q 273 522 293 535 q 242 490 253 510 q 229 446 232 469 q 226 401 226 422 l 226 240 q 230 199 226 221 q 244 160 233 178 q 276 132 256 143 q 329 121 296 121 q 382 134 363 121 q 413 169 401 147 q 427 222 424 192 q 431 285 431 251 l 431 360 z "},"q":{"ha":625,"x_min":24,"x_max":610,"o":"m 567 -85 l 610 -85 l 610 -219 l 358 -219 l 358 -85 l 401 -85 l 401 82 q 348 28 381 50 q 274 -3 315 6 q 235 -8 254 -6 q 196 -8 215 -10 q 108 15 142 -8 q 56 79 75 39 q 31 172 38 119 q 24 285 24 225 l 24 360 q 30 487 24 431 q 56 583 36 543 q 115 644 76 622 q 217 665 153 665 q 256 665 238 667 q 292 658 274 663 q 360 625 332 649 q 407 569 389 601 q 413 603 410 586 q 418 638 415 621 l 610 638 l 610 503 l 567 503 l 567 -85 m 193 285 q 197 222 193 251 q 211 169 200 192 q 242 134 222 147 q 294 121 261 121 q 359 140 338 121 q 390 185 381 158 q 399 240 399 211 q 399 289 399 268 l 399 401 q 396 446 399 422 q 383 490 393 469 q 351 522 372 510 q 294 535 331 535 q 242 524 261 535 q 211 492 222 514 q 197 438 200 471 q 193 360 193 404 l 193 285 z "},"p":{"ha":631,"x_min":14,"x_max":600,"o":"m 14 638 l 57 638 l 206 638 l 217 569 q 289 641 244 615 q 400 667 333 667 q 505 645 465 667 q 565 584 544 624 q 593 488 586 544 q 600 360 600 431 l 600 285 q 593 170 600 224 q 567 77 586 117 q 513 14 547 38 q 422 -10 478 -10 q 305 13 356 -10 q 224 82 254 36 l 224 -85 l 267 -85 l 267 -219 l 14 -219 l 14 -85 l 57 -85 l 57 503 l 14 503 l 14 638 m 431 360 q 427 438 431 404 q 413 492 424 471 q 382 524 401 514 q 329 535 363 535 q 273 522 293 535 q 242 490 253 510 q 229 446 232 469 q 226 401 226 422 l 226 240 q 230 199 226 221 q 244 160 233 178 q 276 132 256 143 q 329 121 296 121 q 382 134 363 121 q 413 169 401 147 q 427 222 424 192 q 431 285 431 251 l 431 360 z "},"h":{"ha":657,"x_min":14,"x_max":643,"o":"m 388 135 l 431 135 l 431 401 q 410 504 431 474 q 326 535 390 535 q 276 524 296 535 q 246 497 257 514 q 231 459 235 481 q 226 415 226 438 l 226 135 l 269 135 l 269 0 l 14 0 l 14 135 l 57 135 l 57 793 l 14 793 l 14 928 l 57 928 l 219 928 l 219 560 q 419 667 282 667 q 519 649 483 667 q 574 596 556 631 q 596 513 592 561 q 600 401 600 464 l 600 135 l 643 135 l 643 0 l 388 0 l 388 135 z "},"K":{"ha":590,"x_min":14,"x_max":606,"o":"m 226 469 q 256 483 240 476 q 281 507 272 490 q 296 540 285 514 q 321 603 307 567 q 351 679 335 639 q 380 753 367 719 q 401 810 393 788 q 411 836 410 833 l 604 836 l 604 701 l 532 701 q 513 646 524 675 q 493 591 503 617 q 475 546 483 565 q 463 518 467 526 q 416 455 439 478 q 383 429 393 432 l 436 376 l 531 135 l 606 135 l 606 0 l 413 0 l 243 389 q 234 390 239 390 q 226 390 229 390 l 226 135 l 269 135 l 269 0 l 14 0 l 14 135 l 57 135 l 57 701 l 14 701 l 14 836 l 57 836 l 269 836 l 269 701 l 226 701 l 226 469 z "},"Q":{"ha":613,"x_min":24,"x_max":581,"o":"m 403 7 q 297 -11 361 -11 q 156 19 210 -11 q 73 103 103 49 q 33 238 43 158 q 24 418 24 318 q 34 603 24 522 q 75 741 44 685 q 158 826 106 797 q 297 856 211 856 q 438 826 382 856 q 524 741 493 797 q 568 603 556 685 q 581 418 581 522 q 566 222 581 307 q 511 81 551 138 l 568 31 l 474 -49 l 447 -49 l 403 7 m 413 418 q 410 551 413 492 q 396 653 407 611 q 363 719 385 696 q 304 742 342 742 q 244 719 267 742 q 208 653 221 696 q 192 551 196 611 q 188 418 188 492 q 191 291 188 349 q 206 192 194 233 q 240 126 217 150 q 303 103 263 103 q 326 111 318 103 l 275 178 l 342 236 l 396 186 q 410 288 407 229 q 413 418 413 347 z "},"X":{"ha":556,"x_min":-1,"x_max":556,"o":"m 311 836 l 556 836 l 556 701 l 493 701 l 431 519 l 356 438 l 415 372 l 499 135 l 556 135 l 556 0 l 315 0 l 315 135 l 335 135 l 265 378 l 200 135 l 214 135 l 214 0 l -1 0 l -1 135 l 53 135 l 129 372 l 183 438 l 114 519 l 57 701 l 0 701 l 0 836 l 224 836 l 224 701 l 208 701 l 265 478 l 325 701 l 311 701 l 311 836 z "},"ˆ":{"ha":474,"x_min":38,"x_max":428,"o":"m 38 742 l 168 939 l 300 939 l 428 742 l 307 742 l 235 847 l 157 742 l 38 742 z "},"´":{"ha":446,"x_min":40,"x_max":396,"o":"m 40 782 l 367 914 l 396 896 l 368 761 l 64 719 l 40 782 z "},"~":{"ha":563,"x_min":38,"x_max":517,"o":"m 306 390 q 353 361 335 369 q 386 355 372 353 q 411 370 400 357 q 435 408 422 383 l 517 358 q 402 238 471 263 q 254 271 333 213 q 205 301 225 292 q 169 308 185 311 q 142 290 154 306 q 117 249 129 275 l 38 303 q 90 378 60 349 q 154 419 119 407 q 227 425 189 432 q 306 390 265 418 z "},"·":{"ha":294,"x_min":46,"x_max":242,"o":"m 242 326 q 213 257 242 286 q 144 228 185 228 q 74 257 103 228 q 46 326 46 286 q 74 395 46 367 q 144 424 103 424 q 213 395 185 424 q 242 326 242 367 z "},"þ":{"ha":625,"x_min":-6,"x_max":581,"o":"m -6 928 l 38 928 l 199 928 l 199 569 q 270 641 225 615 q 382 667 315 667 q 486 645 447 667 q 546 584 525 624 q 574 488 567 544 q 581 360 581 431 l 581 285 q 574 170 581 224 q 547 77 567 117 q 493 14 528 38 q 403 -10 458 -10 q 285 13 336 -10 q 204 82 235 36 l 204 -85 l 247 -85 l 247 -219 l -6 -219 l -6 -85 l 38 -85 l 38 793 l -6 793 l -6 928 m 413 360 q 394 492 413 449 q 310 535 376 535 q 253 522 274 535 q 223 490 233 510 q 210 446 213 469 q 207 401 207 422 l 207 240 q 210 199 207 221 q 225 160 214 178 q 256 132 236 143 q 310 121 276 121 q 363 134 343 121 q 394 169 383 147 q 409 222 406 192 q 413 285 413 251 l 413 360 z "},"˝":{"ha":588,"x_min":38,"x_max":542,"o":"m 38 796 l 321 1007 l 353 997 l 361 860 l 79 742 l 38 796 m 219 796 l 501 1007 l 535 997 l 542 861 l 260 743 l 219 796 z "},"/":{"ha":531,"x_min":38,"x_max":485,"o":"m 38 -56 l 315 872 l 485 872 l 207 -56 l 38 -56 z "},"!":{"ha":294,"x_min":46,"x_max":242,"o":"m 85 261 l 60 729 l 60 836 l 228 836 l 228 724 l 203 261 l 85 261 m 242 99 q 213 29 242 58 q 144 0 185 0 q 74 29 103 0 q 46 99 46 58 q 74 167 46 139 q 144 196 103 196 q 213 167 185 196 q 242 99 242 139 z "},",":{"ha":294,"x_min":46,"x_max":242,"o":"m 93 15 q 58 49 71 26 q 46 99 46 71 q 74 167 46 138 q 144 196 103 196 q 199 179 175 196 q 235 136 224 163 q 242 97 242 115 q 236 66 242 82 q 224 40 231 50 l 146 -69 l 72 -69 l 93 15 z "},"⁄":{"ha":531,"x_min":38,"x_max":485,"o":"m 38 -56 l 315 872 l 485 872 l 207 -56 l 38 -56 z "},":":{"ha":294,"x_min":46,"x_max":242,"o":"m 242 99 q 213 29 242 58 q 144 0 185 0 q 74 29 103 0 q 46 99 46 58 q 74 167 46 139 q 144 196 103 196 q 213 167 185 196 q 242 99 242 139 m 242 539 q 213 470 242 499 q 144 442 185 442 q 74 470 103 442 q 46 539 46 499 q 74 608 46 579 q 144 638 103 638 q 213 608 185 638 q 242 539 242 579 z "},";":{"ha":294,"x_min":46,"x_max":242,"o":"m 93 15 q 58 49 71 26 q 46 99 46 71 q 74 167 46 138 q 144 196 103 196 q 199 179 175 196 q 235 136 224 163 q 242 97 242 115 q 236 66 242 82 q 224 40 231 50 l 146 -69 l 72 -69 l 93 15 m 242 539 q 213 470 242 499 q 144 442 185 442 q 74 470 103 442 q 46 539 46 499 q 74 608 46 579 q 144 638 103 638 q 213 608 185 638 q 242 539 242 579 z "},"<":{"ha":336,"x_min":38,"x_max":290,"o":"m 290 49 l 38 235 l 38 339 l 290 522 l 290 414 l 156 288 l 290 156 l 290 49 z "},"@":{"ha":1013,"x_min":38,"x_max":968,"o":"m 968 363 q 947 181 968 253 q 893 66 926 108 q 818 6 860 24 q 736 -11 776 -11 q 652 17 683 -11 q 606 82 621 44 q 524 13 575 36 q 407 -10 474 -10 q 317 14 351 -10 q 262 77 282 38 q 235 170 242 117 q 228 285 228 224 l 228 360 q 235 488 228 431 q 263 584 242 544 q 323 645 283 624 q 428 667 363 667 q 540 641 494 667 q 611 569 585 615 q 617 603 614 586 q 622 638 619 621 l 771 638 l 771 169 q 785 116 771 117 q 815 147 799 115 q 833 189 825 164 q 846 243 840 214 q 855 303 851 272 q 858 363 858 333 q 769 674 858 579 q 507 769 679 769 q 356 744 424 769 q 240 666 288 719 q 166 528 192 613 q 140 325 140 443 q 238 -12 140 97 q 506 -122 335 -122 q 703 -72 621 -122 l 794 -122 q 668 -187 740 -164 q 500 -210 596 -210 q 284 -169 372 -210 q 141 -56 196 -128 q 62 115 86 17 q 38 325 38 213 q 63 540 38 442 q 142 708 88 638 q 285 817 197 778 q 500 856 374 856 q 714 821 625 856 q 859 722 803 786 q 942 567 915 658 q 968 363 968 475 m 397 285 q 401 222 397 251 q 415 169 404 192 q 446 134 426 147 q 499 121 465 121 q 563 140 542 121 q 594 185 585 158 q 603 240 603 211 q 603 289 603 268 l 603 401 q 600 446 603 422 q 587 490 597 469 q 556 522 576 510 q 499 535 535 535 q 446 524 465 535 q 415 492 426 514 q 401 438 404 471 q 397 360 397 404 l 397 285 z "},"(":{"ha":361,"x_min":38,"x_max":317,"o":"m 236 -192 q 156 -115 192 -165 q 93 5 119 -64 q 52 158 67 74 q 38 335 38 242 q 95 672 38 532 q 247 878 153 813 l 317 832 q 285 785 304 818 q 247 694 265 753 q 215 547 228 635 q 201 335 201 460 q 214 146 201 229 q 244 2 226 63 q 280 -96 263 -58 q 308 -147 297 -133 l 236 -192 z "},")":{"ha":361,"x_min":38,"x_max":317,"o":"m 46 -147 q 74 -96 56 -133 q 110 2 93 -58 q 141 146 128 63 q 154 335 154 229 q 140 547 154 460 q 108 694 126 635 q 69 785 89 753 q 38 832 50 818 l 107 878 q 259 672 201 813 q 317 335 317 532 q 302 158 317 242 q 262 5 288 74 q 199 -115 236 -64 q 118 -192 163 -165 l 46 -147 z "},"−":{"ha":510,"x_min":38,"x_max":464,"o":"m 464 363 l 38 363 l 38 481 l 464 481 l 464 363 z "},"=":{"ha":510,"x_min":38,"x_max":464,"o":"m 464 447 l 38 447 l 38 565 l 464 565 l 464 447 m 464 258 l 38 258 l 38 376 l 464 376 l 464 258 z "},"+":{"ha":510,"x_min":38,"x_max":464,"o":"m 464 363 l 308 363 l 308 214 l 192 214 l 192 363 l 38 363 l 38 481 l 192 481 l 192 640 l 308 640 l 308 481 l 464 481 l 464 363 z "},"×":{"ha":510,"x_min":57,"x_max":446,"o":"m 446 533 l 336 422 l 443 317 l 358 235 l 253 340 l 144 231 l 61 314 l 169 422 l 57 536 l 142 618 l 253 506 l 363 615 l 446 533 z "},"*":{"ha":510,"x_min":36,"x_max":468,"o":"m 468 479 l 328 422 l 464 369 l 406 269 l 288 361 l 308 214 l 192 214 l 215 358 l 99 265 l 39 368 l 181 424 l 36 483 l 94 583 l 215 488 l 192 640 l 308 640 l 288 485 l 410 581 l 468 479 z "},"\"":{"ha":436,"x_min":38,"x_max":390,"o":"m 63 542 l 38 731 l 38 836 l 194 836 l 194 724 l 169 542 l 63 542 m 258 542 l 233 731 l 233 836 l 390 836 l 390 724 l 365 542 l 258 542 z "},"'":{"ha":294,"x_min":60,"x_max":228,"o":"m 85 542 l 60 731 l 60 836 l 228 836 l 228 724 l 203 542 l 85 542 z "},"”":{"ha":504,"x_min":39,"x_max":458,"o":"m 86 675 q 39 757 42 701 q 42 783 39 771 q 51 807 46 796 q 86 843 64 829 q 138 857 108 857 q 206 828 178 857 q 235 758 235 799 q 230 728 235 743 q 218 703 225 714 l 139 590 l 65 590 l 86 675 m 310 675 q 263 757 265 701 q 266 783 263 771 q 275 807 269 796 q 310 843 288 829 q 361 857 332 857 q 430 828 401 857 q 458 758 458 799 q 453 728 458 743 q 442 703 449 714 l 363 590 l 289 590 l 310 675 z "},"“":{"ha":504,"x_min":49,"x_max":447,"o":"m 400 772 q 434 738 421 760 q 447 689 447 715 q 419 619 447 649 q 349 590 390 590 q 299 604 322 590 q 264 642 276 618 q 251 690 251 663 q 256 719 251 704 q 269 747 260 735 l 347 857 l 419 857 l 400 772 m 199 772 q 232 738 219 760 q 244 690 244 717 q 242 665 246 676 q 233 642 239 653 q 198 604 221 618 q 147 590 175 590 q 78 619 107 590 q 49 689 49 649 q 68 747 49 719 l 146 857 l 218 857 l 199 772 z "},"‘":{"ha":281,"x_min":38,"x_max":235,"o":"m 188 772 q 221 738 208 760 q 233 690 233 717 q 231 665 235 676 q 222 642 228 653 q 187 604 210 618 q 136 590 164 590 q 67 619 96 590 q 38 689 38 649 q 57 747 38 719 l 135 857 l 207 857 l 188 772 z "},"’":{"ha":281,"x_min":39,"x_max":235,"o":"m 86 675 q 39 757 42 701 q 42 783 39 771 q 51 807 46 796 q 86 843 64 829 q 138 857 108 857 q 206 828 178 857 q 235 758 235 799 q 230 728 235 743 q 218 703 225 714 l 139 590 l 65 590 l 86 675 z "},"‚":{"ha":281,"x_min":39,"x_max":235,"o":"m 86 8 q 51 43 64 21 q 39 92 39 65 q 67 161 39 132 q 138 190 96 190 q 192 174 168 190 q 228 129 217 157 q 235 92 235 111 q 229 60 235 76 q 217 35 224 44 l 139 -76 l 65 -76 l 86 8 z "},"„":{"ha":504,"x_min":39,"x_max":458,"o":"m 86 8 q 51 43 64 21 q 39 92 39 65 q 67 161 39 132 q 138 190 96 190 q 192 174 168 190 q 228 129 217 157 q 235 92 235 111 q 229 60 235 76 q 217 35 224 44 l 139 -76 l 65 -76 l 86 8 m 310 8 q 275 43 288 21 q 263 92 263 65 q 291 161 263 132 q 361 190 319 190 q 416 174 392 190 q 451 129 440 157 q 458 92 458 111 q 453 60 458 76 q 440 35 447 43 l 363 -76 l 289 -76 l 310 8 z "},"…":{"ha":760,"x_min":38,"x_max":715,"o":"m 235 99 q 206 29 235 58 q 136 0 176 0 q 67 29 96 0 q 38 99 38 58 q 67 167 38 139 q 136 196 96 196 q 206 167 176 196 q 235 99 235 139 m 475 99 q 446 29 475 58 q 376 0 417 0 q 308 29 336 0 q 279 99 279 58 q 308 167 279 139 q 376 196 336 196 q 446 167 417 196 q 475 99 475 139 m 715 99 q 686 29 715 58 q 617 0 657 0 q 548 29 576 0 q 519 99 519 58 q 548 167 519 139 q 617 196 576 196 q 686 167 657 196 q 715 99 715 139 z "},"§":{"ha":599,"x_min":35,"x_max":554,"o":"m 50 457 q 54 519 47 489 q 79 574 61 549 q 50 650 51 603 q 61 731 47 693 q 106 796 75 768 q 187 840 138 824 q 304 857 236 857 q 481 802 418 857 q 542 654 543 747 l 400 633 l 376 647 q 368 703 379 679 q 333 738 357 726 q 294 747 315 747 q 256 738 274 747 q 227 713 239 729 q 215 672 215 696 q 232 621 215 640 q 274 588 249 601 q 333 565 300 575 q 400 544 367 556 q 457 523 429 535 q 506 492 485 511 q 541 447 528 474 q 554 382 554 419 q 522 279 554 326 q 545 239 536 261 q 554 189 554 217 q 540 117 554 153 q 495 53 526 82 q 414 8 464 25 q 292 -10 364 -10 q 181 7 229 -10 q 99 55 132 24 q 50 131 65 86 q 40 231 35 175 l 196 231 l 210 215 q 221 131 206 165 q 292 97 236 97 q 364 119 344 97 q 383 176 383 140 q 354 240 383 217 q 282 279 325 264 l 225 300 q 163 324 193 311 q 108 354 132 336 q 67 397 83 372 q 50 457 51 421 m 215 479 q 235 424 215 444 q 286 390 256 404 q 333 373 308 381 q 381 354 357 365 q 383 362 382 358 q 383 369 383 365 q 364 421 383 401 q 317 456 344 440 q 269 476 294 467 q 219 496 244 485 q 215 479 215 489 z "},"{":{"ha":375,"x_min":38,"x_max":331,"o":"m 275 -192 q 211 -167 240 -182 q 160 -130 182 -153 q 122 -74 138 -107 q 101 6 107 -40 q 97 41 99 22 q 96 81 96 60 q 99 142 96 106 q 98 213 101 178 q 81 277 94 249 q 38 315 68 306 l 38 353 q 85 410 71 375 q 102 484 99 444 q 103 562 106 524 q 100 628 100 600 q 150 805 100 749 q 286 878 200 861 l 331 832 q 311 809 322 824 q 290 770 300 794 q 272 709 279 746 q 264 617 264 672 q 269 551 264 588 q 275 476 274 514 q 270 405 276 439 q 240 347 264 371 l 189 335 l 240 324 q 270 269 264 300 q 274 207 276 239 q 267 144 272 175 q 261 86 261 113 q 269 -17 263 24 q 285 -85 276 -58 q 305 -125 294 -111 q 322 -147 315 -139 l 275 -192 z "},"}":{"ha":375,"x_min":38,"x_max":331,"o":"m 46 -147 q 63 -125 53 -139 q 83 -85 74 -111 q 99 -17 92 -58 q 107 86 106 24 q 101 144 107 113 q 94 207 96 175 q 98 269 92 239 q 128 324 104 300 l 179 335 l 128 347 q 98 405 104 371 q 93 476 92 439 q 99 551 94 514 q 104 617 104 588 q 97 709 104 672 q 78 770 89 746 q 57 809 68 794 q 38 832 46 824 l 82 878 q 218 805 168 861 q 268 628 268 749 q 265 562 268 600 q 266 484 263 524 q 283 410 269 444 q 331 353 297 375 l 331 315 q 287 277 300 306 q 270 213 274 249 q 269 142 267 178 q 272 81 272 106 q 268 6 272 39 q 246 -74 261 -40 q 208 -130 231 -107 q 157 -167 186 -153 q 93 -192 128 -182 l 46 -147 z "},"|":{"ha":265,"x_min":44,"x_max":214,"o":"m 44 -167 l 44 900 l 214 900 l 214 -167 l 44 -167 z "},"‡":{"ha":510,"x_min":38,"x_max":464,"o":"m 167 -167 l 167 -22 l 38 -22 l 38 96 l 167 96 l 167 649 l 38 649 l 38 767 l 167 767 l 167 900 l 336 900 l 336 767 l 464 767 l 464 649 l 336 649 l 336 96 l 464 96 l 464 -22 l 336 -22 l 336 -167 l 167 -167 z "},"†":{"ha":510,"x_min":38,"x_max":464,"o":"m 167 -167 l 167 649 l 38 649 l 38 767 l 167 767 l 167 900 l 336 900 l 336 767 l 464 767 l 464 649 l 336 649 l 336 -167 l 167 -167 z "},"%":{"ha":692,"x_min":38,"x_max":646,"o":"m 38 0 l 474 857 l 643 857 l 207 0 l 38 0 m 185 857 q 242 846 215 857 q 290 815 269 835 q 322 769 310 796 q 333 711 333 742 q 322 653 333 681 q 291 606 311 626 q 244 574 271 586 q 188 563 218 563 q 131 574 158 563 q 83 605 104 585 q 50 651 63 625 q 38 708 38 678 q 49 766 38 739 q 81 813 61 793 q 128 845 101 833 q 185 857 154 857 m 186 642 q 234 662 214 642 q 254 710 254 682 q 234 758 254 739 q 186 778 214 778 q 138 758 158 778 q 117 710 117 739 q 138 662 117 682 q 186 642 158 642 m 496 294 q 553 283 526 294 q 601 252 581 272 q 634 205 622 232 q 646 147 646 178 q 635 90 646 117 q 603 44 624 64 q 556 12 583 24 q 499 0 529 0 q 442 11 469 0 q 394 42 415 22 q 362 88 374 61 q 350 144 350 114 q 361 202 350 175 q 392 250 372 229 q 439 283 413 271 q 496 294 465 294 m 497 79 q 546 99 525 79 q 567 146 567 118 q 546 195 567 175 q 497 215 525 215 q 449 195 469 215 q 429 146 429 175 q 449 99 429 118 q 497 79 469 79 z "},"$":{"ha":604,"x_min":28,"x_max":558,"o":"m 208 636 q 234 564 208 594 q 299 507 260 533 q 383 454 338 481 q 468 394 429 428 q 533 318 507 361 q 558 214 558 275 q 549 149 558 182 q 520 85 540 115 q 466 33 500 56 q 382 -1 432 10 l 382 -125 l 214 -125 l 214 0 q 73 103 118 25 q 42 299 28 181 l 199 299 l 213 283 q 212 223 210 256 q 223 163 214 190 q 249 116 232 135 q 296 97 267 97 q 369 129 349 97 q 389 201 389 161 q 363 273 389 243 q 299 329 338 303 q 215 381 260 356 q 131 439 169 406 q 66 517 92 472 q 40 626 40 563 q 82 766 40 706 q 214 846 124 826 l 214 942 l 382 942 l 382 846 q 471 805 436 833 q 525 738 506 776 q 550 655 544 700 q 551 564 556 610 l 411 543 l 389 557 q 377 695 400 644 q 300 746 354 746 q 231 716 253 746 q 208 636 208 686 z "},"€":{"ha":663,"x_min":10,"x_max":622,"o":"m 360 258 l 242 258 q 266 142 244 183 q 340 100 288 100 q 392 117 371 100 q 425 160 413 133 q 442 224 438 188 q 447 297 447 260 l 463 311 l 615 293 q 605 172 619 228 q 556 75 590 115 q 469 12 522 35 q 343 -11 415 -11 q 223 10 272 -11 q 141 67 174 31 q 92 152 108 103 q 72 258 76 201 l 10 258 l 10 376 l 71 376 l 71 447 l 10 447 l 10 565 l 71 565 q 86 678 71 625 q 134 772 101 732 q 218 834 167 811 q 343 857 269 857 q 472 833 418 857 q 561 767 526 810 q 609 663 596 724 q 615 528 622 601 l 464 528 l 449 540 q 444 624 449 586 q 429 690 440 663 q 399 733 418 718 q 349 749 379 749 q 268 701 292 749 q 240 565 244 653 l 360 565 l 360 447 l 240 447 l 240 376 l 360 376 l 360 258 z "},"ƒ":{"ha":338,"x_min":-8,"x_max":319,"o":"m 240 0 q 177 -208 240 -154 q -8 -232 114 -262 l -8 -114 q 32 -109 17 -114 q 56 -89 47 -104 q 68 -47 65 -74 q 71 24 71 -19 l 71 531 l 10 531 l 10 638 l 71 638 l 71 697 q 133 913 71 857 q 319 939 196 969 l 319 819 q 281 816 296 821 q 256 798 265 811 q 244 761 247 785 q 240 700 240 738 l 240 638 l 319 638 l 319 531 l 240 531 l 240 0 l 240 0 z "},"‰":{"ha":908,"x_min":38,"x_max":864,"o":"m 38 0 l 474 857 l 643 857 l 207 0 l 38 0 m 714 294 q 772 283 744 294 q 820 252 800 272 q 852 205 840 232 q 864 147 864 178 q 853 90 864 117 q 822 44 842 64 q 774 12 801 24 q 717 0 747 0 q 606 49 650 0 q 559 13 586 25 q 499 0 532 0 q 442 11 468 0 q 395 42 415 22 q 363 88 375 61 q 350 144 350 114 q 361 202 350 175 q 392 250 372 229 q 439 283 413 271 q 496 294 465 294 q 558 281 529 294 q 606 244 586 267 q 654 281 626 267 q 714 294 682 294 m 185 857 q 242 846 215 857 q 290 815 269 835 q 322 769 310 796 q 333 711 333 742 q 322 653 333 681 q 291 606 311 626 q 244 574 271 586 q 188 563 218 563 q 130 574 157 563 q 83 604 103 585 q 50 651 63 624 q 38 708 38 678 q 49 766 38 739 q 81 813 61 793 q 128 845 101 833 q 185 857 154 857 m 497 79 q 546 99 525 79 q 567 146 567 118 q 546 195 567 175 q 497 215 525 215 q 449 195 469 215 q 429 146 429 175 q 449 99 429 118 q 497 79 469 79 m 715 79 q 764 99 743 79 q 785 146 785 118 q 764 195 785 175 q 715 215 743 215 q 667 195 688 215 q 647 146 647 175 q 667 99 647 118 q 715 79 688 79 m 186 642 q 234 662 214 642 q 254 710 254 682 q 234 758 254 739 q 186 778 214 778 q 138 758 158 778 q 117 710 117 739 q 138 662 117 682 q 186 642 158 642 z "},"#":{"ha":565,"x_min":38,"x_max":521,"o":"m 479 693 l 469 638 l 521 638 l 507 519 l 453 519 l 421 317 l 472 317 l 458 200 l 403 200 l 396 143 l 278 143 l 286 200 l 208 200 l 201 143 l 83 143 l 92 200 l 38 200 l 51 317 l 110 317 l 140 519 l 86 519 l 100 638 l 158 638 l 167 693 l 285 693 l 275 638 l 353 638 l 361 693 l 479 693 m 226 317 l 304 317 l 335 519 l 258 519 l 226 317 z "},"&":{"ha":719,"x_min":24,"x_max":710,"o":"m 494 96 q 385 14 443 39 q 274 -11 328 -11 q 174 10 219 -11 q 99 65 128 31 q 42 165 60 110 q 32 273 24 219 q 76 374 40 326 q 181 453 111 421 q 93 534 118 481 q 67 644 68 588 q 71 693 67 668 q 94 753 78 724 q 139 806 111 783 q 206 842 167 828 q 297 856 244 856 q 395 840 356 856 q 460 798 435 824 q 497 739 485 772 q 513 672 510 706 q 515 644 514 657 q 513 617 515 631 q 470 487 507 543 q 368 393 433 431 l 475 294 l 524 371 l 486 371 l 486 456 l 710 456 l 710 321 l 665 321 l 581 203 l 636 135 l 710 135 l 710 0 l 575 0 l 494 96 m 278 344 q 222 316 242 336 q 197 272 203 296 q 197 222 190 247 q 219 176 203 196 q 257 152 233 160 q 306 147 281 144 q 356 163 332 150 q 397 203 381 176 l 278 344 m 229 646 q 240 572 228 606 q 279 513 251 539 q 340 574 321 533 q 360 663 360 614 q 297 735 360 735 q 248 710 265 735 q 229 646 231 685 z "},"?":{"ha":575,"x_min":36,"x_max":531,"o":"m 179 261 q 192 340 179 307 q 226 400 206 374 q 270 448 247 426 q 314 494 293 469 q 348 548 335 518 q 361 618 361 578 q 347 713 361 681 q 292 746 333 746 q 247 733 264 746 q 221 696 231 719 q 208 640 211 672 q 204 571 204 608 l 182 550 l 42 550 q 44 662 36 607 q 79 760 51 717 q 158 829 107 803 q 290 856 210 856 q 403 835 357 856 q 478 781 450 815 q 518 703 506 747 q 531 610 531 658 q 514 509 531 550 q 472 440 497 468 q 419 391 447 411 q 365 352 390 371 q 324 313 340 333 q 307 261 307 292 l 179 261 m 343 99 q 315 29 343 58 q 246 0 286 0 q 176 29 206 0 q 147 99 147 58 q 176 167 147 139 q 246 196 206 196 q 315 167 286 196 q 343 99 343 139 z "},"–":{"ha":649,"x_min":38,"x_max":603,"o":"m 603 256 l 38 256 l 38 374 l 603 374 l 603 256 z "},"—":{"ha":788,"x_min":38,"x_max":742,"o":"m 742 256 l 38 256 l 38 374 l 742 374 l 742 256 z "},"±":{"ha":510,"x_min":38,"x_max":464,"o":"m 464 363 l 308 363 l 308 214 l 192 214 l 192 363 l 38 363 l 38 481 l 192 481 l 192 640 l 308 640 l 308 481 l 464 481 l 464 363 m 464 35 l 38 35 l 38 153 l 464 153 l 464 35 z "},"¶":{"ha":742,"x_min":38,"x_max":696,"o":"m 164 -167 l 164 650 q 74 687 111 650 q 38 776 38 724 q 74 866 38 829 q 164 903 111 903 l 696 903 l 696 785 l 597 785 l 597 -167 l 428 -167 l 428 785 l 333 785 l 333 -167 l 164 -167 z "},"[":{"ha":357,"x_min":38,"x_max":313,"o":"m 313 -192 l 38 -192 l 38 878 l 313 878 l 313 760 l 207 760 l 207 -74 l 313 -74 l 313 -192 z "},"]":{"ha":357,"x_min":38,"x_max":313,"o":"m 38 -74 l 143 -74 l 143 760 l 38 760 l 38 878 l 313 878 l 313 -192 l 38 -192 l 38 -74 z "},"\\":{"ha":531,"x_min":38,"x_max":485,"o":"m 315 -56 l 38 872 l 207 872 l 485 -56 l 315 -56 z "},"¢":{"ha":596,"x_min":38,"x_max":560,"o":"m 38 464 q 46 557 38 514 q 74 634 54 600 q 127 691 94 668 q 210 725 160 714 l 210 831 l 379 831 l 379 726 q 519 631 479 706 q 547 439 560 557 l 397 439 l 381 453 q 378 531 381 499 q 369 585 376 564 q 344 615 361 606 q 299 625 328 625 q 224 587 242 625 q 207 457 207 549 l 207 342 q 224 208 207 246 q 299 169 242 169 q 365 213 350 169 q 381 333 381 257 l 397 346 l 547 329 q 515 160 554 231 q 379 68 476 89 l 379 -42 l 210 -42 l 210 68 q 127 101 160 78 q 74 160 94 125 q 46 238 54 194 q 38 335 38 282 l 38 464 z "},"£":{"ha":668,"x_min":10,"x_max":622,"o":"m 28 135 l 71 135 l 71 311 l 10 311 l 10 429 l 71 429 l 71 551 q 85 669 71 614 q 130 767 99 725 q 213 833 161 808 q 343 857 265 857 q 472 833 418 857 q 561 767 526 810 q 609 663 596 724 q 615 528 622 601 l 464 528 l 449 540 q 444 624 449 586 q 429 690 440 663 q 399 733 418 718 q 349 749 379 749 q 266 694 292 749 q 240 544 240 640 l 240 429 l 379 429 l 379 311 l 240 311 l 240 135 l 485 135 l 485 178 l 619 178 l 619 0 l 28 0 l 28 135 z "},">":{"ha":336,"x_min":38,"x_max":290,"o":"m 38 156 l 172 288 l 38 414 l 38 522 l 290 339 l 290 235 l 38 49 l 38 156 z "},"‹":{"ha":336,"x_min":38,"x_max":290,"o":"m 290 49 l 38 235 l 38 339 l 290 522 l 290 414 l 156 288 l 290 156 l 290 49 z "},"›":{"ha":336,"x_min":38,"x_max":290,"o":"m 38 156 l 172 288 l 38 414 l 38 522 l 290 339 l 290 235 l 38 49 l 38 156 z "},"«":{"ha":563,"x_min":38,"x_max":517,"o":"m 290 49 l 38 235 l 38 339 l 290 522 l 290 414 l 156 288 l 290 156 l 290 49 m 517 49 l 264 235 l 264 339 l 517 522 l 517 414 l 382 288 l 517 156 l 517 49 z "},"»":{"ha":563,"x_min":38,"x_max":517,"o":"m 38 156 l 172 288 l 38 414 l 38 522 l 290 339 l 290 235 l 38 49 l 38 156 m 264 156 l 399 288 l 264 414 l 264 522 l 517 339 l 517 235 l 264 49 l 264 156 z "},"_":{"ha":510,"x_min":38,"x_max":464,"o":"m 464 -149 l 38 -149 l 38 -31 l 464 -31 l 464 -149 z "},"^":{"ha":474,"x_min":38,"x_max":428,"o":"m 38 603 l 168 800 l 300 800 l 428 603 l 307 603 l 235 708 l 157 603 l 38 603 z "},"÷":{"ha":510,"x_min":47,"x_max":474,"o":"m 358 99 q 330 29 358 58 q 261 0 301 0 q 191 29 219 0 q 163 99 163 58 q 191 167 163 139 q 261 196 219 196 q 330 167 301 196 q 358 99 358 139 m 358 539 q 330 470 358 499 q 261 442 301 442 q 191 470 219 442 q 163 539 163 499 q 191 608 163 579 q 261 638 219 638 q 330 608 301 638 q 358 539 358 579 m 474 265 l 47 265 l 47 383 l 474 383 l 474 265 z "},"²":{"ha":579,"x_min":38,"x_max":535,"o":"m 39 278 q 63 399 39 350 q 123 485 86 449 q 202 552 160 522 q 281 614 244 582 q 341 685 317 646 q 365 783 365 725 q 349 858 365 832 q 296 885 332 885 q 253 874 271 885 q 226 838 236 864 q 211 768 215 811 q 208 660 207 725 l 186 639 l 46 639 q 47 790 38 724 q 85 901 56 856 q 165 971 114 947 q 294 994 217 994 q 474 933 413 994 q 535 763 535 871 q 515 667 535 708 q 463 592 494 625 q 393 534 432 560 q 317 486 354 508 q 247 444 279 464 q 196 401 214 424 l 535 401 l 535 278 l 39 278 z "},"³":{"ha":606,"x_min":28,"x_max":560,"o":"m 231 689 l 296 689 q 389 794 389 689 q 366 857 389 829 q 294 885 343 885 q 219 853 242 885 q 207 738 196 822 l 183 724 l 40 744 q 49 842 36 796 q 92 922 61 888 q 174 975 124 956 q 294 994 224 994 q 414 977 364 994 q 495 931 464 960 q 541 863 526 901 q 556 783 556 825 q 538 712 556 739 q 499 669 521 685 q 456 646 476 653 q 429 638 435 639 q 456 633 435 638 q 501 611 478 628 q 542 563 524 594 q 560 478 560 532 q 543 404 560 440 q 494 340 526 368 q 413 295 461 313 q 301 278 365 278 q 90 349 151 278 q 44 557 28 419 l 200 557 l 214 542 q 213 488 211 515 q 224 438 215 460 q 249 401 232 415 q 297 386 267 386 q 366 413 342 386 q 390 478 390 439 q 385 524 390 503 q 369 563 381 546 q 338 589 358 579 q 286 599 317 599 l 231 599 l 231 689 z "},"¹":{"ha":281,"x_min":17,"x_max":221,"o":"m 221 975 l 221 278 l 51 278 l 51 750 l 17 750 l 17 797 l 96 975 l 221 975 z "},"º":{"ha":626,"x_min":38,"x_max":581,"o":"m 308 994 q 439 972 386 994 q 523 908 492 950 q 567 808 554 867 q 581 676 581 749 l 581 597 q 567 465 581 524 q 523 365 554 407 q 439 301 492 324 q 308 279 386 279 q 179 301 231 279 q 96 365 128 324 q 51 465 64 407 q 38 597 38 524 l 38 676 q 51 808 38 749 q 96 908 64 867 q 179 972 128 950 q 308 994 231 994 m 413 668 q 389 834 413 783 q 308 885 365 885 q 231 834 254 885 q 207 668 207 783 l 207 606 q 231 440 207 490 q 308 389 254 389 q 389 440 365 389 q 413 606 413 490 l 413 668 z "},"¼":{"ha":1040,"x_min":40,"x_max":1007,"o":"m 40 274 l 83 274 l 83 750 l 49 750 l 49 797 l 128 975 l 253 975 l 253 274 l 296 274 l 296 139 l 40 139 l 40 274 m 747 -42 l 792 -42 l 792 8 l 507 8 l 507 110 l 825 697 l 871 697 l 960 697 l 960 121 l 1007 121 l 1007 8 l 960 8 l 960 -42 l 1007 -42 l 1007 -139 l 747 -139 l 747 -42 m 792 197 q 797 281 794 240 q 801 364 799 322 l 807 431 l 669 121 l 792 121 l 792 197 m 233 -56 l 511 872 l 681 872 l 403 -56 l 233 -56 z "},"½":{"ha":1133,"x_min":40,"x_max":1099,"o":"m 40 274 l 83 274 l 83 750 l 49 750 l 49 797 l 128 975 l 253 975 l 253 274 l 296 274 l 296 139 l 40 139 l 40 274 m 603 -139 q 627 22 603 -40 q 688 125 651 83 q 766 196 724 167 q 844 259 808 225 q 905 340 881 293 q 929 465 929 388 q 915 567 929 528 q 860 607 901 607 q 816 595 833 607 q 788 556 799 583 q 774 485 778 529 q 772 376 771 442 l 750 356 l 610 356 q 610 508 601 440 q 649 622 619 575 q 729 692 678 668 q 858 717 781 717 q 972 697 925 717 q 1046 642 1018 678 q 1086 556 1074 606 q 1099 444 1099 506 q 1079 323 1099 374 q 1028 234 1060 272 q 959 167 997 196 q 883 110 921 138 q 812 53 844 83 q 760 -15 779 24 l 964 -15 l 964 28 l 1099 28 l 1099 -139 l 603 -139 m 233 -56 l 511 872 l 681 872 l 403 -56 l 233 -56 z "},"¾":{"ha":1315,"x_min":46,"x_max":1282,"o":"m 1022 -42 l 1067 -42 l 1067 8 l 782 8 l 782 110 l 1100 697 l 1146 697 l 1235 697 l 1235 121 l 1282 121 l 1282 8 l 1235 8 l 1235 -42 l 1282 -42 l 1282 -139 l 1022 -139 l 1022 -42 m 1067 197 q 1072 281 1069 240 q 1076 364 1074 322 l 1082 431 l 944 121 l 1067 121 l 1067 197 m 508 -56 l 786 872 l 956 872 l 678 -56 l 508 -56 m 240 618 l 306 618 q 381 655 364 618 q 399 771 399 692 q 376 855 399 825 q 304 885 353 885 q 228 834 251 885 q 217 696 204 783 l 193 682 l 50 703 q 56 809 46 757 q 94 902 65 861 q 174 969 124 943 q 304 994 225 994 q 424 976 374 994 q 505 927 474 958 q 551 853 536 896 q 565 761 565 811 q 548 671 565 707 q 508 613 531 635 q 465 579 486 590 q 439 567 444 568 q 465 557 444 565 q 509 526 486 549 q 551 462 532 503 q 569 357 569 421 q 557 279 569 319 q 515 205 544 239 q 436 149 486 171 q 311 128 386 128 q 188 150 240 128 q 103 213 136 172 q 58 310 71 253 q 54 438 46 368 l 210 438 l 224 422 q 223 362 221 394 q 233 301 225 329 q 260 255 242 274 q 307 236 278 236 q 379 269 358 236 q 400 344 400 303 q 401 399 400 371 q 393 451 401 428 q 363 490 385 475 q 296 506 342 506 l 240 506 l 240 618 z "},"¤":{"ha":510,"x_min":57,"x_max":446,"o":"m 256 571 q 308 561 285 571 l 363 615 l 446 533 l 393 479 q 402 453 399 467 q 406 425 406 440 q 392 367 406 394 l 443 317 l 358 235 l 307 286 q 284 279 296 282 q 258 276 272 276 q 203 288 229 276 l 144 231 l 61 314 l 119 371 q 113 396 115 383 q 110 422 110 408 q 113 449 110 436 q 119 474 115 461 l 57 536 l 142 618 l 199 558 q 256 571 225 571 m 257 333 q 322 360 294 333 q 349 424 349 386 q 322 489 349 463 q 257 515 294 515 q 193 489 219 515 q 167 424 167 463 q 193 360 167 386 q 257 333 219 333 z "},"ª":{"ha":626,"x_min":14,"x_max":600,"o":"m 557 471 l 600 471 l 600 336 l 407 336 q 399 377 404 357 q 392 418 394 397 q 310 349 361 372 q 193 326 260 326 q 103 350 138 326 q 48 413 68 374 q 21 506 28 453 q 14 621 14 560 l 14 696 q 21 824 14 767 q 49 920 28 881 q 109 981 69 960 q 214 1003 149 1003 q 326 977 281 1003 q 397 906 371 951 q 403 940 400 922 q 408 974 406 957 l 557 974 l 600 974 l 600 839 l 557 839 l 557 471 m 183 621 q 187 558 183 588 q 201 506 190 528 q 232 470 213 483 q 285 457 251 457 q 338 468 318 457 q 370 497 358 479 q 385 535 382 514 q 389 576 389 557 l 389 738 q 386 782 389 758 q 373 826 383 806 q 342 858 363 846 q 285 871 321 871 q 232 860 251 871 q 201 828 213 850 q 187 774 190 807 q 183 696 183 740 l 183 621 z "},"¥":{"ha":564,"x_min":-14,"x_max":571,"o":"m 492 313 l 369 313 q 369 309 369 310 q 368 306 368 308 l 368 267 l 492 267 l 492 174 l 368 174 l 368 135 l 411 135 l 411 0 l 157 0 l 157 135 l 200 135 l 200 174 l 65 174 l 65 267 l 200 267 l 200 313 l 65 313 l 65 406 l 161 406 l 147 439 l 29 701 l -14 701 l -14 836 l 215 836 l 215 701 l 201 701 l 236 610 l 281 439 l 324 610 l 358 701 l 343 701 l 343 836 l 571 836 l 571 701 l 529 701 l 421 443 l 407 406 l 492 406 l 492 313 z "},"¬":{"ha":510,"x_min":38,"x_max":464,"o":"m 464 208 l 347 208 l 347 363 l 38 363 l 38 481 l 464 481 l 464 208 z "},"•":{"ha":533,"x_min":101,"x_max":422,"o":"m 422 404 q 410 342 422 371 q 375 290 397 313 q 324 256 353 268 q 261 243 294 243 q 199 256 228 243 q 149 290 171 268 q 114 342 126 313 q 101 404 101 371 q 114 466 101 438 q 149 516 126 494 q 199 550 171 538 q 261 563 228 563 q 324 550 294 563 q 375 516 353 538 q 410 466 397 494 q 422 404 422 438 z "},"™":{"ha":1253,"x_min":-3,"x_max":1250,"o":"m 1207 413 l 1250 413 l 1250 278 l 1011 278 l 1011 413 l 1043 413 l 1051 521 q 1056 553 1054 538 q 1061 583 1058 568 l 906 278 l 829 278 l 682 592 l 690 413 l 736 413 l 736 278 l 504 278 l 504 413 l 547 413 l 547 836 l 707 836 l 857 551 l 868 504 l 899 571 q 903 581 901 576 q 907 590 904 585 l 1044 836 l 1250 836 l 1250 701 l 1207 701 l 1207 413 m 410 658 l 410 701 l 349 701 l 349 413 l 392 413 l 392 278 l 138 278 l 138 413 l 181 413 l 181 701 l 119 701 l 119 658 l -3 658 l -3 836 l 532 836 l 532 658 l 410 658 z "},"Œ":{"ha":907,"x_min":33,"x_max":918,"o":"m 778 658 l 778 701 l 625 701 l 625 479 l 803 479 l 803 360 l 625 360 l 625 135 l 783 135 l 783 178 l 918 178 l 918 0 l 413 0 l 413 135 l 456 135 l 456 701 l 413 701 l 413 836 l 456 836 l 913 836 l 913 658 l 778 658 m 307 856 q 447 826 392 856 q 534 741 503 797 q 578 603 565 685 q 590 418 590 522 q 578 239 590 318 q 535 104 567 160 q 449 19 504 49 q 307 -11 394 -11 q 166 19 219 -11 q 83 103 113 49 q 43 238 53 158 q 33 418 33 318 q 44 603 33 522 q 85 741 54 685 q 168 826 115 797 q 307 856 221 856 m 422 418 q 419 551 422 492 q 406 653 417 611 q 373 719 394 696 q 314 742 351 742 q 253 719 276 742 q 218 653 231 696 q 201 551 206 611 q 197 418 197 492 q 201 291 197 349 q 215 192 204 233 q 249 126 226 150 q 313 103 272 103 q 375 127 353 103 q 408 194 397 151 q 420 294 418 236 q 422 418 422 351 z "},"œ":{"ha":957,"x_min":33,"x_max":924,"o":"m 776 225 l 921 206 q 902 130 918 168 q 856 60 886 92 q 780 10 825 29 q 672 -10 735 -10 q 544 14 594 -10 q 465 76 494 38 q 423 165 435 115 q 411 265 411 214 l 411 394 q 423 492 411 444 q 464 578 435 540 q 544 640 493 617 q 672 664 594 664 q 791 642 743 664 q 869 583 839 621 q 911 495 899 546 q 924 386 924 444 l 924 307 l 911 294 l 581 294 l 581 274 q 598 140 581 181 q 672 100 615 100 q 732 130 717 100 q 753 217 747 160 l 776 225 m 672 556 q 598 515 615 556 q 581 388 581 475 l 581 382 l 754 382 l 754 385 l 754 428 q 738 524 754 493 q 672 556 721 556 m 306 667 q 435 647 383 667 q 519 590 488 626 q 565 503 551 554 q 579 392 579 453 l 579 265 q 565 153 579 204 q 519 67 551 103 q 435 10 488 31 q 306 -10 383 -10 q 176 10 228 -10 q 92 67 124 31 q 47 153 61 103 q 33 265 33 204 l 33 392 q 47 503 33 453 q 92 590 61 554 q 176 647 124 626 q 306 667 228 667 m 411 385 q 388 515 411 474 q 306 557 364 557 q 226 515 249 557 q 203 385 203 474 l 203 272 q 226 142 203 183 q 306 100 249 100 q 388 142 364 100 q 411 272 411 183 l 411 385 z "},"©":{"ha":967,"x_min":38,"x_max":921,"o":"m 38 533 q 63 675 38 610 q 144 787 89 740 q 283 860 199 833 q 488 888 368 888 q 688 863 606 888 q 822 790 769 838 q 897 678 874 743 q 921 533 921 613 l 921 122 q 897 -19 921 43 q 822 -124 874 -81 q 688 -192 771 -168 q 488 -219 606 -217 q 284 -199 369 -224 q 144 -129 199 -175 q 63 -19 89 -83 q 38 122 38 44 l 38 533 m 790 525 q 776 626 790 579 q 726 707 761 672 q 632 762 690 742 q 488 782 574 782 q 340 762 400 782 q 242 708 279 742 q 187 626 204 674 q 169 525 169 579 l 169 131 q 187 32 169 78 q 242 -47 204 -14 q 340 -99 279 -81 q 488 -114 400 -117 q 632 -94 574 -111 q 726 -45 690 -76 q 776 31 761 -14 q 790 131 790 75 l 790 525 m 226 394 q 238 504 226 454 q 280 590 250 554 q 360 644 310 625 q 488 664 410 664 q 692 586 633 664 q 736 369 750 508 l 586 369 l 569 383 q 567 462 569 429 q 558 515 565 494 q 533 546 550 536 q 488 556 517 556 q 413 517 431 556 q 396 388 396 479 l 396 272 q 413 138 396 176 q 488 100 431 100 q 554 144 539 100 q 569 264 569 188 l 586 276 l 736 260 q 728 153 740 203 q 688 68 717 104 q 609 11 658 32 q 488 -10 560 -10 q 360 10 410 -10 q 280 65 310 29 q 238 152 250 101 q 226 265 226 203 l 226 394 z "},"µ":{"ha":628,"x_min":38,"x_max":582,"o":"m 38 -167 l 38 638 l 206 638 l 206 285 q 209 202 206 235 q 224 149 213 169 q 254 122 235 129 q 307 114 274 114 q 358 125 338 114 q 390 153 378 136 q 407 193 401 171 q 414 238 413 215 l 414 638 l 582 638 l 582 0 l 435 0 l 422 86 q 349 15 396 40 q 236 -11 303 -11 q 189 7 207 -11 l 207 -167 l 38 -167 z "},"°":{"ha":379,"x_min":38,"x_max":333,"o":"m 185 836 q 242 825 215 836 q 290 794 269 814 q 322 748 310 775 q 333 690 333 721 q 322 633 333 660 q 291 585 311 606 q 244 553 271 565 q 188 542 218 542 q 130 553 157 542 q 83 583 103 564 q 50 630 63 603 q 38 688 38 657 q 49 745 38 718 q 81 792 61 772 q 128 824 101 813 q 185 836 154 836 m 186 599 q 251 625 224 599 q 278 689 278 651 q 251 753 278 728 q 186 779 224 779 q 122 753 149 779 q 94 689 94 728 q 122 625 94 651 q 186 599 149 599 z "},"ﬁ":{"ha":568,"x_min":10,"x_max":560,"o":"m 28 135 l 71 135 l 71 526 l 10 526 l 10 638 l 71 638 l 71 707 q 85 836 71 783 q 134 916 99 889 q 232 944 169 943 q 392 918 294 944 q 497 905 458 933 q 536 824 536 876 q 506 750 536 781 q 432 719 475 719 q 358 744 386 719 q 331 804 331 769 l 331 819 q 285 816 303 821 q 258 798 268 811 q 244 761 249 785 q 240 700 240 738 l 240 638 l 517 638 l 517 135 l 560 135 l 560 0 l 28 0 l 28 135 m 240 135 l 347 135 l 347 526 l 240 526 l 240 135 z "},"ﬂ":{"ha":628,"x_min":21,"x_max":614,"o":"m 39 135 l 82 135 l 82 526 l 21 526 l 21 638 l 82 638 l 82 707 q 145 915 82 861 q 331 939 208 968 l 331 819 q 292 816 307 821 q 267 798 276 811 q 255 761 258 785 q 251 700 251 738 l 251 638 l 331 638 l 331 526 l 251 526 l 251 135 l 294 135 l 294 0 l 39 0 l 39 135 m 358 928 l 571 928 l 571 135 l 614 135 l 614 0 l 358 0 l 358 135 l 401 135 l 401 793 l 358 793 l 358 928 z "},"¦":{"ha":265,"x_min":44,"x_max":214,"o":"m 44 428 l 44 900 l 214 900 l 214 428 l 44 428 m 214 300 l 214 -167 l 44 -167 l 44 300 l 214 300 z "},"¡":{"ha":294,"x_min":36,"x_max":232,"o":"m 193 436 l 218 -32 l 218 -139 l 50 -139 l 50 -26 l 75 436 l 193 436 m 36 599 q 65 668 36 639 q 133 697 93 697 q 203 668 175 697 q 232 599 232 639 q 203 530 232 558 q 133 501 175 501 q 65 530 93 501 q 36 599 36 558 z "},"¿":{"ha":575,"x_min":17,"x_max":511,"o":"m 368 456 q 355 376 368 410 q 321 317 342 343 q 277 269 300 290 q 233 223 254 247 q 199 169 213 199 q 186 99 186 139 q 200 4 186 36 q 256 -29 214 -29 q 300 -16 283 -29 q 326 21 317 -3 q 340 76 336 44 q 343 146 343 108 l 365 167 l 506 167 q 503 55 511 110 q 468 -43 496 0 q 389 -112 440 -86 q 257 -139 338 -139 q 144 -119 190 -139 q 69 -65 97 -99 q 29 14 42 -31 q 17 107 17 58 q 33 208 17 167 q 75 277 50 249 q 128 326 100 306 q 182 365 157 346 q 224 404 207 383 q 240 456 240 425 l 368 456 m 204 618 q 233 688 204 658 q 301 717 261 717 q 371 688 342 717 q 400 618 400 658 q 371 549 400 578 q 301 521 342 521 q 233 549 261 521 q 204 618 204 578 z "},"æ":{"ha":956,"x_min":24,"x_max":918,"o":"m 771 225 l 915 206 q 900 138 913 172 q 864 75 888 104 q 805 25 840 46 q 721 -4 769 4 q 692 -8 707 -7 q 661 -10 676 -10 q 553 10 599 -7 q 479 58 508 28 l 479 0 l 383 0 l 381 38 q 380 49 381 44 q 379 60 379 53 q 323 14 353 31 q 249 -7 293 -3 q 223 -10 236 -10 q 196 -10 210 -10 q 108 15 142 -8 q 55 80 74 39 q 30 175 36 121 q 24 290 24 229 l 24 354 q 30 485 24 426 q 57 583 36 543 q 117 645 78 624 q 224 667 157 667 q 319 648 281 667 q 386 597 358 629 q 388 606 388 601 q 389 614 388 610 l 393 638 l 479 638 l 479 596 q 554 646 508 628 q 667 664 600 664 q 786 642 738 664 q 864 583 835 621 q 906 495 893 546 q 918 386 918 444 l 918 307 l 906 294 l 575 294 l 575 274 q 592 140 575 181 q 667 100 610 100 q 726 130 711 100 q 747 217 742 160 l 771 225 m 193 285 q 197 222 193 251 q 211 169 200 192 q 242 134 222 147 q 294 121 261 121 q 359 140 338 121 q 390 185 381 158 q 399 240 399 211 q 399 289 399 268 l 399 401 q 396 446 399 422 q 383 490 393 469 q 351 522 372 510 q 294 535 331 535 q 242 524 261 535 q 211 492 222 514 q 197 438 200 471 q 193 360 193 404 l 193 285 m 667 556 q 592 515 610 556 q 575 388 575 475 l 575 382 l 749 382 l 749 385 l 749 428 q 732 524 749 493 q 667 556 715 556 z "},"Æ":{"ha":889,"x_min":-37,"x_max":882,"o":"m 419 0 l 419 175 l 208 175 l 186 122 l 225 122 l 225 0 l -37 0 l -37 135 l 22 135 l 317 701 l 274 701 l 274 836 l 876 836 l 876 658 l 742 658 l 742 701 l 589 701 l 589 479 l 822 479 l 822 360 l 589 360 l 589 135 l 747 135 l 747 178 l 882 178 l 882 0 l 419 0 m 261 283 l 419 283 l 419 668 l 414 668 l 376 511 l 261 283 z "},"Ł":{"ha":481,"x_min":-46,"x_max":463,"o":"m 207 508 l 342 575 l 342 444 l 207 378 l 207 135 l 328 135 l 328 178 l 463 178 l 463 0 l -6 0 l -6 135 l 38 135 l 38 296 l -46 256 l -46 386 l 38 426 l 38 701 l -6 701 l -6 836 l 250 836 l 250 701 l 207 701 l 207 508 z "},"ł":{"ha":265,"x_min":-46,"x_max":288,"o":"m 1 135 l 44 135 l 44 674 l -46 633 l -46 764 l 7 786 l 7 883 l 1 883 l 1 928 l 214 928 l 214 878 l 288 913 l 288 782 l 214 749 l 214 135 l 257 135 l 257 0 l 1 0 l 1 135 z "},"ı":{"ha":267,"x_min":1,"x_max":257,"o":"m 1 638 l 214 638 l 214 135 l 257 135 l 257 0 l 1 0 l 1 135 l 44 135 l 44 503 l 1 503 l 1 638 z "}," ":{"ha":279,"x_min":0,"x_max":0,"o":""},"Ž":{"ha":426,"x_min":-11,"x_max":450,"o":"m -11 671 l -11 836 l 450 836 l 450 754 l 179 124 l 307 124 l 307 167 l 429 167 l 429 0 l -11 0 l -11 82 l 263 714 l 124 714 l 124 671 l -11 671 m 136 1138 l 214 1032 l 286 1138 l 407 1138 l 279 940 l 147 940 l 17 1138 l 136 1138 z "},"ž":{"ha":451,"x_min":10,"x_max":440,"o":"m 10 474 l 10 639 l 440 639 l 440 557 l 204 124 l 331 124 l 331 167 l 440 167 l 440 0 l 10 0 l 10 82 l 261 517 l 119 517 l 119 474 l 10 474 m 150 939 l 228 833 l 300 939 l 421 939 l 293 742 l 161 742 l 31 939 l 150 939 z "},"Š":{"ha":576,"x_min":19,"x_max":544,"o":"m 194 636 q 210 579 194 604 q 251 533 225 554 q 308 492 276 513 q 374 451 340 472 q 436 409 406 432 q 491 358 467 386 q 530 295 515 331 q 544 214 544 260 q 532 137 544 176 q 490 65 519 97 q 411 10 461 32 q 286 -11 361 -11 q 165 11 217 -11 q 79 74 113 33 q 33 172 46 114 q 28 299 19 229 l 185 299 l 199 283 q 198 223 196 256 q 209 163 200 190 q 235 116 218 135 q 282 97 253 97 q 355 129 335 97 q 375 201 375 161 q 361 256 375 232 q 324 301 347 281 q 270 338 300 321 q 208 375 240 356 q 142 419 175 396 q 84 472 110 442 q 42 539 58 501 q 26 626 26 576 q 42 717 26 675 q 89 790 57 758 q 169 838 121 821 q 286 856 218 856 q 417 831 365 856 q 497 764 468 806 q 534 670 525 722 q 538 564 543 618 l 397 543 l 375 557 q 363 695 386 644 q 286 746 340 746 q 217 716 239 746 q 194 636 194 686 m 211 1138 l 289 1032 l 361 1138 l 482 1138 l 354 940 l 222 940 l 92 1138 l 211 1138 z "},"š":{"ha":567,"x_min":17,"x_max":536,"o":"m 199 479 q 214 431 199 450 q 253 398 229 411 q 310 375 278 385 q 375 354 342 365 q 434 332 406 344 q 485 301 463 319 q 522 255 508 282 q 536 189 536 228 q 522 117 536 153 q 477 53 508 81 q 396 8 446 25 q 274 -10 346 -10 q 163 7 211 -10 q 81 55 114 24 q 32 131 47 86 q 22 231 17 175 l 178 231 l 193 215 q 204 131 189 165 q 274 97 219 97 q 346 119 326 97 q 365 176 365 140 q 353 221 365 203 q 319 253 340 239 q 271 277 299 267 q 214 299 243 288 q 150 322 182 310 q 93 353 118 335 q 51 396 68 371 q 32 457 35 421 q 42 537 28 499 q 88 603 56 575 q 169 647 119 631 q 286 664 218 664 q 463 610 400 664 q 524 461 525 556 l 382 440 l 360 454 q 344 527 358 500 q 281 554 331 554 q 216 532 233 554 q 199 479 199 510 m 207 939 l 285 833 l 357 939 l 478 939 l 350 742 l 218 742 l 88 939 l 207 939 z "},"Ÿ":{"ha":536,"x_min":-28,"x_max":557,"o":"m 321 836 l 557 836 l 557 701 l 515 701 l 354 315 l 354 135 l 397 135 l 397 0 l 143 0 l 143 135 l 186 135 l 186 324 l 15 701 l -28 701 l -28 836 l 201 836 l 201 701 l 171 701 l 235 558 l 267 439 l 293 553 l 357 701 l 321 701 l 321 836 m 463 1024 q 437 962 463 988 q 375 936 411 936 q 314 962 339 936 q 289 1024 289 988 q 314 1085 289 1060 q 375 1111 339 1111 q 437 1085 411 1111 q 463 1024 463 1060 m 246 1024 q 220 962 246 988 q 158 936 194 936 q 97 962 122 936 q 72 1024 72 988 q 97 1085 72 1060 q 158 1111 122 1111 q 220 1085 194 1111 q 246 1024 246 1060 z "},"ÿ":{"ha":557,"x_min":-11,"x_max":568,"o":"m 229 503 l 196 503 l 250 350 l 268 176 l 310 350 l 363 503 l 326 503 l 326 638 l 568 638 l 568 503 l 526 503 l 306 -85 l 344 -85 l 344 -219 l 90 -219 l 90 -85 l 151 -85 l 197 28 l 31 503 l -11 503 l -11 638 l 229 638 l 229 503 m 474 825 q 448 763 474 789 q 386 738 422 738 q 325 763 350 738 q 300 825 300 789 q 325 887 300 861 q 386 913 350 913 q 448 887 422 913 q 474 825 474 861 m 257 825 q 231 763 257 789 q 169 738 206 738 q 108 763 133 738 q 83 825 83 789 q 108 887 83 861 q 169 913 133 913 q 231 887 206 913 q 257 825 257 861 z "},"Ý":{"ha":536,"x_min":-28,"x_max":557,"o":"m 321 836 l 557 836 l 557 701 l 515 701 l 354 315 l 354 135 l 397 135 l 397 0 l 143 0 l 143 135 l 186 135 l 186 324 l 15 701 l -28 701 l -28 836 l 201 836 l 201 701 l 171 701 l 235 558 l 267 439 l 293 553 l 357 701 l 321 701 l 321 836 m 90 981 l 417 1113 l 446 1094 l 418 960 l 114 918 l 90 981 z "},"ý":{"ha":557,"x_min":-11,"x_max":568,"o":"m 229 503 l 196 503 l 250 350 l 268 176 l 310 350 l 363 503 l 326 503 l 326 638 l 568 638 l 568 503 l 526 503 l 306 -85 l 344 -85 l 344 -219 l 90 -219 l 90 -85 l 151 -85 l 197 28 l 31 503 l -11 503 l -11 638 l 229 638 l 229 503 m 101 782 l 428 914 l 457 896 l 429 761 l 125 719 l 101 782 z "},"Ü":{"ha":628,"x_min":14,"x_max":614,"o":"m 365 836 l 614 836 l 614 701 l 571 701 l 571 385 q 564 210 571 285 q 531 87 557 136 q 452 13 504 38 q 308 -11 400 -11 q 168 13 218 -11 q 93 87 118 38 q 63 210 68 136 q 57 385 57 285 l 57 701 l 14 701 l 14 836 l 58 836 l 257 836 l 257 701 l 219 701 l 219 347 q 222 248 219 293 q 235 171 225 203 q 264 121 246 139 q 314 103 282 103 q 363 122 346 103 q 389 173 381 140 q 399 250 397 206 q 401 347 401 294 l 401 701 l 365 701 l 365 836 m 508 1024 q 483 962 508 988 q 421 936 457 936 q 360 962 385 936 q 335 1024 335 988 q 360 1085 335 1060 q 421 1111 385 1111 q 483 1085 457 1111 q 508 1024 508 1060 m 292 1024 q 266 962 292 988 q 204 936 240 936 q 143 962 168 936 q 118 1024 118 988 q 143 1085 118 1060 q 204 1111 168 1111 q 266 1085 240 1111 q 292 1024 292 1060 z "},"ü":{"ha":658,"x_min":14,"x_max":644,"o":"m 268 503 l 225 503 l 225 285 q 228 202 225 235 q 242 149 232 169 q 273 122 253 129 q 325 114 293 114 q 376 125 356 114 q 409 153 397 136 q 426 193 421 171 q 432 238 431 215 l 432 503 l 389 503 l 389 638 l 644 638 l 644 503 l 601 503 l 601 135 l 644 135 l 644 0 l 454 0 q 448 43 451 21 q 442 86 444 65 q 387 26 421 50 q 308 -6 353 1 q 250 -11 285 -11 q 164 4 200 -10 q 103 50 128 18 q 68 134 79 82 q 57 261 57 186 l 57 503 l 14 503 l 14 638 l 57 638 l 268 638 l 268 503 m 524 825 q 498 763 524 789 q 436 738 472 738 q 375 763 400 738 q 350 825 350 789 q 375 887 350 861 q 436 913 400 913 q 498 887 472 913 q 524 825 524 861 m 307 825 q 281 763 307 789 q 219 738 256 738 q 158 763 183 738 q 133 825 133 789 q 158 887 133 861 q 219 913 183 913 q 281 887 256 913 q 307 825 307 861 z "},"Ø":{"ha":613,"x_min":24,"x_max":581,"o":"m 297 856 q 438 826 382 856 q 524 741 493 797 q 568 603 556 685 q 581 418 581 522 q 569 239 581 318 q 526 104 557 160 q 440 19 494 49 q 297 -11 385 -11 q 156 19 210 -11 q 73 103 103 49 q 33 238 43 158 q 24 418 24 318 q 34 603 24 522 q 75 741 44 685 q 158 826 106 797 q 297 856 211 856 m 413 418 q 410 551 413 492 q 396 653 407 611 q 363 719 385 696 q 304 742 342 742 q 244 719 267 742 q 208 653 221 696 q 192 551 196 611 q 188 418 188 492 q 191 291 188 349 q 206 192 194 233 q 240 126 217 150 q 303 103 263 103 q 365 127 343 103 q 398 194 388 151 q 410 294 408 236 q 413 418 413 351 m 85 -44 l 363 883 l 532 883 l 254 -44 l 85 -44 z "},"ø":{"ha":601,"x_min":24,"x_max":569,"o":"m 79 -78 l 353 726 l 522 726 l 247 -78 l 79 -78 m 296 667 q 426 647 374 667 q 510 590 478 626 q 556 503 542 554 q 569 392 569 453 l 569 265 q 556 153 569 204 q 510 67 542 103 q 426 10 478 31 q 296 -10 374 -10 q 166 10 218 -10 q 83 67 114 31 q 38 153 51 103 q 24 265 24 204 l 24 392 q 38 503 24 453 q 83 590 51 554 q 166 647 114 626 q 296 667 218 667 m 401 385 q 378 515 401 474 q 296 557 354 557 q 216 515 239 557 q 193 385 193 474 l 193 272 q 216 142 193 183 q 296 100 239 100 q 378 142 354 100 q 401 272 401 183 l 401 385 z "},"Ð":{"ha":633,"x_min":0,"x_max":603,"o":"m 14 836 l 314 836 q 461 808 404 836 q 549 725 518 779 q 592 593 581 671 q 603 418 603 515 q 592 244 603 322 q 549 113 581 167 q 460 29 517 58 q 314 0 404 0 l 14 0 l 14 135 l 57 135 l 57 361 l 0 361 l 0 479 l 57 479 l 57 701 l 14 701 l 14 836 m 288 361 l 226 361 l 226 114 l 308 114 q 374 136 349 114 q 412 199 399 158 q 429 294 425 239 q 433 418 433 350 q 431 541 433 485 q 418 638 429 597 q 383 700 407 678 q 318 722 360 722 l 226 722 l 226 479 l 288 479 l 288 361 z "},"Ñ":{"ha":647,"x_min":14,"x_max":633,"o":"m 378 836 l 590 836 l 590 0 l 451 0 l 194 539 q 203 503 199 521 q 210 468 207 486 l 226 297 l 226 135 l 269 135 l 269 0 l 14 0 l 14 135 l 57 135 l 57 701 l 14 701 l 14 836 l 196 836 l 453 294 q 444 331 449 313 q 436 369 439 350 l 421 526 l 421 701 l 378 701 l 378 836 m 590 836 l 633 836 l 633 701 l 590 701 l 590 836 m 351 1090 q 399 1061 381 1069 q 432 1055 418 1053 q 457 1070 446 1057 q 481 1108 468 1083 l 563 1058 q 448 938 517 963 q 300 971 379 913 q 251 1001 271 992 q 215 1008 231 1011 q 188 990 200 1006 q 163 949 175 975 l 83 1003 q 135 1078 106 1049 q 200 1119 165 1107 q 273 1125 235 1132 q 351 1090 311 1118 z "},"ñ":{"ha":657,"x_min":14,"x_max":643,"o":"m 388 135 l 431 135 l 431 401 q 410 504 431 474 q 326 535 390 535 q 276 524 296 535 q 246 497 257 514 q 231 459 235 481 q 226 415 226 438 l 226 135 l 269 135 l 269 0 l 14 0 l 14 135 l 57 135 l 57 503 l 14 503 l 14 638 l 204 638 q 212 599 208 618 q 219 560 215 579 q 258 611 235 589 q 313 644 282 633 q 429 665 363 668 q 526 645 492 664 q 576 592 560 626 q 597 510 593 558 q 600 401 600 461 l 600 135 l 643 135 l 643 0 l 388 0 l 388 135 m 356 892 q 403 863 385 871 q 436 856 422 854 q 461 872 450 858 q 485 910 472 885 l 567 860 q 452 739 521 764 q 304 772 383 714 q 255 803 275 793 q 219 810 235 813 q 192 792 204 807 q 167 750 179 776 l 88 804 q 140 879 110 850 q 204 921 169 908 q 277 926 239 933 q 356 892 315 919 z "},"ò":{"ha":601,"x_min":24,"x_max":569,"o":"m 296 667 q 426 647 374 667 q 510 590 478 626 q 556 503 542 554 q 569 392 569 453 l 569 265 q 556 153 569 204 q 510 67 542 103 q 426 10 478 31 q 296 -10 374 -10 q 166 10 218 -10 q 83 67 114 31 q 38 153 51 103 q 24 265 24 204 l 24 392 q 38 503 24 453 q 83 590 51 554 q 166 647 114 626 q 296 667 218 667 m 401 385 q 378 515 401 474 q 296 557 354 557 q 216 515 239 557 q 193 385 193 474 l 193 272 q 216 142 193 183 q 296 100 239 100 q 378 142 354 100 q 401 272 401 183 l 401 385 m 453 719 l 150 761 l 122 896 l 150 914 l 478 782 l 453 719 z "},"ó":{"ha":601,"x_min":24,"x_max":569,"o":"m 296 667 q 426 647 374 667 q 510 590 478 626 q 556 503 542 554 q 569 392 569 453 l 569 265 q 556 153 569 204 q 510 67 542 103 q 426 10 478 31 q 296 -10 374 -10 q 166 10 218 -10 q 83 67 114 31 q 38 153 51 103 q 24 265 24 204 l 24 392 q 38 503 24 453 q 83 590 51 554 q 166 647 114 626 q 296 667 218 667 m 401 385 q 378 515 401 474 q 296 557 354 557 q 216 515 239 557 q 193 385 193 474 l 193 272 q 216 142 193 183 q 296 100 239 100 q 378 142 354 100 q 401 272 401 183 l 401 385 m 122 782 l 449 914 l 478 896 l 450 761 l 146 719 l 122 782 z "},"ô":{"ha":601,"x_min":24,"x_max":569,"o":"m 296 667 q 426 647 374 667 q 510 590 478 626 q 556 503 542 554 q 569 392 569 453 l 569 265 q 556 153 569 204 q 510 67 542 103 q 426 10 478 31 q 296 -10 374 -10 q 166 10 218 -10 q 83 67 114 31 q 38 153 51 103 q 24 265 24 204 l 24 392 q 38 503 24 453 q 83 590 51 554 q 166 647 114 626 q 296 667 218 667 m 401 385 q 378 515 401 474 q 296 557 354 557 q 216 515 239 557 q 193 385 193 474 l 193 272 q 216 142 193 183 q 296 100 239 100 q 378 142 354 100 q 401 272 401 183 l 401 385 m 104 742 l 235 939 l 367 939 l 494 742 l 374 742 l 301 847 l 224 742 l 104 742 z "},"õ":{"ha":601,"x_min":24,"x_max":569,"o":"m 296 667 q 426 647 374 667 q 510 590 478 626 q 556 503 542 554 q 569 392 569 453 l 569 265 q 556 153 569 204 q 510 67 542 103 q 426 10 478 31 q 296 -10 374 -10 q 166 10 218 -10 q 83 67 114 31 q 38 153 51 103 q 24 265 24 204 l 24 392 q 38 503 24 453 q 83 590 51 554 q 166 647 114 626 q 296 667 218 667 m 401 385 q 378 515 401 474 q 296 557 354 557 q 216 515 239 557 q 193 385 193 474 l 193 272 q 216 142 193 183 q 296 100 239 100 q 378 142 354 100 q 401 272 401 183 l 401 385 m 329 892 q 377 863 358 871 q 410 856 396 854 q 435 872 424 858 q 458 910 446 885 l 540 860 q 426 739 494 764 q 278 772 357 714 q 228 803 249 793 q 193 810 208 813 q 165 792 178 807 q 140 750 153 776 l 61 804 q 113 879 83 850 q 178 921 143 908 q 251 926 213 933 q 329 892 289 919 z "},"ö":{"ha":601,"x_min":24,"x_max":569,"o":"m 296 667 q 426 647 374 667 q 510 590 478 626 q 556 503 542 554 q 569 392 569 453 l 569 265 q 556 153 569 204 q 510 67 542 103 q 426 10 478 31 q 296 -10 374 -10 q 166 10 218 -10 q 83 67 114 31 q 38 153 51 103 q 24 265 24 204 l 24 392 q 38 503 24 453 q 83 590 51 554 q 166 647 114 626 q 296 667 218 667 m 401 385 q 378 515 401 474 q 296 557 354 557 q 216 515 239 557 q 193 385 193 474 l 193 272 q 216 142 193 183 q 296 100 239 100 q 378 142 354 100 q 401 272 401 183 l 401 385 m 494 825 q 469 763 494 789 q 407 738 443 738 q 346 763 371 738 q 321 825 321 789 q 346 887 321 861 q 407 913 371 913 q 469 887 443 913 q 494 825 494 861 m 278 825 q 252 763 278 789 q 190 738 226 738 q 129 763 154 738 q 104 825 104 789 q 129 887 104 861 q 190 913 154 913 q 252 887 226 913 q 278 825 278 861 z "},"ù":{"ha":658,"x_min":14,"x_max":644,"o":"m 268 503 l 225 503 l 225 285 q 228 202 225 235 q 242 149 232 169 q 273 122 253 129 q 325 114 293 114 q 376 125 356 114 q 409 153 397 136 q 426 193 421 171 q 432 238 431 215 l 432 503 l 389 503 l 389 638 l 644 638 l 644 503 l 601 503 l 601 135 l 644 135 l 644 0 l 454 0 q 448 43 451 21 q 442 86 444 65 q 387 26 421 50 q 308 -6 353 1 q 250 -11 285 -11 q 164 4 200 -10 q 103 50 128 18 q 68 134 79 82 q 57 261 57 186 l 57 503 l 14 503 l 14 638 l 57 638 l 268 638 l 268 503 m 482 719 l 179 761 l 151 896 l 179 914 l 507 782 l 482 719 z "},"ú":{"ha":658,"x_min":14,"x_max":644,"o":"m 268 503 l 225 503 l 225 285 q 228 202 225 235 q 242 149 232 169 q 273 122 253 129 q 325 114 293 114 q 376 125 356 114 q 409 153 397 136 q 426 193 421 171 q 432 238 431 215 l 432 503 l 389 503 l 389 638 l 644 638 l 644 503 l 601 503 l 601 135 l 644 135 l 644 0 l 454 0 q 448 43 451 21 q 442 86 444 65 q 387 26 421 50 q 308 -6 353 1 q 250 -11 285 -11 q 164 4 200 -10 q 103 50 128 18 q 68 134 79 82 q 57 261 57 186 l 57 503 l 14 503 l 14 638 l 57 638 l 268 638 l 268 503 m 151 782 l 478 914 l 507 896 l 479 761 l 175 719 l 151 782 z "},"û":{"ha":658,"x_min":14,"x_max":644,"o":"m 268 503 l 225 503 l 225 285 q 228 202 225 235 q 242 149 232 169 q 273 122 253 129 q 325 114 293 114 q 376 125 356 114 q 409 153 397 136 q 426 193 421 171 q 432 238 431 215 l 432 503 l 389 503 l 389 638 l 644 638 l 644 503 l 601 503 l 601 135 l 644 135 l 644 0 l 454 0 q 448 43 451 21 q 442 86 444 65 q 387 26 421 50 q 308 -6 353 1 q 250 -11 285 -11 q 164 4 200 -10 q 103 50 128 18 q 68 134 79 82 q 57 261 57 186 l 57 503 l 14 503 l 14 638 l 57 638 l 268 638 l 268 503 m 133 742 l 264 939 l 396 939 l 524 742 l 403 742 l 331 847 l 253 742 l 133 742 z "},"Û":{"ha":628,"x_min":14,"x_max":614,"o":"m 365 836 l 614 836 l 614 701 l 571 701 l 571 385 q 564 210 571 285 q 531 87 557 136 q 452 13 504 38 q 308 -11 400 -11 q 168 13 218 -11 q 93 87 118 38 q 63 210 68 136 q 57 385 57 285 l 57 701 l 14 701 l 14 836 l 58 836 l 257 836 l 257 701 l 219 701 l 219 347 q 222 248 219 293 q 235 171 225 203 q 264 121 246 139 q 314 103 282 103 q 363 122 346 103 q 389 173 381 140 q 399 250 397 206 q 401 347 401 294 l 401 701 l 365 701 l 365 836 m 118 940 l 249 1138 l 381 1138 l 508 940 l 388 940 l 315 1046 l 238 940 l 118 940 z "},"Ú":{"ha":628,"x_min":14,"x_max":614,"o":"m 365 836 l 614 836 l 614 701 l 571 701 l 571 385 q 564 210 571 285 q 531 87 557 136 q 452 13 504 38 q 308 -11 400 -11 q 168 13 218 -11 q 93 87 118 38 q 63 210 68 136 q 57 385 57 285 l 57 701 l 14 701 l 14 836 l 58 836 l 257 836 l 257 701 l 219 701 l 219 347 q 222 248 219 293 q 235 171 225 203 q 264 121 246 139 q 314 103 282 103 q 363 122 346 103 q 389 173 381 140 q 399 250 397 206 q 401 347 401 294 l 401 701 l 365 701 l 365 836 m 136 981 l 463 1113 l 492 1094 l 464 960 l 160 918 l 136 981 z "},"Ù":{"ha":628,"x_min":14,"x_max":614,"o":"m 365 836 l 614 836 l 614 701 l 571 701 l 571 385 q 564 210 571 285 q 531 87 557 136 q 452 13 504 38 q 308 -11 400 -11 q 168 13 218 -11 q 93 87 118 38 q 63 210 68 136 q 57 385 57 285 l 57 701 l 14 701 l 14 836 l 58 836 l 257 836 l 257 701 l 219 701 l 219 347 q 222 248 219 293 q 235 171 225 203 q 264 121 246 139 q 314 103 282 103 q 363 122 346 103 q 389 173 381 140 q 399 250 397 206 q 401 347 401 294 l 401 701 l 365 701 l 365 836 m 467 918 l 164 960 l 136 1094 l 164 1113 l 492 981 l 467 918 z "},"Ö":{"ha":613,"x_min":24,"x_max":581,"o":"m 297 856 q 438 826 382 856 q 524 741 493 797 q 568 603 556 685 q 581 418 581 522 q 569 239 581 318 q 526 104 557 160 q 440 19 494 49 q 297 -11 385 -11 q 156 19 210 -11 q 73 103 103 49 q 33 238 43 158 q 24 418 24 318 q 34 603 24 522 q 75 741 44 685 q 158 826 106 797 q 297 856 211 856 m 413 418 q 410 551 413 492 q 396 653 407 611 q 363 719 385 696 q 304 742 342 742 q 244 719 267 742 q 208 653 221 696 q 192 551 196 611 q 188 418 188 492 q 191 291 188 349 q 206 192 194 233 q 240 126 217 150 q 303 103 263 103 q 365 127 343 103 q 398 194 388 151 q 410 294 408 236 q 413 418 413 351 m 500 1024 q 474 962 500 988 q 413 936 449 936 q 351 962 376 936 q 326 1024 326 988 q 351 1085 326 1060 q 413 1111 376 1111 q 474 1085 449 1111 q 500 1024 500 1060 m 283 1024 q 258 962 283 988 q 196 936 232 936 q 135 962 160 936 q 110 1024 110 988 q 135 1085 110 1060 q 196 1111 160 1111 q 258 1085 232 1111 q 283 1024 283 1060 z "},"Õ":{"ha":613,"x_min":24,"x_max":581,"o":"m 297 856 q 438 826 382 856 q 524 741 493 797 q 568 603 556 685 q 581 418 581 522 q 569 239 581 318 q 526 104 557 160 q 440 19 494 49 q 297 -11 385 -11 q 156 19 210 -11 q 73 103 103 49 q 33 238 43 158 q 24 418 24 318 q 34 603 24 522 q 75 741 44 685 q 158 826 106 797 q 297 856 211 856 m 413 418 q 410 551 413 492 q 396 653 407 611 q 363 719 385 696 q 304 742 342 742 q 244 719 267 742 q 208 653 221 696 q 192 551 196 611 q 188 418 188 492 q 191 291 188 349 q 206 192 194 233 q 240 126 217 150 q 303 103 263 103 q 365 127 343 103 q 398 194 388 151 q 410 294 408 236 q 413 418 413 351 m 335 1090 q 383 1061 364 1069 q 415 1055 401 1053 q 440 1070 429 1057 q 464 1108 451 1083 l 546 1058 q 431 938 500 963 q 283 971 363 913 q 234 1001 254 992 q 199 1008 214 1011 q 171 990 183 1006 q 146 949 158 975 l 67 1003 q 119 1078 89 1049 q 183 1119 149 1107 q 256 1125 218 1132 q 335 1090 294 1118 z "},"Ô":{"ha":613,"x_min":24,"x_max":581,"o":"m 297 856 q 438 826 382 856 q 524 741 493 797 q 568 603 556 685 q 581 418 581 522 q 569 239 581 318 q 526 104 557 160 q 440 19 494 49 q 297 -11 385 -11 q 156 19 210 -11 q 73 103 103 49 q 33 238 43 158 q 24 418 24 318 q 34 603 24 522 q 75 741 44 685 q 158 826 106 797 q 297 856 211 856 m 413 418 q 410 551 413 492 q 396 653 407 611 q 363 719 385 696 q 304 742 342 742 q 244 719 267 742 q 208 653 221 696 q 192 551 196 611 q 188 418 188 492 q 191 291 188 349 q 206 192 194 233 q 240 126 217 150 q 303 103 263 103 q 365 127 343 103 q 398 194 388 151 q 410 294 408 236 q 413 418 413 351 m 110 940 l 240 1138 l 372 1138 l 500 940 l 379 940 l 307 1046 l 229 940 l 110 940 z "},"Ó":{"ha":613,"x_min":24,"x_max":581,"o":"m 297 856 q 438 826 382 856 q 524 741 493 797 q 568 603 556 685 q 581 418 581 522 q 569 239 581 318 q 526 104 557 160 q 440 19 494 49 q 297 -11 385 -11 q 156 19 210 -11 q 73 103 103 49 q 33 238 43 158 q 24 418 24 318 q 34 603 24 522 q 75 741 44 685 q 158 826 106 797 q 297 856 211 856 m 413 418 q 410 551 413 492 q 396 653 407 611 q 363 719 385 696 q 304 742 342 742 q 244 719 267 742 q 208 653 221 696 q 192 551 196 611 q 188 418 188 492 q 191 291 188 349 q 206 192 194 233 q 240 126 217 150 q 303 103 263 103 q 365 127 343 103 q 398 194 388 151 q 410 294 408 236 q 413 418 413 351 m 128 981 l 454 1113 l 483 1094 l 456 960 l 151 918 l 128 981 z "},"Ò":{"ha":613,"x_min":24,"x_max":581,"o":"m 297 856 q 438 826 382 856 q 524 741 493 797 q 568 603 556 685 q 581 418 581 522 q 569 239 581 318 q 526 104 557 160 q 440 19 494 49 q 297 -11 385 -11 q 156 19 210 -11 q 73 103 103 49 q 33 238 43 158 q 24 418 24 318 q 34 603 24 522 q 75 741 44 685 q 158 826 106 797 q 297 856 211 856 m 413 418 q 410 551 413 492 q 396 653 407 611 q 363 719 385 696 q 304 742 342 742 q 244 719 267 742 q 208 653 221 696 q 192 551 196 611 q 188 418 188 492 q 191 291 188 349 q 206 192 194 233 q 240 126 217 150 q 303 103 263 103 q 365 127 343 103 q 398 194 388 151 q 410 294 408 236 q 413 418 413 351 m 458 918 l 156 960 l 128 1094 l 156 1113 l 483 981 l 458 918 z "},"Ï":{"ha":271,"x_min":-60,"x_max":331,"o":"m 14 836 l 226 836 l 226 135 l 269 135 l 269 0 l 14 0 l 14 135 l 57 135 l 57 701 l 14 701 l 14 836 m 226 836 l 269 836 l 269 701 l 226 701 l 226 836 m 331 1024 q 305 962 331 988 q 243 936 279 936 q 182 962 207 936 q 157 1024 157 988 q 182 1085 157 1060 q 243 1111 207 1111 q 305 1085 279 1111 q 331 1024 331 1060 m 114 1024 q 88 962 114 988 q 26 936 63 936 q -35 962 -10 936 q -60 1024 -60 988 q -35 1085 -60 1060 q 26 1111 -10 1111 q 88 1085 63 1111 q 114 1024 114 1060 z "},"ï":{"ha":267,"x_min":-62,"x_max":328,"o":"m 1 638 l 214 638 l 214 135 l 257 135 l 257 0 l 1 0 l 1 135 l 44 135 l 44 503 l 1 503 l 1 638 m 328 825 q 302 763 328 789 q 240 738 276 738 q 179 763 204 738 q 154 825 154 789 q 179 887 154 861 q 240 913 204 913 q 302 887 276 913 q 328 825 328 861 m 111 825 q 85 763 111 789 q 24 738 60 738 q -37 763 -12 738 q -62 825 -62 789 q -37 887 -62 861 q 24 913 -12 913 q 85 887 60 913 q 111 825 111 861 z "},"î":{"ha":267,"x_min":-62,"x_max":328,"o":"m 1 638 l 214 638 l 214 135 l 257 135 l 257 0 l 1 0 l 1 135 l 44 135 l 44 503 l 1 503 l 1 638 m -62 742 l 68 939 l 200 939 l 328 742 l 207 742 l 135 847 l 57 742 l -62 742 z "},"Î":{"ha":271,"x_min":-60,"x_max":331,"o":"m 14 836 l 226 836 l 226 135 l 269 135 l 269 0 l 14 0 l 14 135 l 57 135 l 57 701 l 14 701 l 14 836 m 226 836 l 269 836 l 269 701 l 226 701 l 226 836 m -60 940 l 71 1138 l 203 1138 l 331 940 l 210 940 l 138 1046 l 60 940 l -60 940 z "},"À":{"ha":614,"x_min":-14,"x_max":628,"o":"m 386 122 l 418 122 l 393 203 l 206 203 l 183 122 l 226 122 l 226 0 l -14 0 l -14 135 l 28 135 l 206 836 l 386 836 l 583 135 l 628 135 l 628 0 l 386 0 l 386 122 m 225 303 l 369 303 l 339 397 l 293 660 l 253 397 l 225 303 m 460 918 l 157 960 l 129 1094 l 157 1113 l 485 981 l 460 918 z "},"Á":{"ha":614,"x_min":-14,"x_max":628,"o":"m 386 122 l 418 122 l 393 203 l 206 203 l 183 122 l 226 122 l 226 0 l -14 0 l -14 135 l 28 135 l 206 836 l 386 836 l 583 135 l 628 135 l 628 0 l 386 0 l 386 122 m 225 303 l 369 303 l 339 397 l 293 660 l 253 397 l 225 303 m 129 981 l 456 1113 l 485 1094 l 457 960 l 153 918 l 129 981 z "},"Â":{"ha":614,"x_min":-14,"x_max":628,"o":"m 386 122 l 418 122 l 393 203 l 206 203 l 183 122 l 226 122 l 226 0 l -14 0 l -14 135 l 28 135 l 206 836 l 386 836 l 583 135 l 628 135 l 628 0 l 386 0 l 386 122 m 225 303 l 369 303 l 339 397 l 293 660 l 253 397 l 225 303 m 111 940 l 242 1138 l 374 1138 l 501 940 l 381 940 l 308 1046 l 231 940 l 111 940 z "},"Ã":{"ha":614,"x_min":-14,"x_max":628,"o":"m 386 122 l 418 122 l 393 203 l 206 203 l 183 122 l 226 122 l 226 0 l -14 0 l -14 135 l 28 135 l 206 836 l 386 836 l 583 135 l 628 135 l 628 0 l 386 0 l 386 122 m 225 303 l 369 303 l 339 397 l 293 660 l 253 397 l 225 303 m 335 1090 q 383 1061 364 1069 q 415 1055 401 1053 q 440 1070 429 1057 q 464 1108 451 1083 l 546 1058 q 431 938 500 963 q 283 971 363 913 q 234 1001 254 992 q 199 1008 214 1011 q 171 990 183 1006 q 146 949 158 975 l 67 1003 q 119 1078 89 1049 q 183 1119 149 1107 q 256 1125 218 1132 q 335 1090 294 1118 z "},"Ä":{"ha":614,"x_min":-14,"x_max":628,"o":"m 386 122 l 418 122 l 393 203 l 206 203 l 183 122 l 226 122 l 226 0 l -14 0 l -14 135 l 28 135 l 206 836 l 386 836 l 583 135 l 628 135 l 628 0 l 386 0 l 386 122 m 225 303 l 369 303 l 339 397 l 293 660 l 253 397 l 225 303 m 501 1024 q 476 962 501 988 q 414 936 450 936 q 353 962 378 936 q 328 1024 328 988 q 353 1085 328 1060 q 414 1111 378 1111 q 476 1085 450 1111 q 501 1024 501 1060 m 285 1024 q 259 962 285 988 q 197 936 233 936 q 136 962 161 936 q 111 1024 111 988 q 136 1085 111 1060 q 197 1111 161 1111 q 259 1085 233 1111 q 285 1024 285 1060 z "},"Å":{"ha":614,"x_min":-14,"x_max":628,"o":"m 386 122 l 418 122 l 393 203 l 206 203 l 183 122 l 226 122 l 226 0 l -14 0 l -14 135 l 28 135 l 206 836 l 386 836 l 583 135 l 628 135 l 628 0 l 386 0 l 386 122 m 225 303 l 369 303 l 339 397 l 293 660 l 253 397 l 225 303 m 306 1200 q 363 1189 336 1200 q 410 1158 390 1178 q 442 1112 431 1139 q 454 1054 454 1085 q 443 997 454 1024 q 412 951 432 971 q 365 919 392 931 q 308 907 339 907 q 251 918 278 907 q 203 949 224 929 q 171 994 183 968 q 158 1051 158 1021 q 170 1109 158 1082 q 202 1156 182 1136 q 249 1188 222 1176 q 306 1200 275 1200 m 307 963 q 372 989 344 963 q 399 1053 399 1015 q 372 1118 399 1092 q 307 1144 344 1144 q 242 1118 269 1144 q 215 1053 215 1092 q 242 989 215 1015 q 307 963 269 963 z "},"å":{"ha":625,"x_min":24,"x_max":610,"o":"m 567 135 l 610 135 l 610 0 l 417 0 q 409 41 414 21 q 401 82 404 61 q 320 13 371 36 q 203 -10 269 -10 q 113 14 147 -10 q 58 77 78 38 q 31 170 38 117 q 24 285 24 224 l 24 360 q 31 488 24 431 q 58 584 38 544 q 119 645 79 624 q 224 667 158 667 q 335 641 290 667 q 407 569 381 615 q 413 603 410 586 q 418 638 415 621 l 567 638 l 610 638 l 610 503 l 567 503 l 567 135 m 193 285 q 197 222 193 251 q 211 169 200 192 q 242 134 222 147 q 294 121 261 121 q 348 132 328 121 q 380 160 368 143 q 395 199 392 178 q 399 240 399 221 l 399 401 q 396 446 399 422 q 383 490 393 469 q 351 522 372 510 q 294 535 331 535 q 242 524 261 535 q 211 492 222 514 q 197 438 200 471 q 193 360 193 404 l 193 285 m 311 1001 q 369 990 342 1001 q 416 960 396 979 q 448 913 436 940 q 460 856 460 886 q 449 799 460 825 q 417 752 438 772 q 371 720 397 732 q 314 708 344 708 q 256 719 283 708 q 209 750 229 731 q 176 796 189 769 q 164 853 164 822 q 176 910 164 883 q 208 958 188 938 q 254 990 228 978 q 311 1001 281 1001 m 313 764 q 377 790 350 764 q 404 854 404 817 q 377 919 404 893 q 313 946 350 946 q 248 919 275 946 q 221 854 221 893 q 248 790 221 817 q 313 764 275 764 z "},"ä":{"ha":625,"x_min":24,"x_max":610,"o":"m 567 135 l 610 135 l 610 0 l 417 0 q 409 41 414 21 q 401 82 404 61 q 320 13 371 36 q 203 -10 269 -10 q 113 14 147 -10 q 58 77 78 38 q 31 170 38 117 q 24 285 24 224 l 24 360 q 31 488 24 431 q 58 584 38 544 q 119 645 79 624 q 224 667 158 667 q 335 641 290 667 q 407 569 381 615 q 413 603 410 586 q 418 638 415 621 l 567 638 l 610 638 l 610 503 l 567 503 l 567 135 m 193 285 q 197 222 193 251 q 211 169 200 192 q 242 134 222 147 q 294 121 261 121 q 348 132 328 121 q 380 160 368 143 q 395 199 392 178 q 399 240 399 221 l 399 401 q 396 446 399 422 q 383 490 393 469 q 351 522 372 510 q 294 535 331 535 q 242 524 261 535 q 211 492 222 514 q 197 438 200 471 q 193 360 193 404 l 193 285 m 507 825 q 481 763 507 789 q 419 738 456 738 q 358 763 383 738 q 333 825 333 789 q 358 887 333 861 q 419 913 383 913 q 481 887 456 913 q 507 825 507 861 m 290 825 q 265 763 290 789 q 203 738 239 738 q 142 763 167 738 q 117 825 117 789 q 142 887 117 861 q 203 913 167 913 q 265 887 239 913 q 290 825 290 861 z "},"ã":{"ha":625,"x_min":24,"x_max":610,"o":"m 567 135 l 610 135 l 610 0 l 417 0 q 409 41 414 21 q 401 82 404 61 q 320 13 371 36 q 203 -10 269 -10 q 113 14 147 -10 q 58 77 78 38 q 31 170 38 117 q 24 285 24 224 l 24 360 q 31 488 24 431 q 58 584 38 544 q 119 645 79 624 q 224 667 158 667 q 335 641 290 667 q 407 569 381 615 q 413 603 410 586 q 418 638 415 621 l 567 638 l 610 638 l 610 503 l 567 503 l 567 135 m 193 285 q 197 222 193 251 q 211 169 200 192 q 242 134 222 147 q 294 121 261 121 q 348 132 328 121 q 380 160 368 143 q 395 199 392 178 q 399 240 399 221 l 399 401 q 396 446 399 422 q 383 490 393 469 q 351 522 372 510 q 294 535 331 535 q 242 524 261 535 q 211 492 222 514 q 197 438 200 471 q 193 360 193 404 l 193 285 m 340 892 q 388 863 369 871 q 421 856 407 854 q 446 872 435 858 q 469 910 457 885 l 551 860 q 437 739 506 764 q 289 772 368 714 q 240 803 260 793 q 204 810 219 813 q 176 792 189 807 q 151 750 164 776 l 72 804 q 124 879 94 850 q 189 921 154 908 q 262 926 224 933 q 340 892 300 919 z "},"â":{"ha":625,"x_min":24,"x_max":610,"o":"m 567 135 l 610 135 l 610 0 l 417 0 q 409 41 414 21 q 401 82 404 61 q 320 13 371 36 q 203 -10 269 -10 q 113 14 147 -10 q 58 77 78 38 q 31 170 38 117 q 24 285 24 224 l 24 360 q 31 488 24 431 q 58 584 38 544 q 119 645 79 624 q 224 667 158 667 q 335 641 290 667 q 407 569 381 615 q 413 603 410 586 q 418 638 415 621 l 567 638 l 610 638 l 610 503 l 567 503 l 567 135 m 193 285 q 197 222 193 251 q 211 169 200 192 q 242 134 222 147 q 294 121 261 121 q 348 132 328 121 q 380 160 368 143 q 395 199 392 178 q 399 240 399 221 l 399 401 q 396 446 399 422 q 383 490 393 469 q 351 522 372 510 q 294 535 331 535 q 242 524 261 535 q 211 492 222 514 q 197 438 200 471 q 193 360 193 404 l 193 285 m 117 742 l 247 939 l 379 939 l 507 742 l 386 742 l 314 847 l 236 742 l 117 742 z "},"à":{"ha":625,"x_min":24,"x_max":610,"o":"m 567 135 l 610 135 l 610 0 l 417 0 q 409 41 414 21 q 401 82 404 61 q 320 13 371 36 q 203 -10 269 -10 q 113 14 147 -10 q 58 77 78 38 q 31 170 38 117 q 24 285 24 224 l 24 360 q 31 488 24 431 q 58 584 38 544 q 119 645 79 624 q 224 667 158 667 q 335 641 290 667 q 407 569 381 615 q 413 603 410 586 q 418 638 415 621 l 567 638 l 610 638 l 610 503 l 567 503 l 567 135 m 193 285 q 197 222 193 251 q 211 169 200 192 q 242 134 222 147 q 294 121 261 121 q 348 132 328 121 q 380 160 368 143 q 395 199 392 178 q 399 240 399 221 l 399 401 q 396 446 399 422 q 383 490 393 469 q 351 522 372 510 q 294 535 331 535 q 242 524 261 535 q 211 492 222 514 q 197 438 200 471 q 193 360 193 404 l 193 285 m 465 719 l 163 761 l 135 896 l 163 914 l 490 782 l 465 719 z "},"á":{"ha":625,"x_min":24,"x_max":610,"o":"m 567 135 l 610 135 l 610 0 l 417 0 q 409 41 414 21 q 401 82 404 61 q 320 13 371 36 q 203 -10 269 -10 q 113 14 147 -10 q 58 77 78 38 q 31 170 38 117 q 24 285 24 224 l 24 360 q 31 488 24 431 q 58 584 38 544 q 119 645 79 624 q 224 667 158 667 q 335 641 290 667 q 407 569 381 615 q 413 603 410 586 q 418 638 415 621 l 567 638 l 610 638 l 610 503 l 567 503 l 567 135 m 193 285 q 197 222 193 251 q 211 169 200 192 q 242 134 222 147 q 294 121 261 121 q 348 132 328 121 q 380 160 368 143 q 395 199 392 178 q 399 240 399 221 l 399 401 q 396 446 399 422 q 383 490 393 469 q 351 522 372 510 q 294 535 331 535 q 242 524 261 535 q 211 492 222 514 q 197 438 200 471 q 193 360 193 404 l 193 285 m 135 782 l 461 914 l 490 896 l 463 761 l 158 719 l 135 782 z "},"ç":{"ha":568,"x_min":24,"x_max":547,"o":"m 294 22 l 272 -60 q 336 -60 306 -54 q 390 -82 367 -65 q 424 -124 413 -99 q 432 -185 436 -150 q 394 -270 426 -239 q 316 -310 361 -301 q 220 -305 271 -318 q 126 -256 169 -292 l 157 -168 q 215 -200 183 -189 q 275 -211 247 -211 q 322 -200 303 -211 q 342 -165 342 -189 q 326 -131 342 -143 q 287 -115 311 -119 q 233 -114 263 -111 q 179 -122 204 -117 l 207 4 l 294 22 m 24 394 q 35 504 24 454 q 77 590 47 554 q 157 644 107 625 q 285 664 207 664 q 489 586 431 664 q 533 369 547 508 l 383 369 l 367 383 q 365 462 367 429 q 355 515 363 494 q 331 546 347 536 q 285 556 314 556 q 210 517 228 556 q 193 388 193 479 l 193 272 q 210 138 193 176 q 285 100 228 100 q 351 144 336 100 q 367 264 367 188 l 383 276 l 533 260 q 526 153 538 203 q 485 68 514 104 q 406 11 456 32 q 285 -10 357 -10 q 157 10 207 -10 q 77 65 107 29 q 35 152 47 101 q 24 265 24 203 l 24 394 z "},"Ç":{"ha":600,"x_min":24,"x_max":575,"o":"m 311 24 l 289 -60 q 353 -60 322 -54 q 406 -82 383 -65 q 440 -124 428 -99 q 449 -185 451 -150 q 410 -270 442 -239 q 333 -310 378 -301 q 237 -305 288 -318 q 143 -256 186 -292 l 174 -168 q 232 -200 200 -189 q 292 -211 264 -211 q 339 -200 319 -211 q 358 -165 358 -189 q 342 -131 358 -143 q 302 -115 326 -119 q 249 -114 278 -111 q 196 -122 221 -117 l 224 4 l 311 24 m 24 551 q 38 669 24 614 q 83 767 51 725 q 166 833 114 808 q 296 857 218 857 q 424 833 369 857 q 513 767 479 810 q 561 663 547 724 q 568 528 575 601 l 415 528 l 400 540 q 396 624 400 586 q 381 690 392 663 q 350 733 369 718 q 300 749 331 749 q 217 694 243 749 q 192 544 192 640 l 192 306 q 212 153 192 207 q 292 100 232 100 q 343 117 322 100 q 376 160 364 133 q 394 224 389 188 q 400 297 400 260 l 415 311 l 568 293 q 557 172 572 228 q 508 75 542 115 q 421 12 474 35 q 296 -11 368 -11 q 165 14 218 -11 q 81 81 113 39 q 37 180 50 124 q 24 299 24 236 l 24 551 z "},"È":{"ha":533,"x_min":14,"x_max":519,"o":"m 379 658 l 379 701 l 226 701 l 226 479 l 404 479 l 404 360 l 226 360 l 226 135 l 385 135 l 385 178 l 519 178 l 519 0 l 14 0 l 14 135 l 57 135 l 57 701 l 14 701 l 14 836 l 57 836 l 514 836 l 514 658 l 379 658 m 419 918 l 117 960 l 89 1094 l 117 1113 l 444 981 l 419 918 z "},"è":{"ha":568,"x_min":24,"x_max":536,"o":"m 389 225 l 533 206 q 515 130 531 168 q 468 60 499 92 q 392 10 438 29 q 285 -10 347 -10 q 157 14 207 -10 q 77 76 107 38 q 35 165 47 115 q 24 265 24 214 l 24 394 q 35 492 24 444 q 76 578 47 540 q 156 640 106 617 q 285 664 207 664 q 403 642 356 664 q 481 583 451 621 q 524 495 511 546 q 536 386 536 444 l 536 307 l 524 294 l 193 294 l 193 274 q 210 140 193 181 q 285 100 228 100 q 344 130 329 100 q 365 217 360 160 l 389 225 m 285 556 q 210 515 228 556 q 193 388 193 475 l 193 382 l 367 382 l 367 385 l 367 428 q 350 524 367 493 q 285 556 333 556 m 436 719 l 133 761 l 106 896 l 133 914 l 461 782 l 436 719 z "},"é":{"ha":568,"x_min":24,"x_max":536,"o":"m 389 225 l 533 206 q 515 130 531 168 q 468 60 499 92 q 392 10 438 29 q 285 -10 347 -10 q 157 14 207 -10 q 77 76 107 38 q 35 165 47 115 q 24 265 24 214 l 24 394 q 35 492 24 444 q 76 578 47 540 q 156 640 106 617 q 285 664 207 664 q 403 642 356 664 q 481 583 451 621 q 524 495 511 546 q 536 386 536 444 l 536 307 l 524 294 l 193 294 l 193 274 q 210 140 193 181 q 285 100 228 100 q 344 130 329 100 q 365 217 360 160 l 389 225 m 285 556 q 210 515 228 556 q 193 388 193 475 l 193 382 l 367 382 l 367 385 l 367 428 q 350 524 367 493 q 285 556 333 556 m 106 782 l 432 914 l 461 896 l 433 761 l 129 719 l 106 782 z "},"ê":{"ha":568,"x_min":24,"x_max":536,"o":"m 389 225 l 533 206 q 515 130 531 168 q 468 60 499 92 q 392 10 438 29 q 285 -10 347 -10 q 157 14 207 -10 q 77 76 107 38 q 35 165 47 115 q 24 265 24 214 l 24 394 q 35 492 24 444 q 76 578 47 540 q 156 640 106 617 q 285 664 207 664 q 403 642 356 664 q 481 583 451 621 q 524 495 511 546 q 536 386 536 444 l 536 307 l 524 294 l 193 294 l 193 274 q 210 140 193 181 q 285 100 228 100 q 344 130 329 100 q 365 217 360 160 l 389 225 m 285 556 q 210 515 228 556 q 193 388 193 475 l 193 382 l 367 382 l 367 385 l 367 428 q 350 524 367 493 q 285 556 333 556 m 88 742 l 218 939 l 350 939 l 478 742 l 357 742 l 285 847 l 207 742 l 88 742 z "},"ë":{"ha":568,"x_min":24,"x_max":536,"o":"m 389 225 l 533 206 q 515 130 531 168 q 468 60 499 92 q 392 10 438 29 q 285 -10 347 -10 q 157 14 207 -10 q 77 76 107 38 q 35 165 47 115 q 24 265 24 214 l 24 394 q 35 492 24 444 q 76 578 47 540 q 156 640 106 617 q 285 664 207 664 q 403 642 356 664 q 481 583 451 621 q 524 495 511 546 q 536 386 536 444 l 536 307 l 524 294 l 193 294 l 193 274 q 210 140 193 181 q 285 100 228 100 q 344 130 329 100 q 365 217 360 160 l 389 225 m 285 556 q 210 515 228 556 q 193 388 193 475 l 193 382 l 367 382 l 367 385 l 367 428 q 350 524 367 493 q 285 556 333 556 m 478 825 q 452 763 478 789 q 390 738 426 738 q 329 763 354 738 q 304 825 304 789 q 329 887 304 861 q 390 913 354 913 q 452 887 426 913 q 478 825 478 861 m 261 825 q 235 763 261 789 q 174 738 210 738 q 113 763 138 738 q 88 825 88 789 q 113 887 88 861 q 174 913 138 913 q 235 887 210 913 q 261 825 261 861 z "},"ì":{"ha":267,"x_min":-44,"x_max":311,"o":"m 1 638 l 214 638 l 214 135 l 257 135 l 257 0 l 1 0 l 1 135 l 44 135 l 44 503 l 1 503 l 1 638 m 286 719 l -17 761 l -44 896 l -17 914 l 311 782 l 286 719 z "},"í":{"ha":267,"x_min":-44,"x_max":311,"o":"m 1 638 l 214 638 l 214 135 l 257 135 l 257 0 l 1 0 l 1 135 l 44 135 l 44 503 l 1 503 l 1 638 m -44 782 l 282 914 l 311 896 l 283 761 l -21 719 l -44 782 z "},"Í":{"ha":271,"x_min":-42,"x_max":314,"o":"m 14 836 l 226 836 l 226 135 l 269 135 l 269 0 l 14 0 l 14 135 l 57 135 l 57 701 l 14 701 l 14 836 m 226 836 l 269 836 l 269 701 l 226 701 l 226 836 m -42 981 l 285 1113 l 314 1094 l 286 960 l -18 918 l -42 981 z "},"Ì":{"ha":271,"x_min":-42,"x_max":314,"o":"m 14 836 l 226 836 l 226 135 l 269 135 l 269 0 l 14 0 l 14 135 l 57 135 l 57 701 l 14 701 l 14 836 m 226 836 l 269 836 l 269 701 l 226 701 l 226 836 m 289 918 l -14 960 l -42 1094 l -14 1113 l 314 981 l 289 918 z "},"Ë":{"ha":533,"x_min":14,"x_max":519,"o":"m 379 658 l 379 701 l 226 701 l 226 479 l 404 479 l 404 360 l 226 360 l 226 135 l 385 135 l 385 178 l 519 178 l 519 0 l 14 0 l 14 135 l 57 135 l 57 701 l 14 701 l 14 836 l 57 836 l 514 836 l 514 658 l 379 658 m 461 1024 q 435 962 461 988 q 374 936 410 936 q 313 962 338 936 q 288 1024 288 988 q 313 1085 288 1060 q 374 1111 338 1111 q 435 1085 410 1111 q 461 1024 461 1060 m 244 1024 q 219 962 244 988 q 157 936 193 936 q 96 962 121 936 q 71 1024 71 988 q 96 1085 71 1060 q 157 1111 121 1111 q 219 1085 193 1111 q 244 1024 244 1060 z "},"Ê":{"ha":533,"x_min":14,"x_max":519,"o":"m 379 658 l 379 701 l 226 701 l 226 479 l 404 479 l 404 360 l 226 360 l 226 135 l 385 135 l 385 178 l 519 178 l 519 0 l 14 0 l 14 135 l 57 135 l 57 701 l 14 701 l 14 836 l 57 836 l 514 836 l 514 658 l 379 658 m 71 940 l 201 1138 l 333 1138 l 461 940 l 340 940 l 268 1046 l 190 940 l 71 940 z "},"É":{"ha":533,"x_min":14,"x_max":519,"o":"m 379 658 l 379 701 l 226 701 l 226 479 l 404 479 l 404 360 l 226 360 l 226 135 l 385 135 l 385 178 l 519 178 l 519 0 l 14 0 l 14 135 l 57 135 l 57 701 l 14 701 l 14 836 l 57 836 l 514 836 l 514 658 l 379 658 m 89 981 l 415 1113 l 444 1094 l 417 960 l 113 918 l 89 981 z "},"Ą":{"ha":614,"x_min":-14,"x_max":628,"o":"m 568 6 q 547 -17 560 -3 q 523 -45 535 -31 q 500 -73 511 -60 q 482 -93 489 -86 q 452 -144 457 -121 q 458 -181 447 -167 q 494 -199 469 -194 q 554 -192 519 -203 l 554 -261 q 405 -283 463 -292 q 325 -242 347 -274 q 318 -165 303 -211 q 388 -78 333 -119 q 442 -37 415 -56 q 493 1 468 -18 l 568 6 m 386 122 l 418 122 l 393 203 l 206 203 l 183 122 l 226 122 l 226 0 l -14 0 l -14 135 l 28 135 l 206 836 l 386 836 l 583 135 l 628 135 l 628 0 l 386 0 l 386 122 m 225 303 l 369 303 l 339 397 l 293 660 l 253 397 l 225 303 z "},"Ľ":{"ha":485,"x_min":14,"x_max":553,"o":"m 226 135 l 347 135 l 347 178 l 482 178 l 482 0 l 14 0 l 14 135 l 57 135 l 57 701 l 14 701 l 14 836 l 226 836 l 269 836 l 269 701 l 226 701 l 226 135 m 404 651 q 357 733 360 678 q 360 760 357 747 q 369 783 364 772 q 404 819 382 806 q 456 833 426 833 q 524 804 496 833 q 553 735 553 775 q 548 705 553 719 q 536 679 543 690 l 457 567 l 383 567 l 404 651 z "},"Ś":{"ha":576,"x_min":19,"x_max":544,"o":"m 194 636 q 210 579 194 604 q 251 533 225 554 q 308 492 276 513 q 374 451 340 472 q 436 409 406 432 q 491 358 467 386 q 530 295 515 331 q 544 214 544 260 q 532 137 544 176 q 490 65 519 97 q 411 10 461 32 q 286 -11 361 -11 q 165 11 217 -11 q 79 74 113 33 q 33 172 46 114 q 28 299 19 229 l 185 299 l 199 283 q 198 223 196 256 q 209 163 200 190 q 235 116 218 135 q 282 97 253 97 q 355 129 335 97 q 375 201 375 161 q 361 256 375 232 q 324 301 347 281 q 270 338 300 321 q 208 375 240 356 q 142 419 175 396 q 84 472 110 442 q 42 539 58 501 q 26 626 26 576 q 42 717 26 675 q 89 790 57 758 q 169 838 121 821 q 286 856 218 856 q 417 831 365 856 q 497 764 468 806 q 534 670 525 722 q 538 564 543 618 l 397 543 l 375 557 q 363 695 386 644 q 286 746 340 746 q 217 716 239 746 q 194 636 194 686 m 110 981 l 436 1113 l 465 1094 l 438 960 l 133 918 l 110 981 z "},"Ş":{"ha":576,"x_min":19,"x_max":544,"o":"m 299 21 l 276 -60 q 340 -60 310 -54 q 394 -82 371 -65 q 428 -124 417 -99 q 436 -185 440 -150 q 398 -270 431 -239 q 320 -310 365 -301 q 224 -305 275 -318 q 131 -256 174 -292 l 161 -168 q 219 -200 188 -189 q 279 -211 251 -211 q 326 -200 307 -211 q 346 -165 346 -189 q 331 -131 346 -143 q 291 -115 315 -119 q 238 -114 267 -111 q 183 -122 208 -117 l 210 -1 l 299 21 m 194 636 q 210 579 194 604 q 251 533 225 554 q 308 492 276 513 q 374 451 340 472 q 436 409 406 432 q 491 358 467 386 q 530 295 515 331 q 544 214 544 260 q 532 137 544 176 q 490 65 519 97 q 411 10 461 32 q 286 -11 361 -11 q 165 11 217 -11 q 79 74 113 33 q 33 172 46 114 q 28 299 19 229 l 185 299 l 199 283 q 198 223 196 256 q 209 163 200 190 q 235 116 218 135 q 282 97 253 97 q 355 129 335 97 q 375 201 375 161 q 361 256 375 232 q 324 301 347 281 q 270 338 300 321 q 208 375 240 356 q 142 419 175 396 q 84 472 110 442 q 42 539 58 501 q 26 626 26 576 q 42 717 26 675 q 89 790 57 758 q 169 838 121 821 q 286 856 218 856 q 417 831 365 856 q 497 764 468 806 q 534 670 525 722 q 538 564 543 618 l 397 543 l 375 557 q 363 695 386 644 q 286 746 340 746 q 217 716 239 746 q 194 636 194 686 z "},"Ť":{"ha":535,"x_min":0,"x_max":535,"o":"m 431 658 l 431 701 l 351 701 l 351 135 l 394 135 l 394 0 l 139 0 l 139 135 l 182 135 l 182 701 l 103 701 l 103 658 l 0 658 l 0 836 l 535 836 l 535 658 l 431 658 m 192 1138 l 269 1032 l 342 1138 l 463 1138 l 335 940 l 203 940 l 72 1138 l 192 1138 z "},"Ź":{"ha":426,"x_min":-11,"x_max":450,"o":"m -11 671 l -11 836 l 450 836 l 450 754 l 179 124 l 307 124 l 307 167 l 429 167 l 429 0 l -11 0 l -11 82 l 263 714 l 124 714 l 124 671 l -11 671 m 35 981 l 361 1113 l 390 1094 l 363 960 l 58 918 l 35 981 z "},"­":{"ha":371,"x_min":38,"x_max":325,"o":"m 325 256 l 38 256 l 38 374 l 325 374 l 325 256 z "},"Ż":{"ha":426,"x_min":-11,"x_max":450,"o":"m -11 671 l -11 836 l 450 836 l 450 754 l 179 124 l 307 124 l 307 167 l 429 167 l 429 0 l -11 0 l -11 82 l 263 714 l 124 714 l 124 671 l -11 671 m 318 1013 q 287 938 318 968 q 213 907 256 907 q 137 938 168 907 q 106 1013 106 968 q 137 1088 106 1057 q 213 1118 168 1118 q 287 1088 256 1118 q 318 1013 318 1057 z "},"ą":{"ha":625,"x_min":24,"x_max":610,"o":"m 568 13 l 508 -49 q 485 -72 496 -60 q 465 -93 475 -83 q 435 -144 440 -121 q 442 -181 431 -167 q 478 -199 453 -194 q 538 -192 503 -203 l 538 -261 q 388 -283 446 -292 q 308 -242 331 -274 q 301 -165 286 -211 q 371 -78 317 -119 q 426 -36 399 -56 q 478 3 453 -17 l 568 13 m 567 135 l 610 135 l 610 0 l 417 0 q 409 41 414 21 q 401 82 404 61 q 320 13 371 36 q 203 -10 269 -10 q 113 14 147 -10 q 58 77 78 38 q 31 170 38 117 q 24 285 24 224 l 24 360 q 31 488 24 431 q 58 584 38 544 q 119 645 79 624 q 224 667 158 667 q 335 641 290 667 q 407 569 381 615 q 413 603 410 586 q 418 638 415 621 l 567 638 l 610 638 l 610 503 l 567 503 l 567 135 m 193 285 q 197 222 193 251 q 211 169 200 192 q 242 134 222 147 q 294 121 261 121 q 348 132 328 121 q 380 160 368 143 q 395 199 392 178 q 399 240 399 221 l 399 401 q 396 446 399 422 q 383 490 393 469 q 351 522 372 510 q 294 535 331 535 q 242 524 261 535 q 211 492 222 514 q 197 438 200 471 q 193 360 193 404 l 193 285 z "},"ľ":{"ha":469,"x_min":14,"x_max":468,"o":"m 14 928 l 226 928 l 226 135 l 269 135 l 269 0 l 14 0 l 14 135 l 57 135 l 57 793 l 14 793 l 14 928 m 319 675 q 272 757 275 701 q 276 783 272 771 q 285 807 279 796 q 319 843 297 829 q 371 857 342 857 q 440 828 411 857 q 468 758 468 799 q 463 728 468 743 q 451 703 458 714 l 372 590 l 299 590 l 319 675 z "},"ś":{"ha":567,"x_min":17,"x_max":536,"o":"m 199 479 q 214 431 199 450 q 253 398 229 411 q 310 375 278 385 q 375 354 342 365 q 434 332 406 344 q 485 301 463 319 q 522 255 508 282 q 536 189 536 228 q 522 117 536 153 q 477 53 508 81 q 396 8 446 25 q 274 -10 346 -10 q 163 7 211 -10 q 81 55 114 24 q 32 131 47 86 q 22 231 17 175 l 178 231 l 193 215 q 204 131 189 165 q 274 97 219 97 q 346 119 326 97 q 365 176 365 140 q 353 221 365 203 q 319 253 340 239 q 271 277 299 267 q 214 299 243 288 q 150 322 182 310 q 93 353 118 335 q 51 396 68 371 q 32 457 35 421 q 42 537 28 499 q 88 603 56 575 q 169 647 119 631 q 286 664 218 664 q 463 610 400 664 q 524 461 525 556 l 382 440 l 360 454 q 344 527 358 500 q 281 554 331 554 q 216 532 233 554 q 199 479 199 510 m 106 782 l 432 914 l 461 896 l 433 761 l 129 719 l 106 782 z "},"ş":{"ha":567,"x_min":17,"x_max":536,"o":"m 294 21 l 272 -60 q 336 -60 306 -54 q 389 -82 367 -65 q 423 -124 411 -99 q 431 -185 435 -150 q 392 -270 425 -239 q 315 -310 360 -301 q 219 -305 269 -318 q 126 -256 168 -292 l 157 -168 q 215 -200 183 -189 q 275 -211 247 -211 q 322 -200 303 -211 q 342 -165 342 -189 q 326 -131 342 -143 q 285 -115 310 -119 q 233 -114 261 -111 q 179 -122 204 -117 l 206 1 l 294 21 m 199 479 q 214 431 199 450 q 253 398 229 411 q 310 375 278 385 q 375 354 342 365 q 434 332 406 344 q 485 301 463 319 q 522 255 508 282 q 536 189 536 228 q 522 117 536 153 q 477 53 508 81 q 396 8 446 25 q 274 -10 346 -10 q 163 7 211 -10 q 81 55 114 24 q 32 131 47 86 q 22 231 17 175 l 178 231 l 193 215 q 204 131 189 165 q 274 97 219 97 q 346 119 326 97 q 365 176 365 140 q 353 221 365 203 q 319 253 340 239 q 271 277 299 267 q 214 299 243 288 q 150 322 182 310 q 93 353 118 335 q 51 396 68 371 q 32 457 35 421 q 42 537 28 499 q 88 603 56 575 q 169 647 119 631 q 286 664 218 664 q 463 610 400 664 q 524 461 525 556 l 382 440 l 360 454 q 344 527 358 500 q 281 554 331 554 q 216 532 233 554 q 199 479 199 510 z "},"ť":{"ha":526,"x_min":3,"x_max":540,"o":"m 232 526 l 232 249 q 235 183 232 208 q 248 144 239 158 q 272 126 257 131 q 313 122 288 121 l 313 -1 q 124 26 186 -33 q 63 254 63 85 l 63 526 l 3 526 l 3 638 l 63 638 l 63 792 l 194 822 l 232 822 l 232 638 l 313 638 l 313 526 l 232 526 m 392 675 q 344 757 347 701 q 348 783 344 771 q 357 807 351 796 q 392 843 369 829 q 443 857 414 857 q 512 828 483 857 q 540 758 540 799 q 535 728 540 743 q 524 703 531 714 l 444 590 l 371 590 l 392 675 z "},"ź":{"ha":451,"x_min":10,"x_max":440,"o":"m 10 474 l 10 639 l 440 639 l 440 557 l 204 124 l 331 124 l 331 167 l 440 167 l 440 0 l 10 0 l 10 82 l 261 517 l 119 517 l 119 474 l 10 474 m 49 782 l 375 914 l 404 896 l 376 761 l 72 719 l 49 782 z "},"ż":{"ha":451,"x_min":10,"x_max":440,"o":"m 10 474 l 10 639 l 440 639 l 440 557 l 204 124 l 331 124 l 331 167 l 440 167 l 440 0 l 10 0 l 10 82 l 261 517 l 119 517 l 119 474 l 10 474 m 332 814 q 301 739 332 769 q 226 708 269 708 q 151 739 182 708 q 119 814 119 769 q 151 889 119 858 q 226 919 182 919 q 301 889 269 919 q 332 814 332 858 z "},"Ŕ":{"ha":632,"x_min":14,"x_max":618,"o":"m 14 836 l 57 836 l 311 836 q 442 821 389 836 q 529 776 496 806 q 577 706 563 747 q 592 613 592 664 q 556 466 592 531 q 431 375 519 401 l 475 331 l 554 135 l 618 135 l 618 0 l 433 0 l 336 263 q 293 331 318 307 q 226 361 256 364 l 226 135 l 269 135 l 269 0 l 14 0 l 14 135 l 57 135 l 57 701 l 14 701 l 14 836 m 226 721 l 226 461 l 318 461 q 364 473 344 461 q 397 503 383 485 q 416 547 410 522 q 422 597 422 572 q 396 684 422 647 q 311 721 369 721 l 226 721 m 139 981 l 465 1113 l 494 1094 l 467 960 l 163 918 l 139 981 z "},"Ă":{"ha":614,"x_min":-14,"x_max":628,"o":"m 386 122 l 418 122 l 393 203 l 206 203 l 183 122 l 226 122 l 226 0 l -14 0 l -14 135 l 28 135 l 206 836 l 386 836 l 583 135 l 628 135 l 628 0 l 386 0 l 386 122 m 225 303 l 369 303 l 339 397 l 293 660 l 253 397 l 225 303 m 492 1128 q 478 1055 492 1089 q 439 995 464 1021 q 381 955 414 969 q 308 940 347 940 q 235 955 269 940 q 176 994 201 969 q 136 1053 151 1019 q 121 1125 121 1086 l 210 1126 q 238 1057 210 1086 q 307 1028 265 1028 q 376 1057 347 1028 q 404 1126 404 1086 l 492 1128 z "},"Ĺ":{"ha":485,"x_min":14,"x_max":482,"o":"m 226 135 l 347 135 l 347 178 l 482 178 l 482 0 l 14 0 l 14 135 l 57 135 l 57 701 l 14 701 l 14 836 l 226 836 l 269 836 l 269 701 l 226 701 l 226 135 m 64 981 l 390 1113 l 419 1094 l 392 960 l 88 918 l 64 981 z "},"Ć":{"ha":600,"x_min":24,"x_max":575,"o":"m 24 551 q 38 669 24 614 q 83 767 51 725 q 166 833 114 808 q 296 857 218 857 q 424 833 369 857 q 513 767 479 810 q 561 663 547 724 q 568 528 575 601 l 415 528 l 400 540 q 396 624 400 586 q 381 690 392 663 q 350 733 369 718 q 300 749 331 749 q 217 694 243 749 q 192 544 192 640 l 192 306 q 212 153 192 207 q 292 100 232 100 q 343 117 322 100 q 376 160 364 133 q 394 224 389 188 q 400 297 400 260 l 415 311 l 568 293 q 557 172 572 228 q 508 75 542 115 q 421 12 474 35 q 296 -11 368 -11 q 165 14 218 -11 q 81 81 113 39 q 37 180 50 124 q 24 299 24 236 l 24 551 m 122 981 l 449 1113 l 478 1094 l 450 960 l 146 918 l 122 981 z "},"Ę":{"ha":533,"x_min":14,"x_max":519,"o":"m 438 -22 q 397 -62 418 -42 q 365 -99 376 -82 q 340 -147 343 -125 q 348 -181 336 -168 q 384 -198 360 -194 q 442 -192 408 -201 l 442 -261 q 292 -283 350 -292 q 213 -242 235 -274 q 206 -165 192 -211 q 275 -78 221 -119 q 331 -36 303 -56 q 383 3 358 -17 l 438 -22 m 379 658 l 379 701 l 226 701 l 226 479 l 404 479 l 404 360 l 226 360 l 226 135 l 385 135 l 385 178 l 519 178 l 519 0 l 14 0 l 14 135 l 57 135 l 57 701 l 14 701 l 14 836 l 57 836 l 514 836 l 514 658 l 379 658 z "},"Č":{"ha":600,"x_min":24,"x_max":575,"o":"m 24 551 q 38 669 24 614 q 83 767 51 725 q 166 833 114 808 q 296 857 218 857 q 424 833 369 857 q 513 767 479 810 q 561 663 547 724 q 568 528 575 601 l 415 528 l 400 540 q 396 624 400 586 q 381 690 392 663 q 350 733 369 718 q 300 749 331 749 q 217 694 243 749 q 192 544 192 640 l 192 306 q 212 153 192 207 q 292 100 232 100 q 343 117 322 100 q 376 160 364 133 q 394 224 389 188 q 400 297 400 260 l 415 311 l 568 293 q 557 172 572 228 q 508 75 542 115 q 421 12 474 35 q 296 -11 368 -11 q 165 14 218 -11 q 81 81 113 39 q 37 180 50 124 q 24 299 24 236 l 24 551 m 224 1138 l 301 1032 l 374 1138 l 494 1138 l 367 940 l 235 940 l 104 1138 l 224 1138 z "},"Ě":{"ha":533,"x_min":14,"x_max":519,"o":"m 379 658 l 379 701 l 226 701 l 226 479 l 404 479 l 404 360 l 226 360 l 226 135 l 385 135 l 385 178 l 519 178 l 519 0 l 14 0 l 14 135 l 57 135 l 57 701 l 14 701 l 14 836 l 57 836 l 514 836 l 514 658 l 379 658 m 190 1138 l 268 1032 l 340 1138 l 461 1138 l 333 940 l 201 940 l 71 1138 l 190 1138 z "},"Ď":{"ha":633,"x_min":14,"x_max":603,"o":"m 14 836 l 314 836 q 461 808 404 836 q 549 725 518 779 q 592 593 581 671 q 603 418 603 515 q 592 244 603 322 q 549 113 581 167 q 460 29 517 58 q 314 0 404 0 l 14 0 l 14 135 l 57 135 l 57 701 l 14 701 l 14 836 m 226 722 l 226 114 l 308 114 q 374 136 349 114 q 412 199 399 158 q 429 294 425 239 q 433 418 433 350 q 431 541 433 485 q 418 638 429 597 q 383 700 407 678 q 318 722 360 722 l 226 722 m 240 1138 l 318 1032 l 390 1138 l 511 1138 l 383 940 l 251 940 l 121 1138 l 240 1138 z "},"Đ":{"ha":633,"x_min":10,"x_max":603,"o":"m 14 836 l 314 836 q 461 808 404 836 q 549 725 518 779 q 592 593 581 671 q 603 418 603 515 q 592 244 603 322 q 549 113 581 167 q 460 29 517 58 q 314 0 404 0 l 14 0 l 14 135 l 57 135 l 57 701 l 14 701 l 14 836 m 226 722 l 226 114 l 308 114 q 374 136 349 114 q 412 199 399 158 q 429 294 425 239 q 433 418 433 350 q 431 541 433 485 q 418 638 429 597 q 383 700 407 678 q 318 722 360 722 l 226 722 m 401 356 l 10 356 l 10 464 l 401 464 l 401 356 z "},"Ń":{"ha":647,"x_min":14,"x_max":633,"o":"m 378 836 l 590 836 l 590 0 l 451 0 l 194 539 q 203 503 199 521 q 210 468 207 486 l 226 297 l 226 135 l 269 135 l 269 0 l 14 0 l 14 135 l 57 135 l 57 701 l 14 701 l 14 836 l 196 836 l 453 294 q 444 331 449 313 q 436 369 439 350 l 421 526 l 421 701 l 378 701 l 378 836 m 590 836 l 633 836 l 633 701 l 590 701 l 590 836 m 146 981 l 472 1113 l 501 1094 l 474 960 l 169 918 l 146 981 z "},"Ň":{"ha":647,"x_min":14,"x_max":633,"o":"m 378 836 l 590 836 l 590 0 l 451 0 l 194 539 q 203 503 199 521 q 210 468 207 486 l 226 297 l 226 135 l 269 135 l 269 0 l 14 0 l 14 135 l 57 135 l 57 701 l 14 701 l 14 836 l 196 836 l 453 294 q 444 331 449 313 q 436 369 439 350 l 421 526 l 421 701 l 378 701 l 378 836 m 590 836 l 633 836 l 633 701 l 590 701 l 590 836 m 247 1138 l 325 1032 l 397 1138 l 518 1138 l 390 940 l 258 940 l 128 1138 l 247 1138 z "},"Ő":{"ha":613,"x_min":24,"x_max":611,"o":"m 297 856 q 438 826 382 856 q 524 741 493 797 q 568 603 556 685 q 581 418 581 522 q 569 239 581 318 q 526 104 557 160 q 440 19 494 49 q 297 -11 385 -11 q 156 19 210 -11 q 73 103 103 49 q 33 238 43 158 q 24 418 24 318 q 34 603 24 522 q 75 741 44 685 q 158 826 106 797 q 297 856 211 856 m 413 418 q 410 551 413 492 q 396 653 407 611 q 363 719 385 696 q 304 742 342 742 q 244 719 267 742 q 208 653 221 696 q 192 551 196 611 q 188 418 188 492 q 191 291 188 349 q 206 192 194 233 q 240 126 217 150 q 303 103 263 103 q 365 127 343 103 q 398 194 388 151 q 410 294 408 236 q 413 418 413 351 m 107 994 l 390 1206 l 422 1196 l 431 1058 l 149 940 l 107 994 m 289 994 l 571 1206 l 604 1196 l 611 1060 l 329 942 l 289 994 z "},"Ř":{"ha":632,"x_min":14,"x_max":618,"o":"m 14 836 l 57 836 l 311 836 q 442 821 389 836 q 529 776 496 806 q 577 706 563 747 q 592 613 592 664 q 556 466 592 531 q 431 375 519 401 l 475 331 l 554 135 l 618 135 l 618 0 l 433 0 l 336 263 q 293 331 318 307 q 226 361 256 364 l 226 135 l 269 135 l 269 0 l 14 0 l 14 135 l 57 135 l 57 701 l 14 701 l 14 836 m 226 721 l 226 461 l 318 461 q 364 473 344 461 q 397 503 383 485 q 416 547 410 522 q 422 597 422 572 q 396 684 422 647 q 311 721 369 721 l 226 721 m 240 1138 l 318 1032 l 390 1138 l 511 1138 l 383 940 l 251 940 l 121 1138 l 240 1138 z "},"Ů":{"ha":628,"x_min":14,"x_max":614,"o":"m 365 836 l 614 836 l 614 701 l 571 701 l 571 385 q 564 210 571 285 q 531 87 557 136 q 452 13 504 38 q 308 -11 400 -11 q 168 13 218 -11 q 93 87 118 38 q 63 210 68 136 q 57 385 57 285 l 57 701 l 14 701 l 14 836 l 58 836 l 257 836 l 257 701 l 219 701 l 219 347 q 222 248 219 293 q 235 171 225 203 q 264 121 246 139 q 314 103 282 103 q 363 122 346 103 q 389 173 381 140 q 399 250 397 206 q 401 347 401 294 l 401 701 l 365 701 l 365 836 m 313 1200 q 370 1189 343 1200 q 417 1158 397 1178 q 449 1112 438 1139 q 461 1054 461 1085 q 450 997 461 1024 q 419 951 439 971 q 372 919 399 931 q 315 907 346 907 q 258 918 285 907 q 210 949 231 929 q 178 994 190 968 q 165 1051 165 1021 q 177 1109 165 1082 q 209 1156 189 1136 q 256 1188 229 1176 q 313 1200 282 1200 m 314 963 q 378 989 351 963 q 406 1053 406 1015 q 378 1118 406 1092 q 314 1144 351 1144 q 249 1118 276 1144 q 222 1053 222 1092 q 249 989 222 1015 q 314 963 276 963 z "},"Ű":{"ha":628,"x_min":14,"x_max":614,"o":"m 365 836 l 614 836 l 614 701 l 571 701 l 571 385 q 564 210 571 285 q 531 87 557 136 q 452 13 504 38 q 308 -11 400 -11 q 168 13 218 -11 q 93 87 118 38 q 63 210 68 136 q 57 385 57 285 l 57 701 l 14 701 l 14 836 l 58 836 l 257 836 l 257 701 l 219 701 l 219 347 q 222 248 219 293 q 235 171 225 203 q 264 121 246 139 q 314 103 282 103 q 363 122 346 103 q 389 173 381 140 q 399 250 397 206 q 401 347 401 294 l 401 701 l 365 701 l 365 836 m 103 994 l 386 1206 l 418 1196 l 426 1058 l 144 940 l 103 994 m 285 994 l 567 1206 l 600 1196 l 607 1060 l 325 942 l 285 994 z "},"ű":{"ha":658,"x_min":14,"x_max":644,"o":"m 268 503 l 225 503 l 225 285 q 228 202 225 235 q 242 149 232 169 q 273 122 253 129 q 325 114 293 114 q 376 125 356 114 q 409 153 397 136 q 426 193 421 171 q 432 238 431 215 l 432 503 l 389 503 l 389 638 l 644 638 l 644 503 l 601 503 l 601 135 l 644 135 l 644 0 l 454 0 q 448 43 451 21 q 442 86 444 65 q 387 26 421 50 q 308 -6 353 1 q 250 -11 285 -11 q 164 4 200 -10 q 103 50 128 18 q 68 134 79 82 q 57 261 57 186 l 57 503 l 14 503 l 14 638 l 57 638 l 268 638 l 268 503 m 140 796 l 424 1007 l 456 997 l 464 860 l 182 742 l 140 796 m 322 796 l 604 1007 l 638 997 l 644 861 l 363 743 l 322 796 z "},"ů":{"ha":658,"x_min":14,"x_max":644,"o":"m 268 503 l 225 503 l 225 285 q 228 202 225 235 q 242 149 232 169 q 273 122 253 129 q 325 114 293 114 q 376 125 356 114 q 409 153 397 136 q 426 193 421 171 q 432 238 431 215 l 432 503 l 389 503 l 389 638 l 644 638 l 644 503 l 601 503 l 601 135 l 644 135 l 644 0 l 454 0 q 448 43 451 21 q 442 86 444 65 q 387 26 421 50 q 308 -6 353 1 q 250 -11 285 -11 q 164 4 200 -10 q 103 50 128 18 q 68 134 79 82 q 57 261 57 186 l 57 503 l 14 503 l 14 638 l 57 638 l 268 638 l 268 503 m 328 1001 q 385 990 358 1001 q 433 960 413 979 q 465 913 453 940 q 476 856 476 886 q 465 799 476 825 q 434 752 454 772 q 388 720 414 732 q 331 708 361 708 q 273 719 300 708 q 226 750 246 731 q 193 796 206 769 q 181 853 181 822 q 192 910 181 883 q 224 958 204 938 q 271 990 244 978 q 328 1001 297 1001 m 329 764 q 394 790 367 764 q 421 854 421 817 q 394 919 421 893 q 329 946 367 946 q 265 919 292 946 q 238 854 238 893 q 265 790 238 817 q 329 764 292 764 z "},"ř":{"ha":408,"x_min":8,"x_max":401,"o":"m 14 638 l 57 638 l 204 638 q 212 598 208 618 q 218 558 215 578 q 272 647 232 615 q 356 678 311 679 q 401 665 381 678 l 401 501 l 378 483 q 301 506 347 522 q 243 451 260 490 q 226 368 226 411 l 226 135 l 269 135 l 269 0 l 14 0 l 14 135 l 57 135 l 57 503 l 14 503 l 14 638 m 128 939 l 206 833 l 278 939 l 399 939 l 271 742 l 139 742 l 8 939 l 128 939 z "},"ő":{"ha":601,"x_min":24,"x_max":606,"o":"m 296 667 q 426 647 374 667 q 510 590 478 626 q 556 503 542 554 q 569 392 569 453 l 569 265 q 556 153 569 204 q 510 67 542 103 q 426 10 478 31 q 296 -10 374 -10 q 166 10 218 -10 q 83 67 114 31 q 38 153 51 103 q 24 265 24 204 l 24 392 q 38 503 24 453 q 83 590 51 554 q 166 647 114 626 q 296 667 218 667 m 401 385 q 378 515 401 474 q 296 557 354 557 q 216 515 239 557 q 193 385 193 474 l 193 272 q 216 142 193 183 q 296 100 239 100 q 378 142 354 100 q 401 272 401 183 l 401 385 m 101 796 l 385 1007 l 417 997 l 425 860 l 143 742 l 101 796 m 283 796 l 565 1007 l 599 997 l 606 861 l 324 743 l 283 796 z "},"ň":{"ha":657,"x_min":14,"x_max":643,"o":"m 388 135 l 431 135 l 431 401 q 410 504 431 474 q 326 535 390 535 q 276 524 296 535 q 246 497 257 514 q 231 459 235 481 q 226 415 226 438 l 226 135 l 269 135 l 269 0 l 14 0 l 14 135 l 57 135 l 57 503 l 14 503 l 14 638 l 204 638 q 212 599 208 618 q 219 560 215 579 q 258 611 235 589 q 313 644 282 633 q 429 665 363 668 q 526 645 492 664 q 576 592 560 626 q 597 510 593 558 q 600 401 600 461 l 600 135 l 643 135 l 643 0 l 388 0 l 388 135 m 253 939 l 331 833 l 403 939 l 524 939 l 396 742 l 264 742 l 133 939 l 253 939 z "},"ń":{"ha":657,"x_min":14,"x_max":643,"o":"m 388 135 l 431 135 l 431 401 q 410 504 431 474 q 326 535 390 535 q 276 524 296 535 q 246 497 257 514 q 231 459 235 481 q 226 415 226 438 l 226 135 l 269 135 l 269 0 l 14 0 l 14 135 l 57 135 l 57 503 l 14 503 l 14 638 l 204 638 q 212 599 208 618 q 219 560 215 579 q 258 611 235 589 q 313 644 282 633 q 429 665 363 668 q 526 645 492 664 q 576 592 560 626 q 597 510 593 558 q 600 401 600 461 l 600 135 l 643 135 l 643 0 l 388 0 l 388 135 m 151 782 l 478 914 l 507 896 l 479 761 l 175 719 l 151 782 z "},"đ":{"ha":625,"x_min":24,"x_max":636,"o":"m 364 928 l 567 928 l 567 135 l 610 135 l 610 0 l 417 0 q 409 41 414 21 q 401 82 404 61 q 320 13 371 36 q 203 -10 269 -10 q 113 14 147 -10 q 58 77 78 38 q 31 170 38 117 q 24 285 24 224 l 24 360 q 31 488 24 431 q 58 584 38 544 q 119 645 79 624 q 224 667 158 667 q 335 641 290 667 q 407 569 381 615 l 407 793 l 364 793 l 364 928 m 193 285 q 197 222 193 251 q 211 169 200 192 q 242 134 222 147 q 294 121 261 121 q 348 132 328 121 q 380 160 368 143 q 395 199 392 178 q 399 240 399 221 l 399 401 q 396 446 399 422 q 383 490 393 469 q 351 522 372 510 q 294 535 331 535 q 242 524 261 535 q 211 492 222 514 q 197 438 200 471 q 193 360 193 404 l 193 285 m 636 671 l 333 671 l 333 752 l 636 752 l 636 671 z "},"ď":{"ha":807,"x_min":24,"x_max":814,"o":"m 364 928 l 567 928 l 567 135 l 610 135 l 610 0 l 417 0 q 409 41 414 21 q 401 82 404 61 q 320 13 371 36 q 203 -10 269 -10 q 113 14 147 -10 q 58 77 78 38 q 31 170 38 117 q 24 285 24 224 l 24 360 q 31 488 24 431 q 58 584 38 544 q 119 645 79 624 q 224 667 158 667 q 335 641 290 667 q 407 569 381 615 l 407 793 l 364 793 l 364 928 m 193 285 q 197 222 193 251 q 211 169 200 192 q 242 134 222 147 q 294 121 261 121 q 348 132 328 121 q 380 160 368 143 q 395 199 392 178 q 399 240 399 221 l 399 401 q 396 446 399 422 q 383 490 393 469 q 351 522 372 510 q 294 535 331 535 q 242 524 261 535 q 211 492 222 514 q 197 438 200 471 q 193 360 193 404 l 193 285 m 665 675 q 618 757 621 701 q 622 783 618 771 q 631 807 625 796 q 665 843 643 829 q 717 857 688 857 q 785 828 757 857 q 814 758 814 799 q 809 728 814 743 q 797 703 804 714 l 718 590 l 644 590 l 665 675 z "},"ě":{"ha":568,"x_min":24,"x_max":536,"o":"m 389 225 l 533 206 q 515 130 531 168 q 468 60 499 92 q 392 10 438 29 q 285 -10 347 -10 q 157 14 207 -10 q 77 76 107 38 q 35 165 47 115 q 24 265 24 214 l 24 394 q 35 492 24 444 q 76 578 47 540 q 156 640 106 617 q 285 664 207 664 q 403 642 356 664 q 481 583 451 621 q 524 495 511 546 q 536 386 536 444 l 536 307 l 524 294 l 193 294 l 193 274 q 210 140 193 181 q 285 100 228 100 q 344 130 329 100 q 365 217 360 160 l 389 225 m 285 556 q 210 515 228 556 q 193 388 193 475 l 193 382 l 367 382 l 367 385 l 367 428 q 350 524 367 493 q 285 556 333 556 m 207 939 l 285 833 l 357 939 l 478 939 l 350 742 l 218 742 l 88 939 l 207 939 z "},"ę":{"ha":568,"x_min":24,"x_max":536,"o":"m 467 63 l 388 -18 q 347 -59 368 -37 q 313 -97 325 -81 q 287 -147 290 -125 q 294 -181 283 -168 q 331 -198 306 -194 q 389 -192 356 -201 l 389 -261 q 240 -283 297 -292 q 160 -242 182 -274 q 153 -165 138 -211 q 222 -78 168 -119 q 308 -15 267 -43 q 383 46 349 14 l 467 63 m 389 225 l 533 206 q 515 130 531 168 q 468 60 499 92 q 392 10 438 29 q 285 -10 347 -10 q 157 14 207 -10 q 77 76 107 38 q 35 165 47 115 q 24 265 24 214 l 24 394 q 35 492 24 444 q 76 578 47 540 q 156 640 106 617 q 285 664 207 664 q 403 642 356 664 q 481 583 451 621 q 524 495 511 546 q 536 386 536 444 l 536 307 l 524 294 l 193 294 l 193 274 q 210 140 193 181 q 285 100 228 100 q 344 130 329 100 q 365 217 360 160 l 389 225 m 285 556 q 210 515 228 556 q 193 388 193 475 l 193 382 l 367 382 l 367 385 l 367 428 q 350 524 367 493 q 285 556 333 556 z "},"č":{"ha":568,"x_min":24,"x_max":547,"o":"m 24 394 q 35 504 24 454 q 77 590 47 554 q 157 644 107 625 q 285 664 207 664 q 489 586 431 664 q 533 369 547 508 l 383 369 l 367 383 q 365 462 367 429 q 355 515 363 494 q 331 546 347 536 q 285 556 314 556 q 210 517 228 556 q 193 388 193 479 l 193 272 q 210 138 193 176 q 285 100 228 100 q 351 144 336 100 q 367 264 367 188 l 383 276 l 533 260 q 526 153 538 203 q 485 68 514 104 q 406 11 456 32 q 285 -10 357 -10 q 157 10 207 -10 q 77 65 107 29 q 35 152 47 101 q 24 265 24 203 l 24 394 m 207 939 l 285 833 l 357 939 l 478 939 l 350 742 l 218 742 l 88 939 l 207 939 z "},"ć":{"ha":568,"x_min":24,"x_max":547,"o":"m 24 394 q 35 504 24 454 q 77 590 47 554 q 157 644 107 625 q 285 664 207 664 q 489 586 431 664 q 533 369 547 508 l 383 369 l 367 383 q 365 462 367 429 q 355 515 363 494 q 331 546 347 536 q 285 556 314 556 q 210 517 228 556 q 193 388 193 479 l 193 272 q 210 138 193 176 q 285 100 228 100 q 351 144 336 100 q 367 264 367 188 l 383 276 l 533 260 q 526 153 538 203 q 485 68 514 104 q 406 11 456 32 q 285 -10 357 -10 q 157 10 207 -10 q 77 65 107 29 q 35 152 47 101 q 24 265 24 203 l 24 394 m 106 782 l 432 914 l 461 896 l 433 761 l 129 719 l 106 782 z "},"ĺ":{"ha":283,"x_min":-35,"x_max":321,"o":"m 14 928 l 226 928 l 226 135 l 269 135 l 269 0 l 14 0 l 14 135 l 57 135 l 57 793 l 14 793 l 14 928 m -35 1042 l 292 1174 l 321 1156 l 293 1021 l -11 979 l -35 1042 z "},"ă":{"ha":625,"x_min":24,"x_max":610,"o":"m 567 135 l 610 135 l 610 0 l 417 0 q 409 41 414 21 q 401 82 404 61 q 320 13 371 36 q 203 -10 269 -10 q 113 14 147 -10 q 58 77 78 38 q 31 170 38 117 q 24 285 24 224 l 24 360 q 31 488 24 431 q 58 584 38 544 q 119 645 79 624 q 224 667 158 667 q 335 641 290 667 q 407 569 381 615 q 413 603 410 586 q 418 638 415 621 l 567 638 l 610 638 l 610 503 l 567 503 l 567 135 m 193 285 q 197 222 193 251 q 211 169 200 192 q 242 134 222 147 q 294 121 261 121 q 348 132 328 121 q 380 160 368 143 q 395 199 392 178 q 399 240 399 221 l 399 401 q 396 446 399 422 q 383 490 393 469 q 351 522 372 510 q 294 535 331 535 q 242 524 261 535 q 211 492 222 514 q 197 438 200 471 q 193 360 193 404 l 193 285 m 496 929 q 482 856 496 890 q 443 797 468 822 q 385 756 418 771 q 313 742 351 742 q 240 756 274 742 q 181 796 206 771 q 140 854 156 821 q 125 926 125 888 l 214 928 q 242 858 214 888 q 311 829 269 829 q 380 858 351 829 q 408 928 408 888 l 496 929 z "},"ŕ":{"ha":408,"x_min":14,"x_max":401,"o":"m 14 638 l 57 638 l 204 638 q 212 598 208 618 q 218 558 215 578 q 272 647 232 615 q 356 678 311 679 q 401 665 381 678 l 401 501 l 378 483 q 301 506 347 522 q 243 451 260 490 q 226 368 226 411 l 226 135 l 269 135 l 269 0 l 14 0 l 14 135 l 57 135 l 57 503 l 14 503 l 14 638 m 26 782 l 353 914 l 382 896 l 354 761 l 50 719 l 26 782 z "},"Ţ":{"ha":535,"x_min":0,"x_max":535,"o":"m 431 658 l 431 701 l 351 701 l 351 135 l 394 135 l 394 0 l 139 0 l 139 135 l 182 135 l 182 701 l 103 701 l 103 658 l 0 658 l 0 836 l 535 836 l 535 658 l 431 658 m 208 -262 q 176 -230 189 -251 q 163 -182 163 -208 q 175 -132 163 -153 q 209 -95 186 -108 q 260 -82 232 -82 q 329 -110 300 -82 q 358 -179 358 -139 q 353 -210 358 -194 q 342 -236 349 -225 l 261 -347 l 189 -347 l 208 -262 z "},"ţ":{"ha":335,"x_min":3,"x_max":313,"o":"m 232 526 l 232 249 q 235 183 232 208 q 248 144 239 158 q 272 126 257 131 q 313 122 288 121 l 313 -1 q 124 26 186 -33 q 63 254 63 85 l 63 526 l 3 526 l 3 638 l 63 638 l 63 792 l 194 822 l 232 822 l 232 638 l 313 638 l 313 526 l 232 526 m 110 -262 q 76 -229 89 -251 q 63 -179 63 -207 q 91 -111 63 -140 q 161 -82 119 -82 q 216 -99 192 -82 q 251 -142 240 -115 q 258 -181 260 -162 q 253 -212 258 -196 q 242 -237 249 -228 l 163 -347 l 90 -347 l 110 -262 z "},"Ħ":{"ha":647,"x_min":-4,"x_max":651,"o":"m 651 531 l -4 531 l -4 639 l 651 639 l 651 531 m 378 135 l 421 135 l 421 360 l 226 360 l 226 135 l 269 135 l 269 0 l 14 0 l 14 135 l 57 135 l 57 701 l 14 701 l 14 836 l 269 836 l 269 701 l 226 701 l 226 479 l 421 479 l 421 701 l 378 701 l 378 836 l 421 836 l 633 836 l 633 701 l 590 701 l 590 135 l 633 135 l 633 0 l 378 0 l 378 135 z "},"Ċ":{"ha":600,"x_min":24,"x_max":575,"o":"m 24 551 q 38 669 24 614 q 83 767 51 725 q 166 833 114 808 q 296 857 218 857 q 424 833 369 857 q 513 767 479 810 q 561 663 547 724 q 568 528 575 601 l 415 528 l 400 540 q 396 624 400 586 q 381 690 392 663 q 350 733 369 718 q 300 749 331 749 q 217 694 243 749 q 192 544 192 640 l 192 306 q 212 153 192 207 q 292 100 232 100 q 343 117 322 100 q 376 160 364 133 q 394 224 389 188 q 400 297 400 260 l 415 311 l 568 293 q 557 172 572 228 q 508 75 542 115 q 421 12 474 35 q 296 -11 368 -11 q 165 14 218 -11 q 81 81 113 39 q 37 180 50 124 q 24 299 24 236 l 24 551 m 407 1013 q 376 938 407 968 q 301 907 344 907 q 226 938 257 907 q 194 1013 194 968 q 226 1088 194 1057 q 301 1118 257 1118 q 376 1088 344 1118 q 407 1013 407 1057 z "},"ċ":{"ha":568,"x_min":24,"x_max":547,"o":"m 24 394 q 35 504 24 454 q 77 590 47 554 q 157 644 107 625 q 285 664 207 664 q 489 586 431 664 q 533 369 547 508 l 383 369 l 367 383 q 365 462 367 429 q 355 515 363 494 q 331 546 347 536 q 285 556 314 556 q 210 517 228 556 q 193 388 193 479 l 193 272 q 210 138 193 176 q 285 100 228 100 q 351 144 336 100 q 367 264 367 188 l 383 276 l 533 260 q 526 153 538 203 q 485 68 514 104 q 406 11 456 32 q 285 -10 357 -10 q 157 10 207 -10 q 77 65 107 29 q 35 152 47 101 q 24 265 24 203 l 24 394 m 390 814 q 359 739 390 769 q 285 708 328 708 q 209 739 240 708 q 178 814 178 769 q 209 889 178 858 q 285 919 240 919 q 359 889 328 919 q 390 814 390 858 z "},"ĉ":{"ha":568,"x_min":24,"x_max":547,"o":"m 24 394 q 35 504 24 454 q 77 590 47 554 q 157 644 107 625 q 285 664 207 664 q 489 586 431 664 q 533 369 547 508 l 383 369 l 367 383 q 365 462 367 429 q 355 515 363 494 q 331 546 347 536 q 285 556 314 556 q 210 517 228 556 q 193 388 193 479 l 193 272 q 210 138 193 176 q 285 100 228 100 q 351 144 336 100 q 367 264 367 188 l 383 276 l 533 260 q 526 153 538 203 q 485 68 514 104 q 406 11 456 32 q 285 -10 357 -10 q 157 10 207 -10 q 77 65 107 29 q 35 152 47 101 q 24 265 24 203 l 24 394 m 88 742 l 218 939 l 350 939 l 478 742 l 357 742 l 285 847 l 207 742 l 88 742 z "},"Ĉ":{"ha":600,"x_min":24,"x_max":575,"o":"m 24 551 q 38 669 24 614 q 83 767 51 725 q 166 833 114 808 q 296 857 218 857 q 424 833 369 857 q 513 767 479 810 q 561 663 547 724 q 568 528 575 601 l 415 528 l 400 540 q 396 624 400 586 q 381 690 392 663 q 350 733 369 718 q 300 749 331 749 q 217 694 243 749 q 192 544 192 640 l 192 306 q 212 153 192 207 q 292 100 232 100 q 343 117 322 100 q 376 160 364 133 q 394 224 389 188 q 400 297 400 260 l 415 311 l 568 293 q 557 172 572 228 q 508 75 542 115 q 421 12 474 35 q 296 -11 368 -11 q 165 14 218 -11 q 81 81 113 39 q 37 180 50 124 q 24 299 24 236 l 24 551 m 104 940 l 235 1138 l 367 1138 l 494 940 l 374 940 l 301 1046 l 224 940 l 104 940 z "},"Ĥ":{"ha":647,"x_min":14,"x_max":633,"o":"m 378 135 l 421 135 l 421 360 l 226 360 l 226 135 l 269 135 l 269 0 l 14 0 l 14 135 l 57 135 l 57 701 l 14 701 l 14 836 l 269 836 l 269 701 l 226 701 l 226 479 l 421 479 l 421 701 l 378 701 l 378 836 l 421 836 l 633 836 l 633 701 l 590 701 l 590 135 l 633 135 l 633 0 l 378 0 l 378 135 m 128 940 l 258 1138 l 390 1138 l 518 940 l 397 940 l 325 1046 l 247 940 l 128 940 z "},"İ":{"ha":271,"x_min":14,"x_max":269,"o":"m 14 836 l 226 836 l 226 135 l 269 135 l 269 0 l 14 0 l 14 135 l 57 135 l 57 701 l 14 701 l 14 836 m 226 836 l 269 836 l 269 701 l 226 701 l 226 836 m 242 1013 q 210 938 242 968 q 136 907 179 907 q 60 938 92 907 q 29 1013 29 968 q 60 1088 29 1057 q 136 1118 92 1118 q 210 1088 179 1118 q 242 1013 242 1057 z "},"Ğ":{"ha":615,"x_min":24,"x_max":613,"o":"m 569 0 l 485 0 q 466 40 475 19 q 447 81 457 61 q 388 15 428 40 q 279 -11 347 -11 q 85 61 147 -11 q 24 299 24 133 l 24 551 q 37 668 24 613 q 82 765 50 724 q 167 832 114 807 q 297 857 219 857 q 426 833 372 857 q 515 766 481 810 q 562 662 549 722 q 568 528 575 601 l 417 528 l 400 540 q 396 624 400 586 q 381 690 392 663 q 351 733 371 718 q 301 749 332 749 q 218 695 244 749 q 192 544 192 642 l 192 306 q 213 153 192 206 q 292 100 233 100 q 344 117 324 100 q 378 161 365 133 q 395 224 390 189 q 400 299 400 260 l 357 299 l 357 433 l 613 433 l 613 299 l 569 299 l 569 0 m 492 1128 q 478 1055 492 1089 q 439 995 464 1021 q 381 955 414 969 q 308 940 347 940 q 235 955 269 940 q 176 994 201 969 q 136 1053 151 1019 q 121 1125 121 1086 l 210 1126 q 238 1057 210 1086 q 307 1028 265 1028 q 376 1057 347 1028 q 404 1126 404 1086 l 492 1128 z "},"Ĵ":{"ha":529,"x_min":21,"x_max":574,"o":"m 267 836 l 515 836 l 515 701 l 472 701 l 472 299 q 467 180 472 236 q 439 81 461 124 q 372 14 417 39 q 247 -11 326 -11 q 134 12 179 -11 q 63 75 89 35 q 29 170 38 115 q 25 290 21 225 l 171 308 l 186 294 q 188 222 186 257 q 195 159 189 186 q 215 116 201 132 q 251 100 228 100 q 288 114 276 100 q 305 154 300 128 q 310 219 310 181 q 310 307 310 257 l 310 701 l 267 701 l 267 836 m 183 940 l 314 1138 l 446 1138 l 574 940 l 453 940 l 381 1046 l 303 940 l 183 940 z "},"ĵ":{"ha":285,"x_min":-53,"x_max":338,"o":"m 14 638 l 226 638 l 226 7 q 165 -198 226 -144 q -19 -222 103 -251 l -19 -103 q 18 -99 3 -103 q 42 -81 33 -94 q 53 -45 50 -68 q 57 14 57 -22 l 57 503 l 14 503 l 14 638 m -53 742 l 78 939 l 210 939 l 338 742 l 217 742 l 144 847 l 67 742 l -53 742 z "},"ğ":{"ha":625,"x_min":24,"x_max":610,"o":"m 567 -1 q 551 -100 564 -56 q 509 -176 539 -144 q 430 -226 479 -208 q 306 -243 381 -243 q 124 -199 188 -243 q 60 -81 60 -156 l 83 -51 l 224 -51 q 306 -133 222 -133 q 382 -93 365 -133 q 399 36 399 -53 l 399 79 q 319 13 368 35 q 204 -10 269 -10 q 115 13 150 -10 q 59 76 79 36 q 31 169 39 115 q 24 285 24 224 l 24 360 q 31 489 24 432 q 59 585 38 546 q 119 646 81 625 q 224 667 158 667 q 335 642 289 667 q 408 571 381 617 q 414 604 411 588 q 419 638 417 621 l 567 638 l 610 638 l 610 503 l 567 503 l 567 -1 m 193 285 q 197 220 193 250 q 213 168 201 190 q 244 133 224 146 q 296 121 264 121 q 346 131 326 121 q 377 156 365 140 q 394 193 389 172 q 399 235 399 214 l 399 421 q 394 462 399 442 q 377 498 389 482 q 346 524 365 514 q 296 535 326 535 q 244 524 264 535 q 213 492 224 514 q 197 438 201 471 q 193 360 193 406 l 193 285 m 496 929 q 482 856 496 890 q 443 797 468 822 q 385 756 418 771 q 313 742 351 742 q 240 756 274 742 q 181 796 206 771 q 140 854 156 821 q 125 926 125 888 l 214 928 q 242 858 214 888 q 311 829 269 829 q 380 858 351 829 q 408 928 408 888 l 496 929 z "},"ĥ":{"ha":657,"x_min":14,"x_max":643,"o":"m 388 135 l 431 135 l 431 401 q 410 504 431 474 q 326 535 390 535 q 276 524 296 535 q 246 497 257 514 q 231 459 235 481 q 226 415 226 438 l 226 135 l 269 135 l 269 0 l 14 0 l 14 135 l 57 135 l 57 793 l 14 793 l 14 928 l 57 928 l 219 928 l 219 560 q 419 667 282 667 q 519 649 483 667 q 574 596 556 631 q 596 513 592 561 q 600 401 600 464 l 600 135 l 643 135 l 643 0 l 388 0 l 388 135 m 133 992 l 264 1189 l 396 1189 l 524 992 l 403 992 l 331 1097 l 253 992 l 133 992 z "},"ħ":{"ha":657,"x_min":-26,"x_max":643,"o":"m 388 135 l 431 135 l 431 401 q 410 504 431 474 q 326 535 390 535 q 276 524 296 535 q 246 497 257 514 q 231 459 235 481 q 226 415 226 438 l 226 135 l 269 135 l 269 0 l 14 0 l 14 135 l 57 135 l 57 793 l 14 793 l 14 928 l 57 928 l 219 928 l 219 560 q 419 667 282 667 q 519 649 483 667 q 574 596 556 631 q 596 513 592 561 q 600 401 600 464 l 600 135 l 643 135 l 643 0 l 388 0 l 388 135 m 348 690 l -25 690 l -25 761 l 348 761 l 348 690 z "},"Ġ":{"ha":615,"x_min":24,"x_max":613,"o":"m 569 0 l 485 0 q 466 40 475 19 q 447 81 457 61 q 388 15 428 40 q 279 -11 347 -11 q 85 61 147 -11 q 24 299 24 133 l 24 551 q 37 668 24 613 q 82 765 50 724 q 167 832 114 807 q 297 857 219 857 q 426 833 372 857 q 515 766 481 810 q 562 662 549 722 q 568 528 575 601 l 417 528 l 400 540 q 396 624 400 586 q 381 690 392 663 q 351 733 371 718 q 301 749 332 749 q 218 695 244 749 q 192 544 192 642 l 192 306 q 213 153 192 206 q 292 100 233 100 q 344 117 324 100 q 378 161 365 133 q 395 224 390 189 q 400 299 400 260 l 357 299 l 357 433 l 613 433 l 613 299 l 569 299 l 569 0 m 413 1013 q 381 938 413 968 q 307 907 350 907 q 231 938 263 907 q 200 1013 200 968 q 231 1088 200 1057 q 307 1118 263 1118 q 381 1088 350 1118 q 413 1013 413 1057 z "},"ġ":{"ha":625,"x_min":24,"x_max":610,"o":"m 567 -1 q 551 -100 564 -56 q 509 -176 539 -144 q 430 -226 479 -208 q 306 -243 381 -243 q 124 -199 188 -243 q 60 -81 60 -156 l 83 -51 l 224 -51 q 306 -133 222 -133 q 382 -93 365 -133 q 399 36 399 -53 l 399 79 q 319 13 368 35 q 204 -10 269 -10 q 115 13 150 -10 q 59 76 79 36 q 31 169 39 115 q 24 285 24 224 l 24 360 q 31 489 24 432 q 59 585 38 546 q 119 646 81 625 q 224 667 158 667 q 335 642 289 667 q 408 571 381 617 q 414 604 411 588 q 419 638 417 621 l 567 638 l 610 638 l 610 503 l 567 503 l 567 -1 m 193 285 q 197 220 193 250 q 213 168 201 190 q 244 133 224 146 q 296 121 264 121 q 346 131 326 121 q 377 156 365 140 q 394 193 389 172 q 399 235 399 214 l 399 421 q 394 462 399 442 q 377 498 389 482 q 346 524 365 514 q 296 535 326 535 q 244 524 264 535 q 213 492 224 514 q 197 438 201 471 q 193 360 193 406 l 193 285 m 418 814 q 387 739 418 769 q 313 708 356 708 q 237 739 268 708 q 206 814 206 769 q 237 889 206 858 q 313 919 268 919 q 387 889 356 919 q 418 814 418 858 z "},"ĝ":{"ha":625,"x_min":24,"x_max":610,"o":"m 567 -1 q 551 -100 564 -56 q 509 -176 539 -144 q 430 -226 479 -208 q 306 -243 381 -243 q 124 -199 188 -243 q 60 -81 60 -156 l 83 -51 l 224 -51 q 306 -133 222 -133 q 382 -93 365 -133 q 399 36 399 -53 l 399 79 q 319 13 368 35 q 204 -10 269 -10 q 115 13 150 -10 q 59 76 79 36 q 31 169 39 115 q 24 285 24 224 l 24 360 q 31 489 24 432 q 59 585 38 546 q 119 646 81 625 q 224 667 158 667 q 335 642 289 667 q 408 571 381 617 q 414 604 411 588 q 419 638 417 621 l 567 638 l 610 638 l 610 503 l 567 503 l 567 -1 m 193 285 q 197 220 193 250 q 213 168 201 190 q 244 133 224 146 q 296 121 264 121 q 346 131 326 121 q 377 156 365 140 q 394 193 389 172 q 399 235 399 214 l 399 421 q 394 462 399 442 q 377 498 389 482 q 346 524 365 514 q 296 535 326 535 q 244 524 264 535 q 213 492 224 514 q 197 438 201 471 q 193 360 193 406 l 193 285 m 117 742 l 247 939 l 379 939 l 507 742 l 386 742 l 314 847 l 236 742 l 117 742 z "},"Ĝ":{"ha":615,"x_min":24,"x_max":613,"o":"m 569 0 l 485 0 q 466 40 475 19 q 447 81 457 61 q 388 15 428 40 q 279 -11 347 -11 q 85 61 147 -11 q 24 299 24 133 l 24 551 q 37 668 24 613 q 82 765 50 724 q 167 832 114 807 q 297 857 219 857 q 426 833 372 857 q 515 766 481 810 q 562 662 549 722 q 568 528 575 601 l 417 528 l 400 540 q 396 624 400 586 q 381 690 392 663 q 351 733 371 718 q 301 749 332 749 q 218 695 244 749 q 192 544 192 642 l 192 306 q 213 153 192 206 q 292 100 233 100 q 344 117 324 100 q 378 161 365 133 q 395 224 390 189 q 400 299 400 260 l 357 299 l 357 433 l 613 433 l 613 299 l 569 299 l 569 0 m 113 940 l 243 1138 l 375 1138 l 503 940 l 382 940 l 310 1046 l 232 940 l 113 940 z "},"ŭ":{"ha":658,"x_min":14,"x_max":644,"o":"m 268 503 l 225 503 l 225 285 q 228 202 225 235 q 242 149 232 169 q 273 122 253 129 q 325 114 293 114 q 376 125 356 114 q 409 153 397 136 q 426 193 421 171 q 432 238 431 215 l 432 503 l 389 503 l 389 638 l 644 638 l 644 503 l 601 503 l 601 135 l 644 135 l 644 0 l 454 0 q 448 43 451 21 q 442 86 444 65 q 387 26 421 50 q 308 -6 353 1 q 250 -11 285 -11 q 164 4 200 -10 q 103 50 128 18 q 68 134 79 82 q 57 261 57 186 l 57 503 l 14 503 l 14 638 l 57 638 l 268 638 l 268 503 m 514 929 q 500 856 514 890 q 461 797 486 822 q 403 756 436 771 q 331 742 369 742 q 258 756 292 742 q 199 796 224 771 q 158 854 174 821 q 143 926 143 888 l 232 928 q 260 858 232 888 q 329 829 288 829 q 398 858 369 829 q 426 928 426 888 l 514 929 z "},"Ŭ":{"ha":628,"x_min":14,"x_max":614,"o":"m 365 836 l 614 836 l 614 701 l 571 701 l 571 385 q 564 210 571 285 q 531 87 557 136 q 452 13 504 38 q 308 -11 400 -11 q 168 13 218 -11 q 93 87 118 38 q 63 210 68 136 q 57 385 57 285 l 57 701 l 14 701 l 14 836 l 58 836 l 257 836 l 257 701 l 219 701 l 219 347 q 222 248 219 293 q 235 171 225 203 q 264 121 246 139 q 314 103 282 103 q 363 122 346 103 q 389 173 381 140 q 399 250 397 206 q 401 347 401 294 l 401 701 l 365 701 l 365 836 m 497 1128 q 483 1055 497 1089 q 444 995 469 1021 q 386 955 419 969 q 314 940 353 940 q 241 955 275 940 q 182 994 207 969 q 142 1053 157 1019 q 126 1125 126 1086 l 215 1126 q 243 1057 215 1086 q 313 1028 271 1028 q 381 1057 353 1028 q 410 1126 410 1086 l 497 1128 z "},"Ŝ":{"ha":576,"x_min":19,"x_max":544,"o":"m 194 636 q 210 579 194 604 q 251 533 225 554 q 308 492 276 513 q 374 451 340 472 q 436 409 406 432 q 491 358 467 386 q 530 295 515 331 q 544 214 544 260 q 532 137 544 176 q 490 65 519 97 q 411 10 461 32 q 286 -11 361 -11 q 165 11 217 -11 q 79 74 113 33 q 33 172 46 114 q 28 299 19 229 l 185 299 l 199 283 q 198 223 196 256 q 209 163 200 190 q 235 116 218 135 q 282 97 253 97 q 355 129 335 97 q 375 201 375 161 q 361 256 375 232 q 324 301 347 281 q 270 338 300 321 q 208 375 240 356 q 142 419 175 396 q 84 472 110 442 q 42 539 58 501 q 26 626 26 576 q 42 717 26 675 q 89 790 57 758 q 169 838 121 821 q 286 856 218 856 q 417 831 365 856 q 497 764 468 806 q 534 670 525 722 q 538 564 543 618 l 397 543 l 375 557 q 363 695 386 644 q 286 746 340 746 q 217 716 239 746 q 194 636 194 686 m 92 940 l 222 1138 l 354 1138 l 482 940 l 361 940 l 289 1046 l 211 940 l 92 940 z "},"ŝ":{"ha":567,"x_min":17,"x_max":536,"o":"m 199 479 q 214 431 199 450 q 253 398 229 411 q 310 375 278 385 q 375 354 342 365 q 434 332 406 344 q 485 301 463 319 q 522 255 508 282 q 536 189 536 228 q 522 117 536 153 q 477 53 508 81 q 396 8 446 25 q 274 -10 346 -10 q 163 7 211 -10 q 81 55 114 24 q 32 131 47 86 q 22 231 17 175 l 178 231 l 193 215 q 204 131 189 165 q 274 97 219 97 q 346 119 326 97 q 365 176 365 140 q 353 221 365 203 q 319 253 340 239 q 271 277 299 267 q 214 299 243 288 q 150 322 182 310 q 93 353 118 335 q 51 396 68 371 q 32 457 35 421 q 42 537 28 499 q 88 603 56 575 q 169 647 119 631 q 286 664 218 664 q 463 610 400 664 q 524 461 525 556 l 382 440 l 360 454 q 344 527 358 500 q 281 554 331 554 q 216 532 233 554 q 199 479 199 510 m 88 742 l 218 939 l 350 939 l 478 742 l 357 742 l 285 847 l 207 742 l 88 742 z "},"Ŗ":{"ha":632,"x_min":14,"x_max":618,"o":"m 336 263 q 285 338 317 313 q 226 361 254 364 l 226 135 l 269 135 l 269 0 l 14 0 l 14 135 l 57 135 l 57 701 l 14 701 l 14 836 l 311 836 q 442 821 389 836 q 529 776 496 806 q 577 706 563 747 q 592 613 592 664 q 556 466 592 531 q 431 375 519 401 l 475 331 l 554 135 l 618 135 l 618 0 l 433 0 l 336 263 m 264 -262 q 231 -230 244 -251 q 218 -182 218 -208 q 231 -132 218 -153 q 265 -95 242 -108 q 315 -82 288 -82 q 385 -110 356 -82 q 414 -179 414 -139 q 409 -210 414 -194 q 397 -236 404 -225 l 317 -347 l 244 -347 l 264 -262 m 226 721 l 226 461 l 318 461 q 364 473 344 461 q 397 503 383 485 q 416 547 410 522 q 422 597 422 572 q 396 684 422 647 q 311 721 369 721 l 226 721 z "},"ŗ":{"ha":408,"x_min":14,"x_max":401,"o":"m 14 638 l 204 638 q 212 598 208 618 q 218 558 215 578 q 257 632 229 603 q 318 671 285 661 q 358 676 340 678 q 401 665 379 676 l 401 501 l 378 483 q 301 506 347 522 q 243 451 260 490 q 226 368 226 411 l 226 135 l 269 135 l 269 0 l 14 0 l 14 135 l 57 135 l 57 503 l 14 503 l 14 638 m 90 -262 q 57 -229 69 -251 q 44 -179 44 -207 q 72 -111 44 -140 q 142 -82 100 -82 q 198 -99 174 -82 q 233 -142 222 -115 q 240 -181 240 -162 q 235 -212 240 -196 q 222 -237 229 -228 l 143 -347 l 71 -347 l 90 -262 z "},"Ļ":{"ha":485,"x_min":14,"x_max":482,"o":"m 226 135 l 347 135 l 347 178 l 482 178 l 482 0 l 14 0 l 14 135 l 57 135 l 57 701 l 14 701 l 14 836 l 57 836 l 58 836 l 269 836 l 269 701 l 226 701 l 226 135 m 208 -262 q 176 -230 189 -251 q 163 -182 163 -208 q 175 -132 163 -153 q 209 -95 186 -108 q 260 -82 232 -82 q 329 -110 300 -82 q 358 -179 358 -139 q 353 -210 358 -194 q 342 -236 349 -225 l 261 -347 l 189 -347 l 208 -262 z "},"ļ":{"ha":283,"x_min":14,"x_max":269,"o":"m 14 928 l 226 928 l 226 135 l 269 135 l 269 0 l 14 0 l 14 135 l 57 135 l 57 793 l 14 793 l 14 928 m 92 -262 q 58 -229 71 -251 q 46 -179 46 -207 q 74 -111 46 -140 q 143 -82 101 -82 q 199 -99 174 -82 q 235 -142 224 -115 q 242 -181 242 -162 q 236 -212 242 -196 q 224 -237 231 -228 l 144 -347 l 72 -347 l 92 -262 z "},"Ģ":{"ha":615,"x_min":24,"x_max":613,"o":"m 569 0 l 485 0 q 466 40 475 19 q 447 81 457 61 q 388 15 428 40 q 279 -11 347 -11 q 85 61 147 -11 q 24 299 24 133 l 24 551 q 37 668 24 613 q 82 765 50 724 q 167 832 114 807 q 297 857 219 857 q 426 833 372 857 q 515 766 481 810 q 562 662 549 722 q 568 528 575 601 l 417 528 l 400 540 q 396 624 400 586 q 381 690 392 663 q 351 733 371 718 q 301 749 332 749 q 218 695 244 749 q 192 544 192 642 l 192 306 q 213 153 192 206 q 292 100 233 100 q 344 117 324 100 q 378 161 365 133 q 395 224 390 189 q 400 299 400 260 l 357 299 l 357 433 l 613 433 l 613 299 l 569 299 l 569 0 m 238 -262 q 205 -230 218 -251 q 192 -182 192 -208 q 204 -132 192 -153 q 238 -95 215 -108 q 289 -82 261 -82 q 358 -110 329 -82 q 388 -179 388 -139 q 383 -210 388 -194 q 371 -236 378 -225 l 290 -347 l 218 -347 l 238 -262 z "},"ģ":{"ha":625,"x_min":24,"x_max":610,"o":"m 567 -1 q 551 -100 564 -56 q 509 -176 539 -144 q 430 -226 479 -208 q 306 -243 381 -243 q 124 -199 188 -243 q 60 -81 60 -156 l 83 -51 l 224 -51 q 306 -133 222 -133 q 382 -93 365 -133 q 399 36 399 -53 l 399 79 q 274 -3 357 14 q 236 -8 256 -6 q 196 -8 217 -10 q 110 15 143 -8 q 57 78 76 39 q 31 172 38 118 q 24 285 24 225 l 24 360 q 30 487 24 431 q 57 583 36 543 q 115 643 78 622 q 215 665 153 664 q 293 658 256 667 q 361 626 332 649 q 408 571 390 603 q 414 604 411 588 q 419 638 417 621 l 610 638 l 610 503 l 567 503 l 567 -1 m 193 285 q 197 220 193 250 q 213 168 201 190 q 244 133 224 146 q 296 121 264 121 q 356 137 335 121 q 385 177 376 153 q 397 228 394 201 q 399 278 399 256 l 399 378 q 397 427 399 400 q 387 478 396 454 q 356 519 378 503 q 296 535 335 535 q 244 524 264 535 q 213 492 224 514 q 197 438 201 471 q 193 360 193 406 l 193 285 m 367 914 q 400 881 388 903 q 413 832 413 858 q 385 763 413 792 q 315 733 357 733 q 246 763 275 733 q 217 832 217 792 q 235 889 217 864 l 314 1000 l 386 1000 l 367 914 z "},"Ņ":{"ha":647,"x_min":14,"x_max":633,"o":"m 451 0 l 194 539 l 226 397 l 226 0 l 57 0 l 57 836 l 196 836 l 453 294 l 421 443 l 421 836 l 590 836 l 590 0 l 451 0 m 14 135 l 57 135 l 57 0 l 14 0 l 14 135 m 226 135 l 269 135 l 269 0 l 226 0 l 226 135 m 14 836 l 57 836 l 57 701 l 14 701 l 14 836 m 378 836 l 421 836 l 421 701 l 378 701 l 378 836 m 590 836 l 633 836 l 633 701 l 590 701 l 590 836 m 250 -262 q 217 -229 229 -251 q 204 -179 204 -207 q 232 -110 204 -139 q 301 -82 260 -82 q 371 -110 342 -82 q 400 -179 400 -139 q 395 -210 400 -194 q 383 -236 390 -225 l 303 -347 l 231 -347 l 250 -262 z "},"ņ":{"ha":657,"x_min":14,"x_max":643,"o":"m 388 135 l 431 135 l 431 401 q 410 504 431 474 q 326 535 390 535 q 276 524 296 535 q 246 497 257 514 q 231 459 235 481 q 226 415 226 438 l 226 135 l 269 135 l 269 0 l 14 0 l 14 135 l 57 135 l 57 503 l 14 503 l 14 638 l 204 638 q 212 599 208 618 q 219 560 215 579 q 258 611 235 589 q 313 644 282 633 q 429 665 363 668 q 526 645 492 664 q 576 592 560 626 q 597 510 593 558 q 600 401 600 461 l 600 135 l 643 135 l 643 0 l 388 0 l 388 135 m 263 -262 q 230 -230 243 -251 q 217 -182 217 -208 q 229 -132 217 -153 q 263 -95 240 -108 q 314 -82 286 -82 q 383 -110 354 -82 q 413 -179 413 -139 q 408 -210 413 -194 q 396 -236 403 -225 l 315 -347 l 243 -347 l 263 -262 z "},"Ķ":{"ha":590,"x_min":14,"x_max":606,"o":"m 226 469 q 256 483 240 476 q 281 507 272 490 q 296 540 285 514 q 321 603 307 567 q 351 679 335 639 q 380 753 367 719 q 401 810 393 788 q 411 836 410 833 l 604 836 l 604 701 l 532 701 q 513 646 524 675 q 493 591 503 617 q 475 546 483 565 q 463 518 467 526 q 416 455 439 478 q 383 429 393 432 l 436 376 l 531 135 l 606 135 l 606 0 l 413 0 l 243 389 q 234 390 239 390 q 226 390 229 390 l 226 135 l 269 135 l 269 0 l 14 0 l 14 135 l 57 135 l 57 701 l 14 701 l 14 836 l 57 836 l 269 836 l 269 701 l 226 701 l 226 469 m 246 -262 q 213 -230 226 -251 q 200 -182 200 -208 q 213 -132 200 -153 q 247 -95 224 -108 q 297 -82 269 -82 q 367 -110 338 -82 q 396 -179 396 -139 q 391 -210 396 -194 q 379 -236 386 -225 l 299 -347 l 226 -347 l 246 -262 z "},"ķ":{"ha":588,"x_min":14,"x_max":589,"o":"m 14 928 l 226 928 l 226 372 q 250 369 239 368 q 279 382 265 372 q 303 407 293 392 q 328 456 310 419 q 367 531 347 492 q 403 603 388 571 q 421 638 419 635 l 589 638 l 589 503 l 528 503 q 459 378 490 418 q 408 331 428 338 l 471 267 q 500 201 486 233 q 529 135 514 168 l 589 135 l 589 0 l 435 0 l 267 293 l 226 293 l 226 135 l 269 135 l 269 0 l 14 0 l 14 135 l 57 135 l 57 793 l 14 793 l 14 928 m 250 -262 q 217 -230 231 -251 q 204 -182 204 -208 q 217 -132 204 -153 q 251 -95 228 -108 q 301 -82 274 -82 q 371 -110 342 -82 q 400 -179 400 -139 q 395 -210 400 -194 q 383 -236 390 -225 l 303 -347 l 231 -347 l 250 -262 z "},"ō":{"ha":601,"x_min":24,"x_max":569,"o":"m 296 667 q 426 647 374 667 q 510 590 478 626 q 556 503 542 554 q 569 392 569 453 l 569 265 q 556 153 569 204 q 510 67 542 103 q 426 10 478 31 q 296 -10 374 -10 q 166 10 218 -10 q 83 67 114 31 q 38 153 51 103 q 24 265 24 204 l 24 392 q 38 503 24 453 q 83 590 51 554 q 166 647 114 626 q 296 667 218 667 m 401 385 q 378 515 401 474 q 296 557 354 557 q 216 515 239 557 q 193 385 193 474 l 193 272 q 216 142 193 183 q 296 100 239 100 q 378 142 354 100 q 401 272 401 183 l 401 385 m 496 761 l 104 761 l 104 869 l 496 869 l 496 761 z "},"Ō":{"ha":613,"x_min":24,"x_max":581,"o":"m 297 856 q 438 826 382 856 q 524 741 493 797 q 568 603 556 685 q 581 418 581 522 q 569 239 581 318 q 526 104 557 160 q 440 19 494 49 q 297 -11 385 -11 q 156 19 210 -11 q 73 103 103 49 q 33 238 43 158 q 24 418 24 318 q 34 603 24 522 q 75 741 44 685 q 158 826 106 797 q 297 856 211 856 m 413 418 q 410 551 413 492 q 396 653 407 611 q 363 719 385 696 q 304 742 342 742 q 244 719 267 742 q 208 653 221 696 q 192 551 196 611 q 188 418 188 492 q 191 291 188 349 q 206 192 194 233 q 240 126 217 150 q 303 103 263 103 q 365 127 343 103 q 398 194 388 151 q 410 294 408 236 q 413 418 413 351 m 501 960 l 110 960 l 110 1068 l 501 1068 l 501 960 z "},"Ī":{"ha":271,"x_min":-61,"x_max":331,"o":"m 14 836 l 226 836 l 226 135 l 269 135 l 269 0 l 14 0 l 14 135 l 57 135 l 57 701 l 14 701 l 14 836 m 226 836 l 269 836 l 269 701 l 226 701 l 226 836 m 331 960 l -61 960 l -61 1068 l 331 1068 l 331 960 z "},"ī":{"ha":267,"x_min":-62,"x_max":329,"o":"m 1 638 l 214 638 l 214 135 l 257 135 l 257 0 l 1 0 l 1 135 l 44 135 l 44 503 l 1 503 l 1 638 m 329 761 l -62 761 l -62 869 l 329 869 l 329 761 z "},"Ė":{"ha":533,"x_min":14,"x_max":519,"o":"m 379 658 l 379 701 l 226 701 l 226 479 l 404 479 l 404 360 l 226 360 l 226 135 l 385 135 l 385 178 l 519 178 l 519 0 l 14 0 l 14 135 l 57 135 l 57 701 l 14 701 l 14 836 l 57 836 l 514 836 l 514 658 l 379 658 m 372 1013 q 341 938 372 968 q 267 907 310 907 q 191 938 222 907 q 160 1013 160 968 q 191 1088 160 1057 q 267 1118 222 1118 q 341 1088 310 1118 q 372 1013 372 1057 z "},"ė":{"ha":568,"x_min":24,"x_max":536,"o":"m 389 225 l 533 206 q 515 130 531 168 q 468 60 499 92 q 392 10 438 29 q 285 -10 347 -10 q 157 14 207 -10 q 77 76 107 38 q 35 165 47 115 q 24 265 24 214 l 24 394 q 35 492 24 444 q 76 578 47 540 q 156 640 106 617 q 285 664 207 664 q 403 642 356 664 q 481 583 451 621 q 524 495 511 546 q 536 386 536 444 l 536 307 l 524 294 l 193 294 l 193 274 q 210 140 193 181 q 285 100 228 100 q 344 130 329 100 q 365 217 360 160 l 389 225 m 285 556 q 210 515 228 556 q 193 388 193 475 l 193 382 l 367 382 l 367 385 l 367 428 q 350 524 367 493 q 285 556 333 556 m 390 814 q 359 739 390 769 q 285 708 328 708 q 209 739 240 708 q 178 814 178 769 q 209 889 178 858 q 285 919 240 919 q 359 889 328 919 q 390 814 390 858 z "},"Į":{"ha":271,"x_min":-56,"x_max":269,"o":"m 224 15 l 165 -49 q 144 -71 154 -60 q 122 -93 133 -82 q 93 -144 97 -121 q 100 -181 89 -167 q 135 -199 111 -194 q 194 -192 160 -203 l 194 -261 q 45 -283 103 -292 q -34 -242 -12 -274 q -41 -165 -56 -211 q 28 -78 -26 -119 q 83 -36 56 -56 q 135 3 110 -17 l 224 15 m 14 836 l 226 836 l 226 135 l 269 135 l 269 0 l 14 0 l 14 135 l 57 135 l 57 701 l 14 701 l 14 836 m 226 836 l 269 836 l 269 701 l 226 701 l 226 836 z "},"į":{"ha":285,"x_min":-76,"x_max":269,"o":"m 206 15 l 149 -46 q 124 -70 136 -58 q 103 -93 113 -82 q 73 -144 78 -121 q 79 -181 68 -167 q 115 -199 90 -194 q 175 -192 140 -203 l 175 -261 q 26 -283 83 -292 q -54 -242 -32 -274 q -61 -165 -76 -211 q 8 -78 -46 -119 q 65 -34 38 -54 q 119 6 93 -14 l 206 15 m 14 638 l 226 638 l 226 135 l 269 135 l 269 0 l 14 0 l 14 135 l 57 135 l 57 503 l 14 503 l 14 638 m 246 817 q 215 742 246 772 q 142 713 185 713 q 68 742 99 713 q 38 817 38 772 q 68 890 38 860 q 142 921 99 921 q 215 890 185 921 q 246 817 246 860 z "},"Ŋ":{"ha":647,"x_min":14,"x_max":633,"o":"m 590 -19 q 531 -195 590 -143 q 365 -247 472 -247 q 219 -203 269 -247 q 151 -83 168 -158 l 231 -47 q 269 -49 250 -49 q 308 -51 289 -50 q 326 -112 314 -89 q 369 -136 339 -136 q 404 -124 392 -136 q 422 -87 417 -111 q 427 -28 426 -64 q 428 51 428 7 q 424 58 426 53 l 194 539 q 210 445 203 492 q 226 351 218 399 l 226 135 l 269 135 l 269 0 l 14 0 l 14 135 l 57 135 l 57 701 l 14 701 l 14 836 l 196 836 l 453 294 q 436 392 444 343 q 421 490 428 442 l 421 701 l 378 701 l 378 836 l 633 836 l 633 701 l 590 701 l 590 -19 z "},"ŋ":{"ha":657,"x_min":14,"x_max":600,"o":"m 14 638 l 204 638 q 212 599 208 618 q 219 560 215 579 q 314 643 251 619 q 338 653 325 649 q 365 660 351 657 l 396 665 l 429 665 q 524 646 489 664 q 575 595 558 628 q 596 516 592 563 q 600 413 600 469 l 600 -6 q 588 -119 600 -72 q 547 -194 576 -167 q 471 -230 518 -222 q 353 -222 424 -237 l 353 -103 q 392 -103 376 -104 q 415 -92 407 -101 q 427 -60 424 -82 q 431 1 431 -39 l 431 401 q 410 504 431 474 q 326 535 390 535 q 276 524 296 535 q 246 497 257 514 q 231 459 235 481 q 226 415 226 438 l 226 135 l 269 135 l 269 0 l 14 0 l 14 135 l 57 135 l 57 503 l 14 503 l 14 638 z "},"ĸ":{"ha":588,"x_min":14,"x_max":589,"o":"m 14 638 l 57 638 l 226 638 l 226 372 q 257 371 238 368 q 285 384 272 374 q 310 415 299 394 q 335 464 317 428 q 372 539 353 500 q 421 638 394 585 l 589 638 l 589 503 l 528 503 q 505 453 515 475 q 488 421 494 432 q 441 356 464 379 q 408 331 418 333 l 461 278 l 529 135 l 589 135 l 589 0 l 435 0 l 267 293 l 226 293 l 226 135 l 269 135 l 269 0 l 14 0 l 14 135 l 57 135 l 57 503 l 14 503 l 14 638 z "},"Ĩ":{"ha":271,"x_min":-104,"x_max":375,"o":"m 14 836 l 226 836 l 226 135 l 269 135 l 269 0 l 14 0 l 14 135 l 57 135 l 57 701 l 14 701 l 14 836 m 226 836 l 269 836 l 269 701 l 226 701 l 226 836 m 164 1090 q 212 1061 193 1069 q 244 1055 231 1053 q 269 1070 258 1057 q 293 1108 281 1083 l 375 1058 q 260 938 329 963 q 113 971 192 913 q 63 1001 83 992 q 28 1008 43 1011 q 0 990 13 1006 q -25 949 -12 975 l -104 1003 q -52 1078 -82 1049 q 13 1119 -22 1107 q 85 1125 47 1132 q 164 1090 124 1118 z "},"Ē":{"ha":533,"x_min":14,"x_max":519,"o":"m 379 658 l 379 701 l 226 701 l 226 479 l 404 479 l 404 360 l 226 360 l 226 135 l 385 135 l 385 178 l 519 178 l 519 0 l 14 0 l 14 135 l 57 135 l 57 701 l 14 701 l 14 836 l 57 836 l 514 836 l 514 658 l 379 658 m 461 960 l 69 960 l 69 1068 l 461 1068 l 461 960 z "},"Ŧ":{"ha":535,"x_min":0,"x_max":535,"o":"m 431 658 l 431 701 l 351 701 l 351 135 l 394 135 l 394 0 l 139 0 l 139 135 l 182 135 l 182 701 l 103 701 l 103 658 l 0 658 l 0 836 l 535 836 l 535 658 l 431 658 m 463 404 l 71 404 l 71 513 l 463 513 l 463 404 z "},"ĩ":{"ha":267,"x_min":-107,"x_max":372,"o":"m 1 638 l 214 638 l 214 135 l 257 135 l 257 0 l 1 0 l 1 135 l 44 135 l 44 503 l 1 503 l 1 638 m 161 892 q 209 863 190 871 q 242 856 228 854 q 267 872 256 858 q 290 910 278 885 l 372 860 q 258 739 326 764 q 110 772 189 714 q 60 803 81 793 q 25 810 40 813 q -3 792 10 807 q -28 750 -15 776 l -107 804 q -55 879 -85 850 q 10 921 -25 908 q 83 926 44 933 q 161 892 121 919 z "},"ē":{"ha":568,"x_min":24,"x_max":536,"o":"m 389 225 l 533 206 q 515 130 531 168 q 468 60 499 92 q 392 10 438 29 q 285 -10 347 -10 q 157 14 207 -10 q 77 76 107 38 q 35 165 47 115 q 24 265 24 214 l 24 394 q 35 492 24 444 q 76 578 47 540 q 156 640 106 617 q 285 664 207 664 q 403 642 356 664 q 481 583 451 621 q 524 495 511 546 q 536 386 536 444 l 536 307 l 524 294 l 193 294 l 193 274 q 210 140 193 181 q 285 100 228 100 q 344 130 329 100 q 365 217 360 160 l 389 225 m 285 556 q 210 515 228 556 q 193 388 193 475 l 193 382 l 367 382 l 367 385 l 367 428 q 350 524 367 493 q 285 556 333 556 m 479 761 l 88 761 l 88 869 l 479 869 l 479 761 z "},"Ų":{"ha":628,"x_min":14,"x_max":614,"o":"m 376 4 q 356 -17 369 -3 q 327 -46 342 -31 q 299 -74 313 -61 q 281 -93 286 -87 q 251 -144 256 -121 q 257 -181 246 -167 q 293 -199 268 -194 q 353 -192 318 -203 l 353 -261 q 203 -283 261 -292 q 124 -242 146 -274 q 117 -165 101 -211 q 186 -78 132 -119 l 285 -4 l 376 4 m 365 836 l 614 836 l 614 701 l 571 701 l 571 385 q 564 210 571 285 q 531 87 557 136 q 452 13 504 38 q 308 -11 400 -11 q 168 13 218 -11 q 93 87 118 38 q 63 210 68 136 q 57 385 57 285 l 57 701 l 14 701 l 14 836 l 58 836 l 257 836 l 257 701 l 219 701 l 219 347 q 222 248 219 293 q 235 171 225 203 q 264 121 246 139 q 314 103 282 103 q 363 122 346 103 q 389 173 381 140 q 399 250 397 206 q 401 347 401 294 l 401 701 l 365 701 l 365 836 z "},"ų":{"ha":658,"x_min":14,"x_max":644,"o":"m 560 -29 q 523 -65 542 -47 q 493 -99 504 -83 q 468 -147 471 -125 q 476 -181 465 -168 q 513 -198 488 -194 q 571 -192 538 -201 l 571 -261 q 422 -283 479 -292 q 342 -242 364 -274 q 335 -165 319 -211 q 404 -78 350 -119 q 458 -37 432 -56 q 510 1 485 -18 l 560 -29 m 268 503 l 225 503 l 225 285 q 228 202 225 235 q 242 149 232 169 q 273 122 253 129 q 325 114 293 114 q 376 125 356 114 q 409 153 397 136 q 426 193 421 171 q 432 238 431 215 l 432 503 l 389 503 l 389 638 l 644 638 l 644 503 l 601 503 l 601 135 l 644 135 l 644 0 l 454 0 q 448 43 451 21 q 442 86 444 65 q 387 26 421 50 q 308 -6 353 1 q 250 -11 285 -11 q 164 4 200 -10 q 103 50 128 18 q 68 134 79 82 q 57 261 57 186 l 57 503 l 14 503 l 14 638 l 57 638 l 268 638 l 268 503 z "},"ũ":{"ha":658,"x_min":14,"x_max":644,"o":"m 268 503 l 225 503 l 225 285 q 228 202 225 235 q 242 149 232 169 q 273 122 253 129 q 325 114 293 114 q 376 125 356 114 q 409 153 397 136 q 426 193 421 171 q 432 238 431 215 l 432 503 l 389 503 l 389 638 l 644 638 l 644 503 l 601 503 l 601 135 l 644 135 l 644 0 l 454 0 q 448 43 451 21 q 442 86 444 65 q 387 26 421 50 q 308 -6 353 1 q 250 -11 285 -11 q 164 4 200 -10 q 103 50 128 18 q 68 134 79 82 q 57 261 57 186 l 57 503 l 14 503 l 14 638 l 57 638 l 268 638 l 268 503 m 357 892 q 405 863 386 871 q 438 856 424 854 q 463 872 451 858 q 486 910 474 885 l 568 860 q 453 739 522 764 q 306 772 385 714 q 256 803 276 793 q 221 810 236 813 q 193 792 206 807 q 168 750 181 776 l 89 804 q 141 879 111 850 q 206 921 171 908 q 278 926 240 933 q 357 892 317 919 z "},"ū":{"ha":658,"x_min":14,"x_max":644,"o":"m 268 503 l 225 503 l 225 285 q 228 202 225 235 q 242 149 232 169 q 273 122 253 129 q 325 114 293 114 q 376 125 356 114 q 409 153 397 136 q 426 193 421 171 q 432 238 431 215 l 432 503 l 389 503 l 389 638 l 644 638 l 644 503 l 601 503 l 601 135 l 644 135 l 644 0 l 454 0 q 448 43 451 21 q 442 86 444 65 q 387 26 421 50 q 308 -6 353 1 q 250 -11 285 -11 q 164 4 200 -10 q 103 50 128 18 q 68 134 79 82 q 57 261 57 186 l 57 503 l 14 503 l 14 638 l 57 638 l 268 638 l 268 503 m 525 761 l 133 761 l 133 869 l 525 869 l 525 761 z "},"Ū":{"ha":628,"x_min":14,"x_max":614,"o":"m 365 836 l 614 836 l 614 701 l 571 701 l 571 385 q 564 210 571 285 q 531 87 557 136 q 452 13 504 38 q 308 -11 400 -11 q 168 13 218 -11 q 93 87 118 38 q 63 210 68 136 q 57 385 57 285 l 57 701 l 14 701 l 14 836 l 58 836 l 257 836 l 257 701 l 219 701 l 219 347 q 222 248 219 293 q 235 171 225 203 q 264 121 246 139 q 314 103 282 103 q 363 122 346 103 q 389 173 381 140 q 399 250 397 206 q 401 347 401 294 l 401 701 l 365 701 l 365 836 m 508 960 l 117 960 l 117 1068 l 508 1068 l 508 960 z "},"Ũ":{"ha":628,"x_min":14,"x_max":614,"o":"m 365 836 l 614 836 l 614 701 l 571 701 l 571 385 q 564 210 571 285 q 531 87 557 136 q 452 13 504 38 q 308 -11 400 -11 q 168 13 218 -11 q 93 87 118 38 q 63 210 68 136 q 57 385 57 285 l 57 701 l 14 701 l 14 836 l 58 836 l 257 836 l 257 701 l 219 701 l 219 347 q 222 248 219 293 q 235 171 225 203 q 264 121 246 139 q 314 103 282 103 q 363 122 346 103 q 389 173 381 140 q 399 250 397 206 q 401 347 401 294 l 401 701 l 365 701 l 365 836 m 342 1090 q 390 1061 371 1069 q 422 1055 408 1053 q 447 1070 436 1057 q 471 1108 458 1083 l 553 1058 q 438 938 507 963 q 290 971 369 913 q 241 1001 261 992 q 206 1008 221 1011 q 178 990 190 1006 q 153 949 165 975 l 74 1003 q 126 1078 96 1049 q 190 1119 156 1107 q 263 1125 225 1132 q 342 1090 301 1118 z "},"ŧ":{"ha":335,"x_min":3,"x_max":313,"o":"m 313 669 l 3 669 l 3 779 l 313 779 l 313 669 m 232 526 l 232 249 q 235 183 232 208 q 248 144 239 158 q 272 126 257 131 q 313 122 288 121 l 313 -1 q 124 26 186 -33 q 63 254 63 85 l 63 526 l 3 526 l 3 638 l 63 638 l 63 792 l 194 822 l 232 822 l 232 638 l 313 638 l 313 526 l 232 526 z "},"Ā":{"ha":614,"x_min":-14,"x_max":628,"o":"m 386 122 l 418 122 l 393 203 l 206 203 l 183 122 l 226 122 l 226 0 l -14 0 l -14 135 l 28 135 l 206 836 l 386 836 l 583 135 l 628 135 l 628 0 l 386 0 l 386 122 m 225 303 l 369 303 l 339 397 l 293 660 l 253 397 l 225 303 m 503 960 l 111 960 l 111 1068 l 503 1068 l 503 960 z "},"ā":{"ha":625,"x_min":24,"x_max":610,"o":"m 567 135 l 610 135 l 610 0 l 417 0 q 409 41 414 21 q 401 82 404 61 q 320 13 371 36 q 203 -10 269 -10 q 113 14 147 -10 q 58 77 78 38 q 31 170 38 117 q 24 285 24 224 l 24 360 q 31 488 24 431 q 58 584 38 544 q 119 645 79 624 q 224 667 158 667 q 335 641 290 667 q 407 569 381 615 q 413 603 410 586 q 418 638 415 621 l 567 638 l 610 638 l 610 503 l 567 503 l 567 135 m 193 285 q 197 222 193 251 q 211 169 200 192 q 242 134 222 147 q 294 121 261 121 q 348 132 328 121 q 380 160 368 143 q 395 199 392 178 q 399 240 399 221 l 399 401 q 396 446 399 422 q 383 490 393 469 q 351 522 372 510 q 294 535 331 535 q 242 524 261 535 q 211 492 222 514 q 197 438 200 471 q 193 360 193 404 l 193 285 m 507 761 l 115 761 l 115 869 l 507 869 l 507 761 z "},"Ḃ":{"ha":631,"x_min":14,"x_max":600,"o":"m 14 836 l 57 836 l 325 836 q 454 822 401 836 q 539 779 507 807 q 585 711 571 751 q 600 619 600 671 q 583 512 600 561 q 522 431 565 463 q 583 355 567 401 q 600 250 600 308 q 587 151 600 197 q 542 72 574 106 q 460 19 511 39 q 332 0 408 0 l 14 0 l 14 135 l 57 135 l 57 701 l 14 701 l 14 836 m 431 250 q 410 341 431 308 q 342 378 390 374 l 225 378 l 225 115 l 332 115 q 408 151 385 115 q 431 250 431 186 m 225 721 l 225 478 l 338 478 q 377 490 360 479 q 406 518 394 500 q 424 558 418 536 q 431 606 431 581 q 406 688 431 654 q 325 721 382 721 l 225 721 m 421 1013 q 390 938 421 968 q 315 907 358 907 q 240 938 271 907 q 208 1013 208 968 q 240 1088 208 1057 q 315 1118 271 1118 q 390 1088 358 1118 q 421 1013 421 1057 z "},"ḃ":{"ha":631,"x_min":14,"x_max":600,"o":"m 14 928 l 57 928 l 217 928 l 217 569 q 289 641 244 615 q 400 667 333 667 q 505 645 465 667 q 565 584 544 624 q 593 488 586 544 q 600 360 600 431 l 600 285 q 593 170 600 224 q 567 77 586 117 q 513 14 547 38 q 422 -10 478 -10 q 305 13 356 -10 q 224 82 254 36 l 207 0 l 14 0 l 14 135 l 57 135 l 57 793 l 14 793 l 14 928 m 431 360 q 427 438 431 404 q 413 492 424 471 q 382 524 401 514 q 329 535 363 535 q 273 522 293 535 q 242 490 253 510 q 229 446 232 469 q 226 401 226 422 l 226 240 q 230 199 226 221 q 244 160 233 178 q 276 132 256 143 q 329 121 296 121 q 382 134 363 121 q 413 169 401 147 q 427 222 424 192 q 431 285 431 251 l 431 360 m 421 1057 q 390 982 421 1013 q 315 951 358 951 q 240 982 271 951 q 208 1057 208 1013 q 240 1132 208 1101 q 315 1163 271 1163 q 390 1132 358 1163 q 421 1057 421 1101 z "},"Ḋ":{"ha":633,"x_min":14,"x_max":603,"o":"m 14 836 l 314 836 q 461 808 404 836 q 549 725 518 779 q 592 593 581 671 q 603 418 603 515 q 592 244 603 322 q 549 113 581 167 q 460 29 517 58 q 314 0 404 0 l 14 0 l 14 135 l 57 135 l 57 701 l 14 701 l 14 836 m 226 722 l 226 114 l 308 114 q 374 136 349 114 q 412 199 399 158 q 429 294 425 239 q 433 418 433 350 q 431 541 433 485 q 418 638 429 597 q 383 700 407 678 q 318 722 360 722 l 226 722 m 422 1013 q 391 938 422 968 q 317 907 360 907 q 241 938 272 907 q 210 1013 210 968 q 241 1088 210 1057 q 317 1118 272 1118 q 391 1088 360 1118 q 422 1013 422 1057 z "},"Ẁ":{"ha":753,"x_min":-32,"x_max":778,"o":"m 210 701 l 169 701 l 206 464 l 219 219 l 247 460 l 292 836 l 439 836 l 483 474 l 517 200 l 526 442 l 574 701 l 533 701 l 533 836 l 778 836 l 778 701 l 738 701 l 597 0 l 422 0 l 382 264 l 357 483 l 338 264 l 283 0 l 122 0 l 8 701 l -32 701 l -32 836 l 210 836 l 210 701 m 528 918 l 225 960 l 197 1094 l 225 1113 l 553 981 l 528 918 z "},"Ẃ":{"ha":753,"x_min":-32,"x_max":778,"o":"m 210 701 l 169 701 l 206 464 l 219 219 l 247 460 l 292 836 l 439 836 l 483 474 l 517 200 l 526 442 l 574 701 l 533 701 l 533 836 l 778 836 l 778 701 l 738 701 l 597 0 l 422 0 l 382 264 l 357 483 l 338 264 l 283 0 l 122 0 l 8 701 l -32 701 l -32 836 l 210 836 l 210 701 m 197 981 l 524 1113 l 553 1094 l 525 960 l 221 918 l 197 981 z "},"ḋ":{"ha":625,"x_min":24,"x_max":610,"o":"m 364 928 l 567 928 l 567 135 l 610 135 l 610 0 l 417 0 q 409 41 414 21 q 401 82 404 61 q 320 13 371 36 q 203 -10 269 -10 q 113 14 147 -10 q 58 77 78 38 q 31 170 38 117 q 24 285 24 224 l 24 360 q 31 488 24 431 q 58 584 38 544 q 119 645 79 624 q 224 667 158 667 q 335 641 290 667 q 407 569 381 615 l 407 793 l 364 793 l 364 928 m 193 285 q 197 222 193 251 q 211 169 200 192 q 242 134 222 147 q 294 121 261 121 q 348 132 328 121 q 380 160 368 143 q 395 199 392 178 q 399 240 399 221 l 399 401 q 396 446 399 422 q 383 490 393 469 q 351 522 372 510 q 294 535 331 535 q 242 524 261 535 q 211 492 222 514 q 197 438 200 471 q 193 360 193 404 l 193 285 m 418 1056 q 387 981 418 1011 q 313 950 356 950 q 237 981 268 950 q 206 1056 206 1011 q 237 1131 206 1100 q 313 1161 268 1161 q 387 1131 356 1161 q 418 1056 418 1100 z "},"Ỳ":{"ha":536,"x_min":-28,"x_max":557,"o":"m 321 836 l 557 836 l 557 701 l 515 701 l 354 315 l 354 135 l 397 135 l 397 0 l 143 0 l 143 135 l 186 135 l 186 324 l 15 701 l -28 701 l -28 836 l 201 836 l 201 701 l 171 701 l 235 558 l 267 439 l 293 553 l 357 701 l 321 701 l 321 836 m 421 918 l 118 960 l 90 1094 l 118 1113 l 446 981 l 421 918 z "},"Ḟ":{"ha":515,"x_min":14,"x_max":515,"o":"m 381 658 l 381 701 l 226 701 l 226 433 l 407 433 l 407 306 l 226 306 l 226 135 l 269 135 l 269 0 l 14 0 l 14 135 l 57 135 l 57 701 l 14 701 l 14 836 l 515 836 l 515 658 l 381 658 m 363 1013 q 331 938 363 968 q 257 907 300 907 q 181 938 213 907 q 150 1013 150 968 q 181 1088 150 1057 q 257 1118 213 1118 q 331 1088 300 1118 q 363 1013 363 1057 z "},"ḟ":{"ha":317,"x_min":4,"x_max":314,"o":"m 22 135 l 65 135 l 65 526 l 4 526 l 4 638 l 65 638 l 65 707 q 128 915 65 861 q 314 939 192 968 l 314 819 q 275 816 290 821 q 251 798 260 811 q 238 761 242 785 q 235 700 235 738 l 235 638 l 314 638 l 314 526 l 235 526 l 235 135 l 278 135 l 278 0 l 22 0 l 22 135 m 264 1092 q 233 1017 264 1047 q 158 986 201 986 q 83 1017 114 986 q 51 1092 51 1047 q 83 1167 51 1136 q 158 1197 114 1197 q 233 1167 201 1197 q 264 1092 264 1136 z "},"Ṁ":{"ha":774,"x_min":14,"x_max":760,"o":"m 524 135 l 547 135 l 547 272 l 586 524 l 415 0 l 339 0 l 190 467 l 201 264 l 201 135 l 236 135 l 236 0 l 14 0 l 14 135 l 57 135 l 57 701 l 14 701 l 14 836 l 215 836 q 289 624 254 724 q 361 411 324 524 l 376 275 l 408 389 l 553 836 l 760 836 l 760 701 l 717 701 l 717 135 l 760 135 l 760 0 l 524 0 l 524 135 m 493 1013 q 462 938 493 968 q 388 907 431 907 q 312 938 343 907 q 281 1013 281 968 q 312 1088 281 1057 q 388 1118 343 1118 q 462 1088 431 1118 q 493 1013 493 1057 z "},"ṁ":{"ha":950,"x_min":14,"x_max":936,"o":"m 347 135 l 390 135 l 390 351 q 377 492 390 450 q 313 535 364 535 q 265 523 282 535 q 239 492 247 511 q 228 449 231 472 q 226 403 226 425 l 226 135 l 269 135 l 269 0 l 14 0 l 14 135 l 57 135 l 57 503 l 14 503 l 14 638 l 57 638 l 188 638 l 207 565 q 270 640 231 614 q 364 667 310 667 q 435 659 407 667 q 481 638 464 651 q 508 604 499 624 q 524 563 517 585 q 553 609 533 589 q 600 642 574 629 q 657 660 626 654 q 719 667 688 667 q 817 645 782 667 q 869 586 853 624 q 890 497 886 549 q 893 385 893 446 l 893 135 l 936 135 l 936 0 l 681 0 l 681 135 l 724 135 l 724 353 q 710 492 724 450 q 646 535 696 535 q 603 526 619 535 q 576 502 586 517 q 563 469 567 488 q 560 431 560 450 l 560 135 l 603 135 l 603 0 l 347 0 l 347 135 m 581 814 q 549 739 581 769 q 475 708 518 708 q 399 739 431 708 q 368 814 368 769 q 399 889 368 858 q 475 919 431 919 q 549 889 518 919 q 581 814 581 858 z "},"Ṗ":{"ha":619,"x_min":14,"x_max":601,"o":"m 14 836 l 257 836 l 325 836 q 456 815 403 835 q 541 759 508 796 q 588 670 574 722 q 601 553 601 618 q 586 424 601 478 q 534 336 571 371 q 435 285 497 301 q 282 269 374 269 l 225 269 l 225 135 l 269 135 l 269 0 l 14 0 l 14 135 l 57 135 l 57 701 l 14 701 l 14 836 m 225 721 l 225 379 l 325 379 q 408 426 383 379 q 432 553 432 474 q 406 676 432 631 q 318 721 379 721 l 225 721 m 415 1013 q 384 938 415 968 q 310 907 353 907 q 234 938 265 907 q 203 1013 203 968 q 234 1088 203 1057 q 310 1118 265 1118 q 384 1088 353 1118 q 415 1013 415 1057 z "},"ẁ":{"ha":725,"x_min":-4,"x_max":729,"o":"m 203 503 l 176 503 l 206 349 l 218 190 l 235 344 l 293 638 l 415 638 l 475 347 l 497 190 l 504 347 l 536 503 l 514 503 l 501 638 l 729 638 l 729 503 l 692 503 l 576 0 l 435 0 l 368 235 l 356 394 l 340 235 l 269 0 l 119 0 l 28 503 l -4 503 l -4 638 l 215 638 l 203 503 m 515 719 l 213 761 l 185 896 l 213 914 l 540 782 l 515 719 z "},"ṗ":{"ha":631,"x_min":14,"x_max":600,"o":"m 14 638 l 57 638 l 206 638 l 217 569 q 289 641 244 615 q 400 667 333 667 q 505 645 465 667 q 565 584 544 624 q 593 488 586 544 q 600 360 600 431 l 600 285 q 593 170 600 224 q 567 77 586 117 q 513 14 547 38 q 422 -10 478 -10 q 305 13 356 -10 q 224 82 254 36 l 224 -85 l 267 -85 l 267 -219 l 14 -219 l 14 -85 l 57 -85 l 57 503 l 14 503 l 14 638 m 431 360 q 427 438 431 404 q 413 492 424 471 q 382 524 401 514 q 329 535 363 535 q 273 522 293 535 q 242 490 253 510 q 229 446 232 469 q 226 401 226 422 l 226 240 q 230 199 226 221 q 244 160 233 178 q 276 132 256 143 q 329 121 296 121 q 382 134 363 121 q 413 169 401 147 q 427 222 424 192 q 431 285 431 251 l 431 360 m 421 814 q 390 739 421 769 q 315 708 358 708 q 240 739 271 708 q 208 814 208 769 q 240 889 208 858 q 315 919 271 919 q 390 889 358 919 q 421 814 421 858 z "},"ẃ":{"ha":725,"x_min":-4,"x_max":729,"o":"m 203 503 l 176 503 l 206 349 l 218 190 l 235 344 l 293 638 l 415 638 l 475 347 l 497 190 l 504 347 l 536 503 l 514 503 l 501 638 l 729 638 l 729 503 l 692 503 l 576 0 l 435 0 l 368 235 l 356 394 l 340 235 l 269 0 l 119 0 l 28 503 l -4 503 l -4 638 l 215 638 l 203 503 m 185 782 l 511 914 l 540 896 l 513 761 l 208 719 l 185 782 z "},"Ṡ":{"ha":576,"x_min":19,"x_max":544,"o":"m 194 636 q 210 579 194 604 q 251 533 225 554 q 308 492 276 513 q 374 451 340 472 q 436 409 406 432 q 491 358 467 386 q 530 295 515 331 q 544 214 544 260 q 532 137 544 176 q 490 65 519 97 q 411 10 461 32 q 286 -11 361 -11 q 165 11 217 -11 q 79 74 113 33 q 33 172 46 114 q 28 299 19 229 l 185 299 l 199 283 q 198 223 196 256 q 209 163 200 190 q 235 116 218 135 q 282 97 253 97 q 355 129 335 97 q 375 201 375 161 q 361 256 375 232 q 324 301 347 281 q 270 338 300 321 q 208 375 240 356 q 142 419 175 396 q 84 472 110 442 q 42 539 58 501 q 26 626 26 576 q 42 717 26 675 q 89 790 57 758 q 169 838 121 821 q 286 856 218 856 q 417 831 365 856 q 497 764 468 806 q 534 670 525 722 q 538 564 543 618 l 397 543 l 375 557 q 363 695 386 644 q 286 746 340 746 q 217 716 239 746 q 194 636 194 686 m 394 1013 q 363 938 394 968 q 289 907 332 907 q 213 938 244 907 q 182 1013 182 968 q 213 1088 182 1057 q 289 1118 244 1118 q 363 1088 332 1118 q 394 1013 394 1057 z "},"ỳ":{"ha":557,"x_min":-11,"x_max":568,"o":"m 229 503 l 196 503 l 250 350 l 268 176 l 310 350 l 363 503 l 326 503 l 326 638 l 568 638 l 568 503 l 526 503 l 306 -85 l 344 -85 l 344 -219 l 90 -219 l 90 -85 l 151 -85 l 197 28 l 31 503 l -11 503 l -11 638 l 229 638 l 229 503 m 432 719 l 129 761 l 101 896 l 129 914 l 457 782 l 432 719 z "},"Ẅ":{"ha":753,"x_min":-32,"x_max":778,"o":"m 210 701 l 169 701 l 206 464 l 219 219 l 247 460 l 292 836 l 439 836 l 483 474 l 517 200 l 526 442 l 574 701 l 533 701 l 533 836 l 778 836 l 778 701 l 738 701 l 597 0 l 422 0 l 382 264 l 357 483 l 338 264 l 283 0 l 122 0 l 8 701 l -32 701 l -32 836 l 210 836 l 210 701 m 571 1024 q 545 962 571 988 q 483 936 519 936 q 422 962 447 936 q 397 1024 397 988 q 422 1085 397 1060 q 483 1111 447 1111 q 545 1085 519 1111 q 571 1024 571 1060 m 354 1024 q 328 962 354 988 q 267 936 303 936 q 206 962 231 936 q 181 1024 181 988 q 206 1085 181 1060 q 267 1111 231 1111 q 328 1085 303 1111 q 354 1024 354 1060 z "},"ẅ":{"ha":725,"x_min":-4,"x_max":729,"o":"m 203 503 l 176 503 l 206 349 l 218 190 l 235 344 l 293 638 l 415 638 l 475 347 l 497 190 l 504 347 l 536 503 l 514 503 l 501 638 l 729 638 l 729 503 l 692 503 l 576 0 l 435 0 l 368 235 l 356 394 l 340 235 l 269 0 l 119 0 l 28 503 l -4 503 l -4 638 l 215 638 l 203 503 m 557 825 q 531 763 557 789 q 469 738 506 738 q 408 763 433 738 q 383 825 383 789 q 408 887 383 861 q 469 913 433 913 q 531 887 506 913 q 557 825 557 861 m 340 825 q 315 763 340 789 q 253 738 289 738 q 192 763 217 738 q 167 825 167 789 q 192 887 167 861 q 253 913 217 913 q 315 887 289 913 q 340 825 340 861 z "},"ṡ":{"ha":567,"x_min":17,"x_max":536,"o":"m 199 479 q 214 431 199 450 q 253 398 229 411 q 310 375 278 385 q 375 354 342 365 q 434 332 406 344 q 485 301 463 319 q 522 255 508 282 q 536 189 536 228 q 522 117 536 153 q 477 53 508 81 q 396 8 446 25 q 274 -10 346 -10 q 163 7 211 -10 q 81 55 114 24 q 32 131 47 86 q 22 231 17 175 l 178 231 l 193 215 q 204 131 189 165 q 274 97 219 97 q 346 119 326 97 q 365 176 365 140 q 353 221 365 203 q 319 253 340 239 q 271 277 299 267 q 214 299 243 288 q 150 322 182 310 q 93 353 118 335 q 51 396 68 371 q 32 457 35 421 q 42 537 28 499 q 88 603 56 575 q 169 647 119 631 q 286 664 218 664 q 463 610 400 664 q 524 461 525 556 l 382 440 l 360 454 q 344 527 358 500 q 281 554 331 554 q 216 532 233 554 q 199 479 199 510 m 389 814 q 358 739 389 769 q 283 708 326 708 q 208 739 239 708 q 176 814 176 769 q 208 889 176 858 q 283 919 239 919 q 358 889 326 919 q 389 814 389 858 z "},"Ŵ":{"ha":753,"x_min":-32,"x_max":778,"o":"m 210 701 l 169 701 l 206 464 l 219 219 l 247 460 l 292 836 l 439 836 l 483 474 l 517 200 l 526 442 l 574 701 l 533 701 l 533 836 l 778 836 l 778 701 l 738 701 l 597 0 l 422 0 l 382 264 l 357 483 l 338 264 l 283 0 l 122 0 l 8 701 l -32 701 l -32 836 l 210 836 l 210 701 m 181 940 l 311 1138 l 443 1138 l 571 940 l 450 940 l 378 1046 l 300 940 l 181 940 z "},"Ṫ":{"ha":535,"x_min":0,"x_max":535,"o":"m 431 658 l 431 701 l 351 701 l 351 135 l 394 135 l 394 0 l 139 0 l 139 135 l 182 135 l 182 701 l 103 701 l 103 658 l 0 658 l 0 836 l 535 836 l 535 658 l 431 658 m 372 1013 q 341 938 372 968 q 267 907 310 907 q 191 938 222 907 q 160 1013 160 968 q 191 1088 160 1057 q 267 1118 222 1118 q 341 1088 310 1118 q 372 1013 372 1057 z "},"Ŷ":{"ha":536,"x_min":-28,"x_max":557,"o":"m 321 836 l 557 836 l 557 701 l 515 701 l 354 315 l 354 135 l 397 135 l 397 0 l 143 0 l 143 135 l 186 135 l 186 324 l 15 701 l -28 701 l -28 836 l 201 836 l 201 701 l 171 701 l 235 558 l 267 439 l 293 553 l 357 701 l 321 701 l 321 836 m 72 940 l 203 1138 l 335 1138 l 463 940 l 342 940 l 269 1046 l 192 940 l 72 940 z "},"ŵ":{"ha":725,"x_min":-4,"x_max":729,"o":"m 203 503 l 176 503 l 206 349 l 218 190 l 235 344 l 293 638 l 415 638 l 475 347 l 497 190 l 504 347 l 536 503 l 514 503 l 501 638 l 729 638 l 729 503 l 692 503 l 576 0 l 435 0 l 368 235 l 356 394 l 340 235 l 269 0 l 119 0 l 28 503 l -4 503 l -4 638 l 215 638 l 203 503 m 167 742 l 297 939 l 429 939 l 557 742 l 436 742 l 364 847 l 286 742 l 167 742 z "},"ṫ":{"ha":335,"x_min":3,"x_max":313,"o":"m 232 526 l 232 249 q 235 183 232 208 q 248 144 239 158 q 272 126 257 131 q 313 122 288 121 l 313 -1 q 124 26 186 -33 q 63 254 63 85 l 63 526 l 3 526 l 3 638 l 63 638 l 63 792 l 194 822 l 232 822 l 232 638 l 313 638 l 313 526 l 232 526 m 253 971 q 222 896 253 926 q 147 865 190 865 q 72 896 103 865 q 40 971 40 926 q 72 1046 40 1015 q 147 1076 103 1076 q 222 1046 190 1076 q 253 971 253 1015 z "},"ŷ":{"ha":557,"x_min":-11,"x_max":568,"o":"m 229 503 l 196 503 l 250 350 l 268 176 l 310 350 l 363 503 l 326 503 l 326 638 l 568 638 l 568 503 l 526 503 l 306 -85 l 344 -85 l 344 -219 l 90 -219 l 90 -85 l 151 -85 l 197 28 l 31 503 l -11 503 l -11 638 l 229 638 l 229 503 m 83 742 l 214 939 l 346 939 l 474 742 l 353 742 l 281 847 l 203 742 l 83 742 z "},"®":{"ha":967,"x_min":38,"x_max":921,"o":"m 38 533 q 63 675 38 610 q 144 787 89 740 q 283 860 199 833 q 488 888 368 888 q 688 863 606 888 q 822 790 769 838 q 897 678 874 743 q 921 533 921 613 l 921 122 q 897 -19 921 43 q 822 -124 874 -81 q 688 -192 771 -168 q 488 -219 606 -217 q 284 -199 369 -224 q 144 -129 199 -175 q 63 -19 89 -83 q 38 122 38 44 l 38 533 m 790 525 q 776 626 790 579 q 726 707 761 672 q 632 762 690 742 q 488 782 574 782 q 340 762 400 782 q 242 708 279 742 q 187 626 204 674 q 169 525 169 579 l 169 131 q 187 32 169 78 q 242 -47 204 -14 q 340 -99 279 -81 q 488 -114 400 -117 q 632 -94 574 -111 q 726 -45 690 -76 q 776 31 761 -14 q 790 131 790 75 l 790 525 m 178 697 l 221 697 l 475 697 q 606 682 553 697 q 693 638 660 667 q 741 567 726 608 q 756 474 756 525 q 719 327 756 392 q 594 236 683 263 l 651 222 l 718 135 l 782 135 l 782 0 l 597 0 l 522 144 q 500 181 511 167 q 474 204 489 194 q 430 220 454 217 q 390 222 406 224 l 390 135 l 433 135 l 433 0 l 178 0 l 178 135 l 221 135 l 221 563 l 178 563 l 178 697 m 390 582 l 390 322 l 482 322 q 528 334 508 322 q 560 365 547 346 q 580 408 574 383 q 586 458 586 433 q 560 545 586 508 q 475 582 533 582 l 390 582 z "}}}
